STARTFONT 2.3
FONT -FontForge-Roboto Medium-Medium-R-Normal--14-140-72-72-P-79-ISO10646-1
SIZE 14 72 72  2
FONTBOUNDINGBOX 27 20 -10 -4
COMMENT "Generated by fontforge, http://fontforge.sourceforge.net"
COMMENT "Copyright 2011 Google Inc. All Rights Reserved."
STARTPROPERTIES 42
FOUNDRY "FontForge"
FAMILY_NAME "Roboto Medium"
WEIGHT_NAME "Medium"
SLANT "R"
SETWIDTH_NAME "Normal"
ADD_STYLE_NAME ""
PIXEL_SIZE 14
POINT_SIZE 140
RESOLUTION_X 72
RESOLUTION_Y 72
SPACING "P"
AVERAGE_WIDTH 79
CHARSET_REGISTRY "ISO10646"
CHARSET_ENCODING "1"
FONTNAME_REGISTRY ""
CHARSET_COLLECTIONS "ISO8859-2 ISO8859-5 ISO8859-7 ISO8859-9 ISO8859-4 ISO10646-1"
BITS_PER_PIXEL 2
FONT_NAME "Roboto-Medium"
FACE_NAME "Roboto Medium"
COPYRIGHT "Copyright 2011 Google Inc. All Rights Reserved."
FONT_VERSION "2.137; 2017"
FONT_ASCENT 10
FONT_DESCENT 4
UNDERLINE_POSITION -1
UNDERLINE_THICKNESS 1
X_HEIGHT 7
CAP_HEIGHT 9
DEFAULT_CHAR 1
RAW_ASCENT 750
RAW_DESCENT 250
NORM_SPACE 3
RELATIVE_WEIGHT 50
RELATIVE_SETWIDTH 50
SUPERSCRIPT_X 0
SUPERSCRIPT_Y 6
SUPERSCRIPT_SIZE 9
SUBSCRIPT_X 0
SUBSCRIPT_Y 1
SUBSCRIPT_SIZE 9
FIGURE_WIDTH 8
AVG_LOWERCASE_WIDTH 78
AVG_UPPERCASE_WIDTH 93
ENDPROPERTIES
CHARS 1296
STARTCHAR glyph1.dup1
ENCODING 0
SWIDTH 0 0
DWIDTH 0 0
BBX 1 1 0 0
BITMAP
00
ENDCHAR
STARTCHAR uni0002
ENCODING 2
SWIDTH 0 0
DWIDTH 0 0
BBX 1 1 0 0
BITMAP
00
ENDCHAR
STARTCHAR uni000D
ENCODING 13
SWIDTH 249 0
DWIDTH 3 0
BBX 1 1 0 0
BITMAP
00
ENDCHAR
STARTCHAR space
ENCODING 32
SWIDTH 249 0
DWIDTH 3 0
BBX 1 1 0 0
BITMAP
00
ENDCHAR
STARTCHAR exclam
ENCODING 33
SWIDTH 268 0
DWIDTH 4 0
BBX 2 10 1 0
BITMAP
E0
E0
E0
E0
E0
E0
A0
00
90
A0
ENDCHAR
STARTCHAR quotedbl
ENCODING 34
SWIDTH 324 0
DWIDTH 5 0
BBX 4 4 0 7
BITMAP
77
77
66
66
ENDCHAR
STARTCHAR numbersign
ENCODING 35
SWIDTH 610 0
DWIDTH 9 0
BBX 9 10 0 0
BITMAP
028D00
024C00
035C00
2FFF40
072800
062400
7FFE00
0D7000
0C6000
1CA000
ENDCHAR
STARTCHAR dollar
ENCODING 36
SWIDTH 568 0
DWIDTH 8 0
BBX 8 14 0 -2
BITMAP
0140
0180
0BE0
2D78
382C
2C00
1F90
02F4
002C
741D
3D7C
0BE4
0280
0040
ENDCHAR
STARTCHAR percent
ENCODING 37
SWIDTH 734 0
DWIDTH 10 0
BBX 10 10 0 0
BITMAP
2F4000
728600
71C900
729800
2F7000
009B80
0198A0
032860
0518A0
000B80
ENDCHAR
STARTCHAR ampersand
ENCODING 38
SWIDTH 639 0
DWIDTH 9 0
BBX 9 10 0 0
BITMAP
0BE000
1E7400
2C3400
1EB000
0B8000
2FC200
74F700
747E00
3D7E00
1BEB40
ENDCHAR
STARTCHAR quotesingle
ENCODING 39
SWIDTH 168 0
DWIDTH 2 0
BBX 2 4 0 7
BITMAP
60
60
60
60
ENDCHAR
STARTCHAR parenleft
ENCODING 40
SWIDTH 348 0
DWIDTH 5 0
BBX 4 14 1 -3
BITMAP
05
1C
34
B0
A0
D0
D0
D0
D0
A0
B0
34
1C
05
ENDCHAR
STARTCHAR parenright
ENCODING 41
SWIDTH 352 0
DWIDTH 5 0
BBX 4 14 0 -3
BITMAP
90
74
2C
0D
0A
0B
0B
0B
0B
0A
0D
1C
74
90
ENDCHAR
STARTCHAR asterisk
ENCODING 42
SWIDTH 441 0
DWIDTH 6 0
BBX 6 6 0 4
BITMAP
0600
0600
BBF0
1F40
2A80
2480
ENDCHAR
STARTCHAR plus
ENCODING 43
SWIDTH 557 0
DWIDTH 8 0
BBX 8 8 0 0
BITMAP
0280
0380
0380
BFFD
6BE8
0380
0380
0140
ENDCHAR
STARTCHAR comma
ENCODING 44
SWIDTH 219 0
DWIDTH 3 0
BBX 3 4 0 -2
BITMAP
24
34
74
A0
ENDCHAR
STARTCHAR hyphen
ENCODING 45
SWIDTH 328 0
DWIDTH 5 0
BBX 4 2 0 3
BITMAP
BF
55
ENDCHAR
STARTCHAR period
ENCODING 46
SWIDTH 279 0
DWIDTH 4 0
BBX 2 2 1 0
BITMAP
A0
A0
ENDCHAR
STARTCHAR slash
ENCODING 47
SWIDTH 395 0
DWIDTH 6 0
BBX 5 11 0 -1
BITMAP
01C0
0280
0340
0700
0A00
0D00
1C00
2800
3400
7000
9000
ENDCHAR
STARTCHAR zero
ENCODING 48
SWIDTH 568 0
DWIDTH 8 0
BBX 8 10 0 0
BITMAP
0BE0
2D78
382C
741D
741D
741D
741D
382C
2D78
0BE0
ENDCHAR
STARTCHAR one
ENCODING 49
SWIDTH 568 0
DWIDTH 8 0
BBX 5 10 1 0
BITMAP
1B40
FF40
4740
0740
0740
0740
0740
0740
0740
0740
ENDCHAR
STARTCHAR two
ENCODING 50
SWIDTH 568 0
DWIDTH 8 0
BBX 8 10 0 0
BITMAP
1BE0
3D78
742C
002C
0074
01E0
0380
0F00
3D54
7FFD
ENDCHAR
STARTCHAR three
ENCODING 51
SWIDTH 568 0
DWIDTH 8 0
BBX 7 10 0 0
BITMAP
1BE0
3D78
642C
0078
07F0
0178
002C
642C
3D78
1BE0
ENDCHAR
STARTCHAR four
ENCODING 52
SWIDTH 568 0
DWIDTH 8 0
BBX 8 10 0 0
BITMAP
00B4
01F4
03B4
0A74
1D74
3474
BFFE
55B9
0074
0074
ENDCHAR
STARTCHAR five
ENCODING 53
SWIDTH 568 0
DWIDTH 8 0
BBX 7 10 1 0
BITMAP
7FF0
7550
B000
BF80
B5F0
0074
0074
E074
B5E0
2F80
ENDCHAR
STARTCHAR six
ENCODING 54
SWIDTH 568 0
DWIDTH 8 0
BBX 8 10 0 0
BITMAP
02F0
0F90
2C00
3AE4
3E7C
781D
381D
381D
2E78
0BE0
ENDCHAR
STARTCHAR seven
ENCODING 55
SWIDTH 568 0
DWIDTH 8 0
BBX 8 10 0 0
BITMAP
BFFD
556C
0038
0074
00A0
01D0
02C0
0740
0B00
0E00
ENDCHAR
STARTCHAR eight
ENCODING 56
SWIDTH 568 0
DWIDTH 8 0
BBX 7 10 0 0
BITMAP
0BE0
2D78
382C
2C38
0FF0
2D78
742C
742C
3D78
0BE0
ENDCHAR
STARTCHAR nine
ENCODING 57
SWIDTH 568 0
DWIDTH 8 0
BBX 7 10 0 0
BITMAP
0BE0
3DB4
742C
742C
387C
1FFC
012C
0078
06F0
0F80
ENDCHAR
STARTCHAR colon
ENCODING 58
SWIDTH 265 0
DWIDTH 4 0
BBX 2 8 1 0
BITMAP
90
E0
00
00
00
00
90
E0
ENDCHAR
STARTCHAR semicolon
ENCODING 59
SWIDTH 237 0
DWIDTH 3 0
BBX 3 10 0 -2
BITMAP
24
34
00
00
00
00
24
34
34
60
ENDCHAR
STARTCHAR less
ENCODING 60
SWIDTH 508 0
DWIDTH 7 0
BBX 6 6 0 2
BITMAP
0060
06F0
7E40
B900
1BD0
01B0
ENDCHAR
STARTCHAR equal
ENCODING 61
SWIDTH 559 0
DWIDTH 8 0
BBX 6 5 1 2
BITMAP
FFF0
5550
0000
FFF0
5550
ENDCHAR
STARTCHAR greater
ENCODING 62
SWIDTH 520 0
DWIDTH 7 0
BBX 6 6 1 2
BITMAP
9000
FD00
1BD0
06E0
7F40
E400
ENDCHAR
STARTCHAR question
ENCODING 63
SWIDTH 486 0
DWIDTH 7 0
BBX 7 10 0 0
BITMAP
1F90
79F0
6074
00B0
02D0
0780
0B00
0000
0600
0B00
ENDCHAR
STARTCHAR at
ENCODING 64
SWIDTH 894 0
DWIDTH 13 0
BBX 12 13 0 -3
BITMAP
00BF90
079074
0D000C
282F4A
34B686
30D287
71C287
71C246
31D789
34B9F4
1C0000
0B4140
01BE40
ENDCHAR
STARTCHAR A
ENCODING 65
SWIDTH 665 0
DWIDTH 9 0
BBX 9 10 0 0
BITMAP
01E000
02F000
03B400
073800
0A1C00
1D0E00
2FFF00
395B40
740380
B002C0
ENDCHAR
STARTCHAR B
ENCODING 66
SWIDTH 630 0
DWIDTH 9 0
BBX 7 10 1 0
BITMAP
FFE0
F5B8
E038
E078
FFE0
E578
E02C
E02C
F5B8
FFE0
ENDCHAR
STARTCHAR C
ENCODING 67
SWIDTH 652 0
DWIDTH 9 0
BBX 9 10 0 0
BITMAP
06F800
1E6F00
3C0740
780140
740000
740000
780140
3C0740
1E6F00
06F800
ENDCHAR
STARTCHAR D
ENCODING 68
SWIDTH 653 0
DWIDTH 9 0
BBX 8 10 1 0
BITMAP
FF90
F5F4
E03C
E01D
E01D
E01D
E01D
E03C
F5F4
FF90
ENDCHAR
STARTCHAR E
ENCODING 69
SWIDTH 565 0
DWIDTH 8 0
BBX 7 10 1 0
BITMAP
FFF4
F554
E000
E000
FFE0
F550
E000
E000
F554
FFF8
ENDCHAR
STARTCHAR F
ENCODING 70
SWIDTH 549 0
DWIDTH 8 0
BBX 7 10 1 0
BITMAP
FFF4
F550
E000
E000
FFE0
F550
E000
E000
E000
E000
ENDCHAR
STARTCHAR G
ENCODING 71
SWIDTH 680 0
DWIDTH 10 0
BBX 9 10 0 0
BITMAP
06F800
1E6F00
3C0740
780100
740000
743F80
381780
3C0380
1F5B80
06F900
ENDCHAR
STARTCHAR H
ENCODING 72
SWIDTH 710 0
DWIDTH 10 0
BBX 8 10 1 0
BITMAP
E00B
E00B
E00B
E00B
FFFF
F55F
E00B
E00B
E00B
E00B
ENDCHAR
STARTCHAR I
ENCODING 73
SWIDTH 282 0
DWIDTH 4 0
BBX 2 10 1 0
BITMAP
F0
F0
F0
F0
F0
F0
F0
F0
F0
F0
ENDCHAR
STARTCHAR J
ENCODING 74
SWIDTH 555 0
DWIDTH 8 0
BBX 7 10 0 0
BITMAP
0038
0038
0038
0038
0038
0038
0038
B038
79B4
1FD0
ENDCHAR
STARTCHAR K
ENCODING 75
SWIDTH 630 0
DWIDTH 9 0
BBX 8 10 1 0
BITMAP
E02D
E0B4
E1E0
E780
FF40
FF80
F6D0
E0F4
E078
E01E
ENDCHAR
STARTCHAR L
ENCODING 76
SWIDTH 541 0
DWIDTH 8 0
BBX 7 10 1 0
BITMAP
E000
E000
E000
E000
E000
E000
E000
E000
F550
FFF4
ENDCHAR
STARTCHAR M
ENCODING 77
SWIDTH 875 0
DWIDTH 12 0
BBX 11 10 1 0
BITMAP
F401F4
F802F4
FD03F4
EE07B4
EB0A74
E74D74
E39C74
E1F8B4
E0F4B4
E0B0B4
ENDCHAR
STARTCHAR N
ENCODING 78
SWIDTH 709 0
DWIDTH 10 0
BBX 8 10 1 0
BITMAP
F00B
F80B
FD0B
EF0B
E78B
E2DB
E0EB
E07F
E02F
E00F
ENDCHAR
STARTCHAR O
ENCODING 79
SWIDTH 690 0
DWIDTH 10 0
BBX 9 10 0 0
BITMAP
06F800
1FAF00
3C0780
380380
7402C0
7402C0
380380
3C0780
1F6F00
06F800
ENDCHAR
STARTCHAR P
ENCODING 80
SWIDTH 639 0
DWIDTH 9 0
BBX 8 10 1 0
BITMAP
FFE0
F5BC
E01D
E01D
E02D
FFF4
F540
E000
E000
E000
ENDCHAR
STARTCHAR Q
ENCODING 81
SWIDTH 690 0
DWIDTH 10 0
BBX 9 12 0 -2
BITMAP
06F800
1FAF00
3C0740
780380
7403C0
7403C0
780380
3C0740
1F6F00
06FE00
000B80
000100
ENDCHAR
STARTCHAR R
ENCODING 82
SWIDTH 624 0
DWIDTH 9 0
BBX 8 10 1 0
BITMAP
FFE0
F5B8
E02C
E02C
E078
FFF0
F5E0
E0B0
E078
E02D
ENDCHAR
STARTCHAR S
ENCODING 83
SWIDTH 603 0
DWIDTH 8 0
BBX 8 10 0 0
BITMAP
0BF4
2E6D
380F
3D00
1F90
01BD
001E
740F
3E6E
0BF8
ENDCHAR
STARTCHAR T
ENCODING 84
SWIDTH 606 0
DWIDTH 9 0
BBX 9 10 0 0
BITMAP
BFFF40
56D500
02C000
02C000
02C000
02C000
02C000
02C000
02C000
02C000
ENDCHAR
STARTCHAR U
ENCODING 85
SWIDTH 651 0
DWIDTH 9 0
BBX 8 10 1 0
BITMAP
E01D
E01D
E01D
E01D
E01D
E01D
E01D
E02D
B9B8
1FE0
ENDCHAR
STARTCHAR V
ENCODING 86
SWIDTH 646 0
DWIDTH 9 0
BBX 9 10 0 0
BITMAP
B40380
740740
380B00
2C0E00
1D1D00
0E2C00
0B7800
07B400
03F000
01E000
ENDCHAR
STARTCHAR W
ENCODING 87
SWIDTH 879 0
DWIDTH 12 0
BBX 12 10 0 0
BITMAP
B02C0B
743D0E
383E1D
387A1D
2CA72C
1DD368
1ED2B8
0FC2F4
0B81F0
0740F0
ENDCHAR
STARTCHAR X
ENCODING 88
SWIDTH 632 0
DWIDTH 9 0
BBX 9 10 0 0
BITMAP
780B40
2D1E00
0E3C00
0BB400
03E000
03E000
0BB400
1E3C00
2D1E00
780B40
ENDCHAR
STARTCHAR Y
ENCODING 89
SWIDTH 609 0
DWIDTH 9 0
BBX 9 10 0 0
BITMAP
B40B40
781E00
2D2C00
0E3800
0BB000
03E000
02C000
02C000
02C000
02C000
ENDCHAR
STARTCHAR Z
ENCODING 90
SWIDTH 602 0
DWIDTH 8 0
BBX 8 10 0 0
BITMAP
7FFE
156E
0038
00B4
01D0
0380
0B00
2D00
7D55
7FFF
ENDCHAR
STARTCHAR bracketleft
ENCODING 91
SWIDTH 273 0
DWIDTH 4 0
BBX 3 13 1 -2
BITMAP
F8
E4
E0
E0
E0
E0
E0
E0
E0
E0
E0
E4
F8
ENDCHAR
STARTCHAR backslash
ENCODING 92
SWIDTH 417 0
DWIDTH 6 0
BBX 6 11 0 -1
BITMAP
B000
7400
3800
2C00
0D00
0B00
0740
0380
02C0
01D0
00E0
ENDCHAR
STARTCHAR bracketright
ENCODING 93
SWIDTH 273 0
DWIDTH 4 0
BBX 3 13 0 -2
BITMAP
FC
7C
2C
2C
2C
2C
2C
2C
2C
2C
2C
7C
FC
ENDCHAR
STARTCHAR asciicircum
ENCODING 94
SWIDTH 427 0
DWIDTH 6 0
BBX 6 5 0 5
BITMAP
0A00
1F40
2A80
35C0
70D0
ENDCHAR
STARTCHAR underscore
ENCODING 95
SWIDTH 451 0
DWIDTH 6 0
BBX 7 2 0 -2
BITMAP
FFF4
5550
ENDCHAR
STARTCHAR grave
ENCODING 96
SWIDTH 322 0
DWIDTH 5 0
BBX 4 2 0 8
BITMAP
78
1D
ENDCHAR
STARTCHAR a
ENCODING 97
SWIDTH 541 0
DWIDTH 8 0
BBX 7 8 0 0
BITMAP
1BE0
39B4
1038
1BF8
3838
7438
79B8
1FBC
ENDCHAR
STARTCHAR b
ENCODING 98
SWIDTH 562 0
DWIDTH 8 0
BBX 7 11 1 0
BITMAP
E000
E000
E000
EB80
F9E0
E0B0
E074
E074
E0B0
F5E0
EB80
ENDCHAR
STARTCHAR c
ENCODING 99
SWIDTH 523 0
DWIDTH 7 0
BBX 7 8 0 0
BITMAP
0BE0
2DB8
7428
7400
7400
7428
2DB8
0BE0
ENDCHAR
STARTCHAR d
ENCODING 100
SWIDTH 564 0
DWIDTH 8 0
BBX 7 11 0 0
BITMAP
002C
002C
002C
1BAC
3DBC
742C
742C
742C
742C
3DBC
1BAC
ENDCHAR
STARTCHAR e
ENCODING 101
SWIDTH 536 0
DWIDTH 8 0
BBX 7 8 0 0
BITMAP
0BE0
2D78
742C
7FFC
7554
7800
2E68
0BE0
ENDCHAR
STARTCHAR f
ENCODING 102
SWIDTH 354 0
DWIDTH 5 0
BBX 5 11 0 0
BITMAP
0BC0
1E40
2C00
BF80
2D00
2C00
2C00
2C00
2C00
2C00
2C00
ENDCHAR
STARTCHAR g
ENCODING 103
SWIDTH 566 0
DWIDTH 8 0
BBX 7 11 0 -3
BITMAP
0BAC
2DBC
742C
742C
742C
742C
2DBC
0BAC
002C
29B8
1BE0
ENDCHAR
STARTCHAR h
ENCODING 104
SWIDTH 555 0
DWIDTH 8 0
BBX 7 11 0 0
BITMAP
7400
7400
7400
7AE0
7D78
782C
742C
742C
742C
742C
742C
ENDCHAR
STARTCHAR i
ENCODING 105
SWIDTH 255 0
DWIDTH 4 0
BBX 2 11 1 0
BITMAP
90
E0
00
E0
E0
E0
E0
E0
E0
E0
E0
ENDCHAR
STARTCHAR j
ENCODING 106
SWIDTH 250 0
DWIDTH 4 0
BBX 4 14 -1 -3
BITMAP
09
0D
00
0E
0E
0E
0E
0E
0E
0E
0E
0E
6D
78
ENDCHAR
STARTCHAR k
ENCODING 107
SWIDTH 521 0
DWIDTH 7 0
BBX 6 11 1 0
BITMAP
E000
E000
E000
E1E0
E780
EF00
FE00
FF00
E780
E2D0
E0F0
ENDCHAR
STARTCHAR l
ENCODING 108
SWIDTH 255 0
DWIDTH 4 0
BBX 2 11 1 0
BITMAP
E0
E0
E0
E0
E0
E0
E0
E0
E0
E0
E0
ENDCHAR
STARTCHAR m
ENCODING 109
SWIDTH 870 0
DWIDTH 12 0
BBX 11 8 1 0
BITMAP
EB9BD0
F6F9F0
E0B074
E0B074
E0B074
E0B074
E0B074
E0B074
ENDCHAR
STARTCHAR n
ENCODING 110
SWIDTH 556 0
DWIDTH 8 0
BBX 7 8 0 0
BITMAP
7AE0
7E78
782C
742C
742C
742C
742C
742C
ENDCHAR
STARTCHAR o
ENCODING 111
SWIDTH 569 0
DWIDTH 8 0
BBX 8 8 0 0
BITMAP
0BE0
2D78
742D
741D
741D
742D
2D78
0BE0
ENDCHAR
STARTCHAR p
ENCODING 112
SWIDTH 562 0
DWIDTH 8 0
BBX 7 11 1 -3
BITMAP
EB80
F6E0
E0B0
E074
E074
E0B0
F5E0
EB80
E000
E000
E000
ENDCHAR
STARTCHAR q
ENCODING 113
SWIDTH 567 0
DWIDTH 8 0
BBX 7 11 0 -3
BITMAP
1BAC
3DBC
742C
742C
742C
742C
3DBC
1BAC
002C
002C
002C
ENDCHAR
STARTCHAR r
ENCODING 114
SWIDTH 351 0
DWIDTH 5 0
BBX 4 8 1 0
BITMAP
EE
F9
E0
E0
E0
E0
E0
E0
ENDCHAR
STARTCHAR s
ENCODING 115
SWIDTH 516 0
DWIDTH 7 0
BBX 7 8 0 0
BITMAP
1BD0
39B4
7414
2E40
06F4
6038
79B4
1BD0
ENDCHAR
STARTCHAR t
ENCODING 116
SWIDTH 332 0
DWIDTH 5 0
BBX 5 10 0 0
BITMAP
2C00
2C00
FF40
6D00
2C00
2C00
2C00
2C00
2D00
1F40
ENDCHAR
STARTCHAR u
ENCODING 117
SWIDTH 555 0
DWIDTH 8 0
BBX 7 8 0 0
BITMAP
742C
742C
742C
742C
742C
382C
3DBC
1FAC
ENDCHAR
STARTCHAR v
ENCODING 118
SWIDTH 494 0
DWIDTH 7 0
BBX 7 8 0 0
BITMAP
B038
7474
38B0
2CE0
1DD0
0FC0
0B80
0740
ENDCHAR
STARTCHAR w
ENCODING 119
SWIDTH 743 0
DWIDTH 10 0
BBX 10 8 0 0
BITMAP
B0B0B0
74F4A0
34F8E0
39E9D0
2E9EC0
1F4F80
0F0B80
0E0740
ENDCHAR
STARTCHAR x
ENCODING 120
SWIDTH 502 0
DWIDTH 7 0
BBX 7 8 0 0
BITMAP
7474
3CF0
1ED0
0B80
0B80
1ED0
3CB0
7478
ENDCHAR
STARTCHAR y
ENCODING 121
SWIDTH 486 0
DWIDTH 7 0
BBX 7 11 0 -3
BITMAP
B078
7474
38B0
2CE0
1ED0
0FC0
0B80
0740
0B00
1E00
7800
ENDCHAR
STARTCHAR z
ENCODING 122
SWIDTH 502 0
DWIDTH 7 0
BBX 7 8 0 0
BITMAP
7FF4
15F0
01D0
0780
0B00
1D00
7D54
7FF8
ENDCHAR
STARTCHAR braceleft
ENCODING 123
SWIDTH 335 0
DWIDTH 5 0
BBX 5 13 0 -2
BITMAP
0240
0E00
1D00
1D00
1D00
2C00
B400
2C00
1D00
1D00
1D00
0E00
0240
ENDCHAR
STARTCHAR bar
ENCODING 124
SWIDTH 250 0
DWIDTH 4 0
BBX 2 12 1 -2
BITMAP
90
90
90
90
90
90
90
90
90
90
90
90
ENDCHAR
STARTCHAR braceright
ENCODING 125
SWIDTH 335 0
DWIDTH 5 0
BBX 5 13 0 -2
BITMAP
A000
3800
2C00
2C00
2C00
1D00
0B40
1E00
2C00
2C00
2C00
3800
A000
ENDCHAR
STARTCHAR asciitilde
ENCODING 126
SWIDTH 664 0
DWIDTH 9 0
BBX 8 3 1 3
BITMAP
7D09
EBAD
81B4
ENDCHAR
STARTCHAR uni00A0
ENCODING 160
SWIDTH 249 0
DWIDTH 3 0
BBX 1 1 0 0
BITMAP
00
ENDCHAR
STARTCHAR exclamdown
ENCODING 161
SWIDTH 264 0
DWIDTH 4 0
BBX 2 10 1 -2
BITMAP
E0
90
00
E0
E0
E0
E0
E0
E0
E0
ENDCHAR
STARTCHAR cent
ENCODING 162
SWIDTH 561 0
DWIDTH 8 0
BBX 7 12 0 -2
BITMAP
0140
0280
0BE0
2D78
382C
7400
7400
3818
2D78
0BE0
0280
0140
ENDCHAR
STARTCHAR sterling
ENCODING 163
SWIDTH 588 0
DWIDTH 8 0
BBX 8 10 0 0
BITMAP
02F8
0F6D
1D09
1D00
1D00
7FE0
2E50
1D00
2E55
7FFF
ENDCHAR
STARTCHAR currency
ENCODING 164
SWIDTH 701 0
DWIDTH 10 0
BBX 8 9 1 0
BITMAP
DBE7
B96E
A00E
D007
C007
D007
A00E
B96E
9BE6
ENDCHAR
STARTCHAR yen
ENCODING 165
SWIDTH 531 0
DWIDTH 7 0
BBX 7 10 0 0
BITMAP
B02C
7838
2CB4
1DE0
0BD0
7FF8
0780
7FF8
0780
0780
ENDCHAR
STARTCHAR brokenbar
ENCODING 166
SWIDTH 248 0
DWIDTH 3 0
BBX 2 12 1 -2
BITMAP
E0
E0
E0
E0
E0
00
E0
E0
E0
E0
E0
E0
ENDCHAR
STARTCHAR section
ENCODING 167
SWIDTH 621 0
DWIDTH 9 0
BBX 8 13 0 -3
BITMAP
0BF4
2D6D
380A
3D00
2FE4
797E
740B
3E4E
0BFC
006D
640E
3D6D
1BF4
ENDCHAR
STARTCHAR dieresis
ENCODING 168
SWIDTH 439 0
DWIDTH 6 0
BBX 6 2 0 9
BITMAP
2080
74D0
ENDCHAR
STARTCHAR copyright
ENCODING 169
SWIDTH 783 0
DWIDTH 11 0
BBX 11 10 0 0
BITMAP
02FD00
0E0680
25B860
224A20
530024
530024
224A20
25B860
0E0680
02FD00
ENDCHAR
STARTCHAR ordfeminine
ENCODING 170
SWIDTH 445 0
DWIDTH 6 0
BBX 5 5 1 5
BITMAP
7E00
0300
7F40
D340
BB40
ENDCHAR
STARTCHAR guillemotleft
ENCODING 171
SWIDTH 485 0
DWIDTH 7 0
BBX 6 5 0 1
BITMAP
0960
29D0
7680
29D0
0960
ENDCHAR
STARTCHAR logicalnot
ENCODING 172
SWIDTH 553 0
DWIDTH 8 0
BBX 6 3 1 3
BITMAP
FFE0
55A0
00A0
ENDCHAR
STARTCHAR uni00AD
ENCODING 173
SWIDTH 328 0
DWIDTH 5 0
BBX 4 2 0 3
BITMAP
BF
55
ENDCHAR
STARTCHAR registered
ENCODING 174
SWIDTH 783 0
DWIDTH 11 0
BBX 11 10 0 0
BITMAP
02FD00
0E0680
26F860
224920
524924
52FC24
224920
264660
0E0680
02FD00
ENDCHAR
STARTCHAR macron
ENCODING 175
SWIDTH 481 0
DWIDTH 7 0
BBX 5 1 1 9
BITMAP
FF80
ENDCHAR
STARTCHAR degree
ENCODING 176
SWIDTH 379 0
DWIDTH 5 0
BBX 4 4 1 6
BITMAP
78
C9
C9
78
ENDCHAR
STARTCHAR plusminus
ENCODING 177
SWIDTH 536 0
DWIDTH 8 0
BBX 7 9 0 0
BITMAP
0240
0380
0380
7FFC
1794
0380
0280
1554
3FF8
ENDCHAR
STARTCHAR uni00B2
ENCODING 178
SWIDTH 370 0
DWIDTH 5 0
BBX 5 5 0 5
BITMAP
2E00
6340
0700
2800
7F80
ENDCHAR
STARTCHAR uni00B3
ENCODING 179
SWIDTH 370 0
DWIDTH 5 0
BBX 5 5 0 5
BITMAP
6E00
1340
1F00
5280
6E40
ENDCHAR
STARTCHAR acute
ENCODING 180
SWIDTH 325 0
DWIDTH 5 0
BBX 3 2 1 8
BITMAP
78
A0
ENDCHAR
STARTCHAR mu
ENCODING 181
SWIDTH 591 0
DWIDTH 8 0
BBX 7 11 1 -3
BITMAP
E074
E074
E074
E074
E074
E074
F5F4
FFB4
E000
E000
E000
ENDCHAR
STARTCHAR paragraph
ENCODING 182
SWIDTH 490 0
DWIDTH 7 0
BBX 6 10 0 0
BITMAP
1BF0
3FF0
7FF0
7FF0
7FF0
2FF0
05B0
00B0
00B0
00B0
ENDCHAR
STARTCHAR periodcentered
ENCODING 183
SWIDTH 282 0
DWIDTH 4 0
BBX 2 2 1 4
BITMAP
A0
A0
ENDCHAR
STARTCHAR cedilla
ENCODING 184
SWIDTH 257 0
DWIDTH 4 0
BBX 2 3 1 -3
BITMAP
E0
70
E0
ENDCHAR
STARTCHAR uni00B9
ENCODING 185
SWIDTH 370 0
DWIDTH 5 0
BBX 3 5 1 5
BITMAP
64
B8
28
28
28
ENDCHAR
STARTCHAR ordmasculine
ENCODING 186
SWIDTH 456 0
DWIDTH 6 0
BBX 6 5 0 5
BITMAP
1F80
34D0
70A0
34D0
1F80
ENDCHAR
STARTCHAR guillemotright
ENCODING 187
SWIDTH 485 0
DWIDTH 7 0
BBX 5 5 1 1
BITMAP
D600
7280
39C0
7280
D600
ENDCHAR
STARTCHAR onequarter
ENCODING 188
SWIDTH 726 0
DWIDTH 10 0
BBX 10 10 0 0
BITMAP
190000
6D0600
0D0D00
0D2800
0D7000
0092C0
0187C0
0319C0
052FE0
0001C0
ENDCHAR
STARTCHAR onehalf
ENCODING 189
SWIDTH 770 0
DWIDTH 11 0
BBX 10 10 0 0
BITMAP
190000
6D0900
0D1C00
0D2400
0D6000
00CBD0
024970
0600D0
080740
000FF0
ENDCHAR
STARTCHAR threequarters
ENCODING 190
SWIDTH 792 0
DWIDTH 11 0
BBX 10 10 1 0
BITMAP
BD0000
4A0600
3D0D00
4B2800
BD7000
009280
018B80
031980
053FD0
0001C0
ENDCHAR
STARTCHAR questiondown
ENCODING 191
SWIDTH 486 0
DWIDTH 7 0
BBX 7 10 0 -2
BITMAP
0740
0200
0000
0740
0B00
2D00
7400
B064
79B0
1F90
ENDCHAR
STARTCHAR Agrave
ENCODING 192
SWIDTH 665 0
DWIDTH 9 0
BBX 9 13 0 0
BITMAP
078000
01D000
000000
01E000
02F000
03B400
073800
0A1C00
1D0E00
2FFF00
395B40
740380
B002C0
ENDCHAR
STARTCHAR Aacute
ENCODING 193
SWIDTH 665 0
DWIDTH 9 0
BBX 9 13 0 0
BITMAP
007800
00A000
000000
01E000
02F000
03B400
073800
0A1C00
1D0E00
2FFF00
395B40
740380
B002C0
ENDCHAR
STARTCHAR Acircumflex
ENCODING 194
SWIDTH 665 0
DWIDTH 9 0
BBX 9 13 0 0
BITMAP
01E000
076800
000000
01E000
02F000
03B400
073800
0A1C00
1D0E00
2FFF00
395B40
740380
B002C0
ENDCHAR
STARTCHAR Atilde
ENCODING 195
SWIDTH 665 0
DWIDTH 9 0
BBX 9 13 0 0
BITMAP
079C00
097800
000000
01E000
02F000
03B400
073800
0A1C00
1D0E00
2FFF00
395B40
740380
B002C0
ENDCHAR
STARTCHAR Adieresis
ENCODING 196
SWIDTH 665 0
DWIDTH 9 0
BBX 9 13 0 0
BITMAP
051400
0A1C00
000000
01E000
02F000
03B400
073800
0A1C00
1D0E00
2FFF00
395B40
740380
B002C0
ENDCHAR
STARTCHAR Aring
ENCODING 197
SWIDTH 665 0
DWIDTH 9 0
BBX 9 14 0 0
BITMAP
01E000
026000
01E000
000000
01E000
02F000
03B400
073800
0A1C00
1D0E00
2FFF00
395B40
740380
B002C0
ENDCHAR
STARTCHAR AE
ENCODING 198
SWIDTH 939 0
DWIDTH 13 0
BBX 13 10 0 0
BITMAP
002FFF40
007F5500
00BB0000
01DB0000
038BFF00
07475500
0FFF4000
2D5B4000
78079540
B407FFC0
ENDCHAR
STARTCHAR Ccedilla
ENCODING 199
SWIDTH 652 0
DWIDTH 9 0
BBX 9 13 0 -3
BITMAP
06F800
1E6F00
3C0740
780140
740000
740000
780140
3C0740
1E6F00
06F800
00E000
007400
00E000
ENDCHAR
STARTCHAR Egrave
ENCODING 200
SWIDTH 565 0
DWIDTH 8 0
BBX 7 13 1 0
BITMAP
2D00
0A00
0000
FFF4
F554
E000
E000
FFE0
F550
E000
E000
F554
FFF8
ENDCHAR
STARTCHAR Eacute
ENCODING 201
SWIDTH 565 0
DWIDTH 8 0
BBX 7 13 1 0
BITMAP
02D0
0740
0000
FFF4
F554
E000
E000
FFE0
F550
E000
E000
F554
FFF8
ENDCHAR
STARTCHAR Ecircumflex
ENCODING 202
SWIDTH 565 0
DWIDTH 8 0
BBX 7 13 1 0
BITMAP
0B40
29D0
0000
FFF4
F554
E000
E000
FFE0
F550
E000
E000
F554
FFF8
ENDCHAR
STARTCHAR Edieresis
ENCODING 203
SWIDTH 565 0
DWIDTH 8 0
BBX 7 13 1 0
BITMAP
1450
34A0
0000
FFF4
F554
E000
E000
FFE0
F550
E000
E000
F554
FFF8
ENDCHAR
STARTCHAR Igrave
ENCODING 204
SWIDTH 282 0
DWIDTH 4 0
BBX 3 13 0 0
BITMAP
F0
24
00
3C
3C
3C
3C
3C
3C
3C
3C
3C
3C
ENDCHAR
STARTCHAR Iacute
ENCODING 205
SWIDTH 282 0
DWIDTH 4 0
BBX 3 13 1 0
BITMAP
38
60
00
F0
F0
F0
F0
F0
F0
F0
F0
F0
F0
ENDCHAR
STARTCHAR Icircumflex
ENCODING 206
SWIDTH 282 0
DWIDTH 4 0
BBX 4 13 0 0
BITMAP
7D
96
00
3C
3C
3C
3C
3C
3C
3C
3C
3C
3C
ENDCHAR
STARTCHAR Idieresis
ENCODING 207
SWIDTH 282 0
DWIDTH 4 0
BBX 6 13 -1 0
BITMAP
2080
71D0
0000
0F00
0F00
0F00
0F00
0F00
0F00
0F00
0F00
0F00
0F00
ENDCHAR
STARTCHAR Eth
ENCODING 208
SWIDTH 667 0
DWIDTH 9 0
BBX 9 10 0 0
BITMAP
2FE400
2D6E00
2C0B00
2C0740
FF8380
2C0380
2C0740
2C0B00
2D6E00
2FE400
ENDCHAR
STARTCHAR Ntilde
ENCODING 209
SWIDTH 709 0
DWIDTH 10 0
BBX 8 13 1 0
BITMAP
0F64
19E0
0000
F00B
F80B
FD0B
EF0B
E78B
E2DB
E0EB
E07F
E02F
E00F
ENDCHAR
STARTCHAR Ograve
ENCODING 210
SWIDTH 690 0
DWIDTH 10 0
BBX 9 13 0 0
BITMAP
038000
01D000
000000
06F800
1FAF00
3C0780
380380
7402C0
7402C0
380380
3C0780
1F6F00
06F800
ENDCHAR
STARTCHAR Oacute
ENCODING 211
SWIDTH 690 0
DWIDTH 10 0
BBX 9 13 0 0
BITMAP
007800
00A000
000000
06F800
1FAF00
3C0780
380380
7402C0
7402C0
380380
3C0780
1F6F00
06F800
ENDCHAR
STARTCHAR Ocircumflex
ENCODING 212
SWIDTH 690 0
DWIDTH 10 0
BBX 9 13 0 0
BITMAP
01E000
076800
000000
06F800
1FAF00
3C0780
380380
7402C0
7402C0
380380
3C0780
1F6F00
06F800
ENDCHAR
STARTCHAR Otilde
ENCODING 213
SWIDTH 690 0
DWIDTH 10 0
BBX 9 13 0 0
BITMAP
079D00
0A7800
000000
06F800
1FAF00
3C0780
380380
7402C0
7402C0
380380
3C0780
1F6F00
06F800
ENDCHAR
STARTCHAR Odieresis
ENCODING 214
SWIDTH 690 0
DWIDTH 10 0
BBX 9 13 0 0
BITMAP
050800
071C00
000000
06F800
1FAF00
3C0780
380380
7402C0
7402C0
380380
3C0780
1F6F00
06F800
ENDCHAR
STARTCHAR multiply
ENCODING 215
SWIDTH 533 0
DWIDTH 7 0
BBX 7 7 0 1
BITMAP
2024
78B4
1FE0
0BC0
1FE0
38B4
2024
ENDCHAR
STARTCHAR Oslash
ENCODING 216
SWIDTH 689 0
DWIDTH 10 0
BBX 9 12 0 -1
BITMAP
000040
06FA40
1FAF00
3C0F80
382BC0
7472C0
7492C0
3983C0
3F0780
1F6F00
1EF800
140000
ENDCHAR
STARTCHAR Ugrave
ENCODING 217
SWIDTH 651 0
DWIDTH 9 0
BBX 8 13 1 0
BITMAP
1E00
0700
0000
E01D
E01D
E01D
E01D
E01D
E01D
E01D
E02D
B9B8
1FE0
ENDCHAR
STARTCHAR Uacute
ENCODING 218
SWIDTH 651 0
DWIDTH 9 0
BBX 8 13 1 0
BITMAP
01D0
0280
0000
E01D
E01D
E01D
E01D
E01D
E01D
E01D
E02D
B9B8
1FE0
ENDCHAR
STARTCHAR Ucircumflex
ENCODING 219
SWIDTH 651 0
DWIDTH 9 0
BBX 8 13 1 0
BITMAP
0B80
1990
0000
E01D
E01D
E01D
E01D
E01D
E01D
E01D
E02D
B9B8
1FE0
ENDCHAR
STARTCHAR Udieresis
ENCODING 220
SWIDTH 651 0
DWIDTH 9 0
BBX 8 13 1 0
BITMAP
1450
28A0
0000
E01D
E01D
E01D
E01D
E01D
E01D
E01D
E02D
B9B8
1FE0
ENDCHAR
STARTCHAR Yacute
ENCODING 221
SWIDTH 609 0
DWIDTH 9 0
BBX 9 13 0 0
BITMAP
00B400
01D000
000000
B40B40
781E00
2D2C00
0E3800
0BB000
03E000
02C000
02C000
02C000
02C000
ENDCHAR
STARTCHAR Thorn
ENCODING 222
SWIDTH 598 0
DWIDTH 8 0
BBX 7 10 1 0
BITMAP
E000
E000
FF90
E5B4
E038
E038
E078
FFE0
E500
E000
ENDCHAR
STARTCHAR germandbls
ENCODING 223
SWIDTH 612 0
DWIDTH 9 0
BBX 7 11 1 0
BITMAP
2F80
B6D0
E0E0
E1D0
E2C0
E2C0
E1E0
E078
E02C
E57C
EBE4
ENDCHAR
STARTCHAR agrave
ENCODING 224
SWIDTH 541 0
DWIDTH 8 0
BBX 7 11 0 0
BITMAP
0E00
0340
0000
1BE0
39B4
1038
1BF8
3838
7438
79B8
1FBC
ENDCHAR
STARTCHAR aacute
ENCODING 225
SWIDTH 541 0
DWIDTH 8 0
BBX 7 11 0 0
BITMAP
00E0
0280
0000
1BE0
39B4
1038
1BF8
3838
7438
79B8
1FBC
ENDCHAR
STARTCHAR acircumflex
ENCODING 226
SWIDTH 541 0
DWIDTH 8 0
BBX 7 11 0 0
BITMAP
07D0
0DA0
0000
1BE0
39B4
1038
1BF8
3838
7438
79B8
1FBC
ENDCHAR
STARTCHAR atilde
ENCODING 227
SWIDTH 541 0
DWIDTH 8 0
BBX 7 11 0 0
BITMAP
1E74
29E0
0000
1BE0
39B4
1038
1BF8
3838
7438
79B8
1FBC
ENDCHAR
STARTCHAR adieresis
ENCODING 228
SWIDTH 541 0
DWIDTH 8 0
BBX 7 11 0 0
BITMAP
0820
1C70
0000
1BE0
39B4
1038
1BF8
3838
7438
79B8
1FBC
ENDCHAR
STARTCHAR aring
ENCODING 229
SWIDTH 541 0
DWIDTH 8 0
BBX 7 12 0 0
BITMAP
0780
0990
0780
0000
1BE0
39B4
1038
1BF8
3838
7438
79B8
1FBC
ENDCHAR
STARTCHAR ae
ENCODING 230
SWIDTH 844 0
DWIDTH 12 0
BBX 12 8 0 0
BITMAP
1BD7E4
3DBE6C
10381D
1FFFFD
793954
743C00
79BE58
2F97F8
ENDCHAR
STARTCHAR ccedilla
ENCODING 231
SWIDTH 523 0
DWIDTH 7 0
BBX 7 11 0 -3
BITMAP
0BE0
2DB8
7428
7400
7400
7428
2DB8
0BE0
0380
01D0
0380
ENDCHAR
STARTCHAR egrave
ENCODING 232
SWIDTH 536 0
DWIDTH 8 0
BBX 7 11 0 0
BITMAP
1E00
0740
0000
0BE0
2D78
742C
7FFC
7554
7800
2E68
0BE0
ENDCHAR
STARTCHAR eacute
ENCODING 233
SWIDTH 536 0
DWIDTH 8 0
BBX 7 11 0 0
BITMAP
01E0
0280
0000
0BE0
2D78
742C
7FFC
7554
7800
2E68
0BE0
ENDCHAR
STARTCHAR ecircumflex
ENCODING 234
SWIDTH 536 0
DWIDTH 8 0
BBX 7 11 0 0
BITMAP
0780
1DA0
0000
0BE0
2D78
742C
7FFC
7554
7800
2E68
0BE0
ENDCHAR
STARTCHAR edieresis
ENCODING 235
SWIDTH 536 0
DWIDTH 8 0
BBX 7 11 0 0
BITMAP
1420
1C70
0000
0BE0
2D78
742C
7FFC
7554
7800
2E68
0BE0
ENDCHAR
STARTCHAR igrave
ENCODING 236
SWIDTH 262 0
DWIDTH 4 0
BBX 3 11 0 0
BITMAP
E0
74
00
38
38
38
38
38
38
38
38
ENDCHAR
STARTCHAR iacute
ENCODING 237
SWIDTH 262 0
DWIDTH 4 0
BBX 3 11 1 0
BITMAP
78
A0
00
E0
E0
E0
E0
E0
E0
E0
E0
ENDCHAR
STARTCHAR icircumflex
ENCODING 238
SWIDTH 262 0
DWIDTH 4 0
BBX 5 11 -1 0
BITMAP
1E00
7680
0000
0E00
0E00
0E00
0E00
0E00
0E00
0E00
0E00
ENDCHAR
STARTCHAR idieresis
ENCODING 239
SWIDTH 262 0
DWIDTH 4 0
BBX 5 11 -1 0
BITMAP
5080
71C0
0000
0E00
0E00
0E00
0E00
0E00
0E00
0E00
0E00
ENDCHAR
STARTCHAR eth
ENCODING 240
SWIDTH 581 0
DWIDTH 8 0
BBX 8 11 0 0
BITMAP
0E04
0BF4
02F4
0138
0BEC
2D6D
381D
741D
382D
2D78
0BE0
ENDCHAR
STARTCHAR ntilde
ENCODING 241
SWIDTH 556 0
DWIDTH 8 0
BBX 7 11 0 0
BITMAP
0F64
29E0
0000
7AE0
7E78
782C
742C
742C
742C
742C
742C
ENDCHAR
STARTCHAR ograve
ENCODING 242
SWIDTH 569 0
DWIDTH 8 0
BBX 8 11 0 0
BITMAP
0F00
0340
0000
0BE0
2D78
742D
741D
741D
742D
2D78
0BE0
ENDCHAR
STARTCHAR oacute
ENCODING 243
SWIDTH 569 0
DWIDTH 8 0
BBX 8 11 0 0
BITMAP
00E0
0180
0000
0BE0
2D78
742D
741D
741D
742D
2D78
0BE0
ENDCHAR
STARTCHAR ocircumflex
ENCODING 244
SWIDTH 569 0
DWIDTH 8 0
BBX 8 11 0 0
BITMAP
07D0
09A0
0000
0BE0
2D78
742D
741D
741D
742D
2D78
0BE0
ENDCHAR
STARTCHAR otilde
ENCODING 245
SWIDTH 569 0
DWIDTH 8 0
BBX 8 11 0 0
BITMAP
0F64
19E0
0000
0BE0
2D78
742D
741D
741D
742D
2D78
0BE0
ENDCHAR
STARTCHAR odieresis
ENCODING 246
SWIDTH 569 0
DWIDTH 8 0
BBX 8 11 0 0
BITMAP
0820
1C74
0000
0BE0
2D78
742D
741D
741D
742D
2D78
0BE0
ENDCHAR
STARTCHAR divide
ENCODING 247
SWIDTH 570 0
DWIDTH 8 0
BBX 8 8 0 0
BITMAP
0280
0280
0000
BFFD
5555
0140
0380
0140
ENDCHAR
STARTCHAR oslash
ENCODING 248
SWIDTH 566 0
DWIDTH 8 0
BBX 8 10 0 -1
BITMAP
0014
0BF4
2DB8
74AD
759D
765D
7A2D
2E78
1FE0
1400
ENDCHAR
STARTCHAR ugrave
ENCODING 249
SWIDTH 555 0
DWIDTH 8 0
BBX 7 11 0 0
BITMAP
0E00
0340
0000
742C
742C
742C
742C
742C
382C
3DBC
1FAC
ENDCHAR
STARTCHAR uacute
ENCODING 250
SWIDTH 555 0
DWIDTH 8 0
BBX 7 11 0 0
BITMAP
00E0
0280
0000
742C
742C
742C
742C
742C
382C
3DBC
1FAC
ENDCHAR
STARTCHAR ucircumflex
ENCODING 251
SWIDTH 555 0
DWIDTH 8 0
BBX 7 11 0 0
BITMAP
07D0
0DA0
0000
742C
742C
742C
742C
742C
382C
3DBC
1FAC
ENDCHAR
STARTCHAR udieresis
ENCODING 252
SWIDTH 555 0
DWIDTH 8 0
BBX 7 11 0 0
BITMAP
0820
1C70
0000
742C
742C
742C
742C
742C
382C
3DBC
1FAC
ENDCHAR
STARTCHAR yacute
ENCODING 253
SWIDTH 486 0
DWIDTH 7 0
BBX 7 14 0 -3
BITMAP
01D0
0240
0000
B078
7474
38B0
2CE0
1ED0
0FC0
0B80
0740
0B00
1E00
7800
ENDCHAR
STARTCHAR thorn
ENCODING 254
SWIDTH 573 0
DWIDTH 8 0
BBX 7 14 1 -3
BITMAP
E000
E000
E000
EB80
FAE0
E0B4
E074
E074
E0B4
F5E0
EB80
E000
E000
E000
ENDCHAR
STARTCHAR ydieresis
ENCODING 255
SWIDTH 486 0
DWIDTH 7 0
BBX 7 14 0 -3
BITMAP
1450
28A0
0000
B078
7474
38B0
2CE0
1ED0
0FC0
0B80
0740
0B00
1E00
7800
ENDCHAR
STARTCHAR Amacron
ENCODING 256
SWIDTH 665 0
DWIDTH 9 0
BBX 9 12 0 0
BITMAP
0BFC00
000000
01E000
02F000
03B400
073800
0A1C00
1D0E00
2FFF00
395B40
740380
B002C0
ENDCHAR
STARTCHAR amacron
ENCODING 257
SWIDTH 541 0
DWIDTH 8 0
BBX 7 10 0 0
BITMAP
1FF4
0000
1BE0
39B4
1038
1BF8
3838
7438
79B8
1FBC
ENDCHAR
STARTCHAR Abreve
ENCODING 258
SWIDTH 665 0
DWIDTH 9 0
BBX 9 13 0 0
BITMAP
072800
02F400
000000
01E000
02F000
03B400
073800
0A1C00
1D0E00
2FFF00
395B40
740380
B002C0
ENDCHAR
STARTCHAR abreve
ENCODING 259
SWIDTH 541 0
DWIDTH 8 0
BBX 7 11 0 0
BITMAP
1C70
0BD0
0000
1BE0
39B4
1038
1BF8
3838
7438
79B8
1FBC
ENDCHAR
STARTCHAR Aogonek
ENCODING 260
SWIDTH 665 0
DWIDTH 9 0
BBX 9 13 0 -3
BITMAP
01E000
02F000
03B400
073800
0A1C00
1D0E00
2FFF00
395B40
740380
B002C0
000740
000A00
000780
ENDCHAR
STARTCHAR aogonek
ENCODING 261
SWIDTH 541 0
DWIDTH 8 0
BBX 7 11 0 -3
BITMAP
1BE0
39B4
1038
1BF8
3838
7438
79B8
1FBC
0074
00A0
0078
ENDCHAR
STARTCHAR Cacute
ENCODING 262
SWIDTH 652 0
DWIDTH 9 0
BBX 9 13 0 0
BITMAP
007800
00A000
000000
06F800
1E6F00
3C0740
780140
740000
740000
780140
3C0740
1E6F00
06F800
ENDCHAR
STARTCHAR cacute
ENCODING 263
SWIDTH 523 0
DWIDTH 7 0
BBX 7 11 0 0
BITMAP
01E0
0280
0000
0BE0
2DB8
7428
7400
7400
7428
2DB8
0BE0
ENDCHAR
STARTCHAR Ccircumflex
ENCODING 264
SWIDTH 652 0
DWIDTH 9 0
BBX 9 13 0 0
BITMAP
01E000
076800
000000
06F800
1E6F00
3C0740
780140
740000
740000
780140
3C0740
1E6F00
06F800
ENDCHAR
STARTCHAR ccircumflex
ENCODING 265
SWIDTH 523 0
DWIDTH 7 0
BBX 7 11 0 0
BITMAP
0780
1DA0
0000
0BE0
2DB8
7428
7400
7400
7428
2DB8
0BE0
ENDCHAR
STARTCHAR Cdotaccent
ENCODING 266
SWIDTH 652 0
DWIDTH 9 0
BBX 9 13 0 0
BITMAP
009000
00D000
000000
06F800
1E6F00
3C0740
780140
740000
740000
780140
3C0740
1E6F00
06F800
ENDCHAR
STARTCHAR cdotaccent
ENCODING 267
SWIDTH 523 0
DWIDTH 7 0
BBX 7 11 0 0
BITMAP
0240
0340
0000
0BE0
2DB8
7428
7400
7400
7428
2DB8
0BE0
ENDCHAR
STARTCHAR Ccaron
ENCODING 268
SWIDTH 652 0
DWIDTH 9 0
BBX 9 13 0 0
BITMAP
076800
01E000
000000
06F800
1E6F00
3C0740
780140
740000
740000
780140
3C0740
1E6F00
06F800
ENDCHAR
STARTCHAR ccaron
ENCODING 269
SWIDTH 523 0
DWIDTH 7 0
BBX 7 11 0 0
BITMAP
1DA0
0780
0000
0BE0
2DB8
7428
7400
7400
7428
2DB8
0BE0
ENDCHAR
STARTCHAR Dcaron
ENCODING 270
SWIDTH 653 0
DWIDTH 9 0
BBX 8 13 1 0
BITMAP
7680
1E00
0000
FF90
F5F4
E03C
E01D
E01D
E01D
E01D
E03C
F5F4
FF90
ENDCHAR
STARTCHAR dcaron
ENCODING 271
SWIDTH 637 0
DWIDTH 9 0
BBX 10 11 0 0
BITMAP
002CD0
002DD0
002D80
1BAC00
3DBC00
742C00
742C00
742C00
742C00
3DBC00
1BAC00
ENDCHAR
STARTCHAR Dcroat
ENCODING 272
SWIDTH 667 0
DWIDTH 9 0
BBX 9 10 0 0
BITMAP
2FE400
2D6E00
2C0B00
2C0740
FF8380
2C0380
2C0740
2C0B00
2D6E00
2FE400
ENDCHAR
STARTCHAR dcroat
ENCODING 273
SWIDTH 615 0
DWIDTH 9 0
BBX 9 11 0 0
BITMAP
002C00
01FF40
002D00
1BAC00
3DBC00
742C00
742C00
742C00
742C00
3DBC00
1BAC00
ENDCHAR
STARTCHAR Emacron
ENCODING 274
SWIDTH 565 0
DWIDTH 8 0
BBX 7 12 1 0
BITMAP
3FE0
0000
FFF4
F554
E000
E000
FFE0
F550
E000
E000
F554
FFF8
ENDCHAR
STARTCHAR emacron
ENCODING 275
SWIDTH 536 0
DWIDTH 8 0
BBX 7 10 0 0
BITMAP
2FF0
0000
0BE0
2D78
742C
7FFC
7554
7800
2E68
0BE0
ENDCHAR
STARTCHAR Ebreve
ENCODING 276
SWIDTH 565 0
DWIDTH 8 0
BBX 7 13 1 0
BITMAP
28D0
1F80
0000
FFF4
F554
E000
E000
FFE0
F550
E000
E000
F554
FFF8
ENDCHAR
STARTCHAR ebreve
ENCODING 277
SWIDTH 536 0
DWIDTH 8 0
BBX 7 11 0 0
BITMAP
1C70
0BD0
0000
0BE0
2D78
742C
7FFC
7554
7800
2E68
0BE0
ENDCHAR
STARTCHAR Edotaccent
ENCODING 278
SWIDTH 565 0
DWIDTH 8 0
BBX 7 13 1 0
BITMAP
0600
0700
0000
FFF4
F554
E000
E000
FFE0
F550
E000
E000
F554
FFF8
ENDCHAR
STARTCHAR edotaccent
ENCODING 279
SWIDTH 536 0
DWIDTH 8 0
BBX 7 11 0 0
BITMAP
0240
0340
0000
0BE0
2D78
742C
7FFC
7554
7800
2E68
0BE0
ENDCHAR
STARTCHAR Eogonek
ENCODING 280
SWIDTH 565 0
DWIDTH 8 0
BBX 7 13 1 -3
BITMAP
FFF4
F554
E000
E000
FFE0
F550
E000
E000
F554
FFF8
01D0
0280
01E0
ENDCHAR
STARTCHAR eogonek
ENCODING 281
SWIDTH 536 0
DWIDTH 8 0
BBX 7 11 0 -3
BITMAP
0BE0
2D78
742C
7FFC
7554
7800
2E68
0BE0
01C0
0280
01E0
ENDCHAR
STARTCHAR Ecaron
ENCODING 282
SWIDTH 565 0
DWIDTH 8 0
BBX 7 13 1 0
BITMAP
29D0
0B40
0000
FFF4
F554
E000
E000
FFE0
F550
E000
E000
F554
FFF8
ENDCHAR
STARTCHAR ecaron
ENCODING 283
SWIDTH 536 0
DWIDTH 8 0
BBX 7 11 0 0
BITMAP
1DA0
0780
0000
0BE0
2D78
742C
7FFC
7554
7800
2E68
0BE0
ENDCHAR
STARTCHAR Gcircumflex
ENCODING 284
SWIDTH 680 0
DWIDTH 10 0
BBX 9 13 0 0
BITMAP
01E000
076800
000000
06F800
1E6F00
3C0740
780100
740000
743F80
381780
3C0380
1F5B80
06F900
ENDCHAR
STARTCHAR gcircumflex
ENCODING 285
SWIDTH 566 0
DWIDTH 8 0
BBX 7 14 0 -3
BITMAP
0780
1DA0
0000
0BAC
2DBC
742C
742C
742C
742C
2DBC
0BAC
002C
29B8
1BE0
ENDCHAR
STARTCHAR Gbreve
ENCODING 286
SWIDTH 680 0
DWIDTH 10 0
BBX 9 13 0 0
BITMAP
072800
02E400
000000
06F800
1E6F00
3C0740
780100
740000
743F80
381780
3C0380
1F5B80
06F900
ENDCHAR
STARTCHAR gbreve
ENCODING 287
SWIDTH 566 0
DWIDTH 8 0
BBX 7 14 0 -3
BITMAP
1C70
0BD0
0000
0BAC
2DBC
742C
742C
742C
742C
2DBC
0BAC
002C
29B8
1BE0
ENDCHAR
STARTCHAR Gdotaccent
ENCODING 288
SWIDTH 680 0
DWIDTH 10 0
BBX 9 13 0 0
BITMAP
009000
00D000
000000
06F800
1E6F00
3C0740
780100
740000
743F80
381780
3C0380
1F5B80
06F900
ENDCHAR
STARTCHAR gdotaccent
ENCODING 289
SWIDTH 566 0
DWIDTH 8 0
BBX 7 14 0 -3
BITMAP
0240
0340
0000
0BAC
2DBC
742C
742C
742C
742C
2DBC
0BAC
002C
29B8
1BE0
ENDCHAR
STARTCHAR uni0122
ENCODING 290
SWIDTH 680 0
DWIDTH 10 0
BBX 9 14 0 -4
BITMAP
06F800
1E6F00
3C0740
780100
740000
743F80
381780
3C0380
1F5B80
06F900
000000
00A000
00D000
008000
ENDCHAR
STARTCHAR uni0123
ENCODING 291
SWIDTH 566 0
DWIDTH 8 0
BBX 7 15 0 -3
BITMAP
0180
0380
0340
0000
0BAC
2DBC
742C
742C
742C
742C
2DBC
0BAC
002C
29B8
1BE0
ENDCHAR
STARTCHAR Hcircumflex
ENCODING 292
SWIDTH 710 0
DWIDTH 10 0
BBX 8 13 1 0
BITMAP
07D0
0DA0
0000
E00B
E00B
E00B
E00B
FFFF
F55F
E00B
E00B
E00B
E00B
ENDCHAR
STARTCHAR hcircumflex
ENCODING 293
SWIDTH 555 0
DWIDTH 8 0
BBX 7 12 0 0
BITMAP
0B80
7D90
7400
7400
7AE0
7D78
782C
742C
742C
742C
742C
742C
ENDCHAR
STARTCHAR Hbar
ENCODING 294
SWIDTH 710 0
DWIDTH 10 0
BBX 10 10 0 0
BITMAP
3802C0
3802C0
BFFFE0
3802C0
3FFFC0
3D57C0
3802C0
3802C0
3802C0
3802C0
ENDCHAR
STARTCHAR hbar
ENCODING 295
SWIDTH 569 0
DWIDTH 8 0
BBX 8 11 -1 0
BITMAP
0E00
7FD0
0E00
0EBD
0F9F
0E0B
0E0B
0E0B
0E0B
0E0B
0E0B
ENDCHAR
STARTCHAR Itilde
ENCODING 296
SWIDTH 282 0
DWIDTH 4 0
BBX 6 13 -1 0
BITMAP
3D90
6780
0000
0F00
0F00
0F00
0F00
0F00
0F00
0F00
0F00
0F00
0F00
ENDCHAR
STARTCHAR itilde
ENCODING 297
SWIDTH 262 0
DWIDTH 4 0
BBX 6 11 -1 0
BITMAP
79D0
A780
0000
0E00
0E00
0E00
0E00
0E00
0E00
0E00
0E00
ENDCHAR
STARTCHAR Imacron
ENCODING 298
SWIDTH 282 0
DWIDTH 4 0
BBX 6 12 -1 0
BITMAP
7FD0
0000
0F00
0F00
0F00
0F00
0F00
0F00
0F00
0F00
0F00
0F00
ENDCHAR
STARTCHAR imacron
ENCODING 299
SWIDTH 262 0
DWIDTH 4 0
BBX 6 10 -1 0
BITMAP
7FD0
0000
0E00
0E00
0E00
0E00
0E00
0E00
0E00
0E00
ENDCHAR
STARTCHAR Ibreve
ENCODING 300
SWIDTH 282 0
DWIDTH 4 0
BBX 4 13 0 0
BITMAP
D7
7D
00
3C
3C
3C
3C
3C
3C
3C
3C
3C
3C
ENDCHAR
STARTCHAR ibreve
ENCODING 301
SWIDTH 262 0
DWIDTH 4 0
BBX 5 11 -1 0
BITMAP
71C0
2F40
0000
0E00
0E00
0E00
0E00
0E00
0E00
0E00
0E00
ENDCHAR
STARTCHAR Iogonek
ENCODING 302
SWIDTH 282 0
DWIDTH 4 0
BBX 3 13 0 -3
BITMAP
3C
3C
3C
3C
3C
3C
3C
3C
3C
3C
70
A0
78
ENDCHAR
STARTCHAR iogonek
ENCODING 303
SWIDTH 255 0
DWIDTH 4 0
BBX 3 14 0 -3
BITMAP
24
38
00
38
38
38
38
38
38
38
38
A0
D0
B4
ENDCHAR
STARTCHAR Idotaccent
ENCODING 304
SWIDTH 282 0
DWIDTH 4 0
BBX 2 13 1 0
BITMAP
50
A0
00
F0
F0
F0
F0
F0
F0
F0
F0
F0
F0
ENDCHAR
STARTCHAR dotlessi
ENCODING 305
SWIDTH 262 0
DWIDTH 4 0
BBX 2 8 1 0
BITMAP
E0
E0
E0
E0
E0
E0
E0
E0
ENDCHAR
STARTCHAR IJ
ENCODING 306
SWIDTH 837 0
DWIDTH 12 0
BBX 10 10 1 0
BITMAP
F000E0
F000E0
F000E0
F000E0
F000E0
F000E0
F000E0
F2C0E0
F1E6D0
F07F40
ENDCHAR
STARTCHAR ij
ENCODING 307
SWIDTH 505 0
DWIDTH 7 0
BBX 5 14 1 -3
BITMAP
9180
E1C0
0000
E2C0
E2C0
E2C0
E2C0
E2C0
E2C0
E2C0
E2C0
02C0
07C0
0F40
ENDCHAR
STARTCHAR Jcircumflex
ENCODING 308
SWIDTH 555 0
DWIDTH 8 0
BBX 8 13 0 0
BITMAP
0078
01DA
0000
0038
0038
0038
0038
0038
0038
0038
B038
79B4
1FD0
ENDCHAR
STARTCHAR jcircumflex
ENCODING 309
SWIDTH 268 0
DWIDTH 4 0
BBX 5 14 -1 -3
BITMAP
1F00
3680
0000
0E00
0E00
0E00
0E00
0E00
0E00
0E00
0E00
0E00
1E00
7800
ENDCHAR
STARTCHAR uni0136
ENCODING 310
SWIDTH 630 0
DWIDTH 9 0
BBX 8 13 1 -3
BITMAP
E02D
E0B4
E1E0
E780
FF40
FF80
F6D0
E0F4
E078
E01E
0740
0700
0600
ENDCHAR
STARTCHAR uni0137
ENCODING 311
SWIDTH 521 0
DWIDTH 7 0
BBX 6 14 1 -3
BITMAP
E000
E000
E000
E1E0
E780
EF00
FE00
FF00
E780
E2D0
E0F0
0D00
0D00
1800
ENDCHAR
STARTCHAR kgreenlandic
ENCODING 312
SWIDTH 574 0
DWIDTH 8 0
BBX 7 8 1 0
BITMAP
E0F4
E2D0
E780
FF00
EB40
E3C0
E1E0
E0B4
ENDCHAR
STARTCHAR Lacute
ENCODING 313
SWIDTH 541 0
DWIDTH 8 0
BBX 7 13 1 0
BITMAP
3800
A000
0000
E000
E000
E000
E000
E000
E000
E000
E000
F550
FFF4
ENDCHAR
STARTCHAR lacute
ENCODING 314
SWIDTH 255 0
DWIDTH 4 0
BBX 3 14 1 0
BITMAP
78
A0
00
E0
E0
E0
E0
E0
E0
E0
E0
E0
E0
E0
ENDCHAR
STARTCHAR uni013B
ENCODING 315
SWIDTH 541 0
DWIDTH 8 0
BBX 7 13 1 -3
BITMAP
E000
E000
E000
E000
E000
E000
E000
E000
F550
FFF4
0B00
0A00
0900
ENDCHAR
STARTCHAR uni013C
ENCODING 316
SWIDTH 255 0
DWIDTH 4 0
BBX 3 14 0 -3
BITMAP
38
38
38
38
38
38
38
38
38
38
38
34
34
60
ENDCHAR
STARTCHAR Lcaron
ENCODING 317
SWIDTH 541 0
DWIDTH 8 0
BBX 7 10 1 0
BITMAP
E1C0
E280
E240
E000
E000
E000
E000
E000
F550
FFF4
ENDCHAR
STARTCHAR lcaron
ENCODING 318
SWIDTH 328 0
DWIDTH 5 0
BBX 4 11 1 0
BITMAP
E7
E7
E9
E0
E0
E0
E0
E0
E0
E0
E0
ENDCHAR
STARTCHAR Ldot
ENCODING 319
SWIDTH 541 0
DWIDTH 8 0
BBX 7 10 1 0
BITMAP
E000
E000
E000
E140
E280
E000
E000
E000
F550
FFF4
ENDCHAR
STARTCHAR ldot
ENCODING 320
SWIDTH 362 0
DWIDTH 5 0
BBX 4 11 1 0
BITMAP
E0
E0
E0
E0
E6
E7
E0
E0
E0
E0
E0
ENDCHAR
STARTCHAR Lslash
ENCODING 321
SWIDTH 548 0
DWIDTH 8 0
BBX 8 10 0 0
BITMAP
3C00
3C00
3C00
3C00
3E40
BD00
3C00
3C00
3D54
3FFD
ENDCHAR
STARTCHAR lslash
ENCODING 322
SWIDTH 288 0
DWIDTH 4 0
BBX 4 11 0 0
BITMAP
38
38
38
38
3E
BC
38
38
38
38
38
ENDCHAR
STARTCHAR Nacute
ENCODING 323
SWIDTH 709 0
DWIDTH 10 0
BBX 8 13 1 0
BITMAP
00E0
0180
0000
F00B
F80B
FD0B
EF0B
E78B
E2DB
E0EB
E07F
E02F
E00F
ENDCHAR
STARTCHAR nacute
ENCODING 324
SWIDTH 556 0
DWIDTH 8 0
BBX 7 11 0 0
BITMAP
00E0
0280
0000
7AE0
7E78
782C
742C
742C
742C
742C
742C
ENDCHAR
STARTCHAR uni0145
ENCODING 325
SWIDTH 709 0
DWIDTH 10 0
BBX 8 13 1 -3
BITMAP
F00B
F80B
FD0B
EF0B
E78B
E2DB
E0EB
E07F
E02F
E00F
0280
0340
0200
ENDCHAR
STARTCHAR uni0146
ENCODING 326
SWIDTH 556 0
DWIDTH 8 0
BBX 7 11 0 -3
BITMAP
7AE0
7E78
782C
742C
742C
742C
742C
742C
0380
0340
0200
ENDCHAR
STARTCHAR Ncaron
ENCODING 327
SWIDTH 709 0
DWIDTH 10 0
BBX 8 13 1 0
BITMAP
0DB0
03C0
0000
F00B
F80B
FD0B
EF0B
E78B
E2DB
E0EB
E07F
E02F
E00F
ENDCHAR
STARTCHAR ncaron
ENCODING 328
SWIDTH 556 0
DWIDTH 8 0
BBX 7 11 0 0
BITMAP
0DA0
0780
0000
7AE0
7E78
782C
742C
742C
742C
742C
742C
ENDCHAR
STARTCHAR napostrophe
ENCODING 329
SWIDTH 556 0
DWIDTH 8 0
BBX 8 11 -1 0
BITMAP
3400
7000
6000
1EB8
1F9E
1E0B
1D0B
1D0B
1D0B
1D0B
1D0B
ENDCHAR
STARTCHAR Eng
ENCODING 330
SWIDTH 696 0
DWIDTH 10 0
BBX 8 13 1 -3
BITMAP
F00E
F80E
FD0E
EE0E
E74E
E2CE
E0EE
E07E
E02E
E01E
000E
006E
0078
ENDCHAR
STARTCHAR eng
ENCODING 331
SWIDTH 566 0
DWIDTH 8 0
BBX 6 11 1 -3
BITMAP
DB90
F5E0
E0B0
E0B0
E0B0
E0B0
E0B0
E0B0
00B0
01E0
0790
ENDCHAR
STARTCHAR Omacron
ENCODING 332
SWIDTH 690 0
DWIDTH 10 0
BBX 9 12 0 0
BITMAP
07FD00
000000
06F800
1FAF00
3C0780
380380
7402C0
7402C0
380380
3C0780
1F6F00
06F800
ENDCHAR
STARTCHAR omacron
ENCODING 333
SWIDTH 569 0
DWIDTH 8 0
BBX 8 10 0 0
BITMAP
1FF4
0000
0BE0
2D78
742D
741D
741D
742D
2D78
0BE0
ENDCHAR
STARTCHAR Obreve
ENCODING 334
SWIDTH 690 0
DWIDTH 10 0
BBX 9 13 0 0
BITMAP
071C00
02F400
000000
06F800
1FAF00
3C0780
380380
7402C0
7402C0
380380
3C0780
1F6F00
06F800
ENDCHAR
STARTCHAR obreve
ENCODING 335
SWIDTH 569 0
DWIDTH 8 0
BBX 8 11 0 0
BITMAP
0D70
0BD0
0000
0BE0
2D78
742D
741D
741D
742D
2D78
0BE0
ENDCHAR
STARTCHAR Ohungarumlaut
ENCODING 336
SWIDTH 690 0
DWIDTH 10 0
BBX 9 13 0 0
BITMAP
01DA00
029800
000000
06F800
1FAF00
3C0780
380380
7402C0
7402C0
380380
3C0780
1F6F00
06F800
ENDCHAR
STARTCHAR ohungarumlaut
ENCODING 337
SWIDTH 569 0
DWIDTH 8 0
BBX 8 11 0 0
BITMAP
076C
0A70
0000
0BE0
2D78
742D
741D
741D
742D
2D78
0BE0
ENDCHAR
STARTCHAR OE
ENCODING 338
SWIDTH 962 0
DWIDTH 13 0
BBX 13 10 0 0
BITMAP
06FFFF80
2E5F5540
380E0000
740E0000
740FFF00
740F5500
740E0000
380E0000
2E5F5540
06FFFF80
ENDCHAR
STARTCHAR oe
ENCODING 339
SWIDTH 903 0
DWIDTH 13 0
BBX 12 8 0 0
BITMAP
0BE1F8
2D7F9E
382E0B
741FFF
741E55
382E00
2D7F9A
0BE2F9
ENDCHAR
STARTCHAR Racute
ENCODING 340
SWIDTH 624 0
DWIDTH 9 0
BBX 8 13 1 0
BITMAP
02C0
0700
0000
FFE0
F5B8
E02C
E02C
E078
FFF0
F5E0
E0B0
E078
E02D
ENDCHAR
STARTCHAR racute
ENCODING 341
SWIDTH 351 0
DWIDTH 5 0
BBX 4 11 1 0
BITMAP
1E
28
00
EE
F9
E0
E0
E0
E0
E0
E0
ENDCHAR
STARTCHAR uni0156
ENCODING 342
SWIDTH 624 0
DWIDTH 9 0
BBX 8 13 1 -3
BITMAP
FFE0
F5B8
E02C
E02C
E078
FFF0
F5E0
E0B0
E078
E02D
0B00
0A00
0900
ENDCHAR
STARTCHAR uni0157
ENCODING 343
SWIDTH 351 0
DWIDTH 5 0
BBX 5 11 0 -3
BITMAP
3B80
3E40
3800
3800
3800
3800
3800
3800
3400
3400
6000
ENDCHAR
STARTCHAR Rcaron
ENCODING 344
SWIDTH 624 0
DWIDTH 9 0
BBX 8 13 1 0
BITMAP
29D0
0B40
0000
FFE0
F5B8
E02C
E02C
E078
FFF0
F5E0
E0B0
E078
E02D
ENDCHAR
STARTCHAR rcaron
ENCODING 345
SWIDTH 351 0
DWIDTH 5 0
BBX 5 11 0 0
BITMAP
7680
1E00
0000
3B80
3E40
3800
3800
3800
3800
3800
3800
ENDCHAR
STARTCHAR Sacute
ENCODING 346
SWIDTH 603 0
DWIDTH 8 0
BBX 8 13 0 0
BITMAP
00B4
01D0
0000
0BF4
2E6D
380F
3D00
1F90
01BD
001E
740F
3E6E
0BF8
ENDCHAR
STARTCHAR sacute
ENCODING 347
SWIDTH 516 0
DWIDTH 7 0
BBX 7 11 0 0
BITMAP
01E0
0280
0000
1BD0
39B4
7414
2E40
06F4
6038
79B4
1BD0
ENDCHAR
STARTCHAR Scircumflex
ENCODING 348
SWIDTH 603 0
DWIDTH 8 0
BBX 8 13 0 0
BITMAP
02D0
0A74
0000
0BF4
2E6D
380F
3D00
1F90
01BD
001E
740F
3E6E
0BF8
ENDCHAR
STARTCHAR scircumflex
ENCODING 349
SWIDTH 516 0
DWIDTH 7 0
BBX 7 11 0 0
BITMAP
0780
1DA0
0000
1BD0
39B4
7414
2E40
06F4
6038
79B4
1BD0
ENDCHAR
STARTCHAR Scedilla
ENCODING 350
SWIDTH 603 0
DWIDTH 8 0
BBX 8 13 0 -3
BITMAP
0BF4
2E6D
380F
3D00
1F90
01BD
001E
740F
3E6E
0BF8
01D0
00B0
01D0
ENDCHAR
STARTCHAR scedilla
ENCODING 351
SWIDTH 516 0
DWIDTH 7 0
BBX 7 11 0 -3
BITMAP
1BD0
39B4
7414
2E40
06F4
6038
79B4
1BD0
0380
01D0
0380
ENDCHAR
STARTCHAR Scaron
ENCODING 352
SWIDTH 603 0
DWIDTH 8 0
BBX 8 13 0 0
BITMAP
0A74
02D0
0000
0BF4
2E6D
380F
3D00
1F90
01BD
001E
740F
3E6E
0BF8
ENDCHAR
STARTCHAR scaron
ENCODING 353
SWIDTH 516 0
DWIDTH 7 0
BBX 7 11 0 0
BITMAP
1DA0
0780
0000
1BD0
39B4
7414
2E40
06F4
6038
79B4
1BD0
ENDCHAR
STARTCHAR uni0162
ENCODING 354
SWIDTH 606 0
DWIDTH 9 0
BBX 9 13 0 -3
BITMAP
BFFF40
56D500
02C000
02C000
02C000
02C000
02C000
02C000
02C000
02C000
01D000
00A000
01D000
ENDCHAR
STARTCHAR uni0163
ENCODING 355
SWIDTH 332 0
DWIDTH 5 0
BBX 5 13 0 -3
BITMAP
2C00
2C00
FF40
6D00
2C00
2C00
2C00
2C00
2D00
1F40
0B40
0380
0A40
ENDCHAR
STARTCHAR Tcaron
ENCODING 356
SWIDTH 606 0
DWIDTH 9 0
BBX 9 13 0 0
BITMAP
0A7400
02D000
000000
BFFF40
56D500
02C000
02C000
02C000
02C000
02C000
02C000
02C000
02C000
ENDCHAR
STARTCHAR tcaron
ENCODING 357
SWIDTH 352 0
DWIDTH 5 0
BBX 6 12 0 0
BITMAP
00E0
00D0
2C80
2C00
FF40
6D00
2C00
2C00
2C00
2C00
2D00
1F40
ENDCHAR
STARTCHAR Tbar
ENCODING 358
SWIDTH 606 0
DWIDTH 9 0
BBX 9 10 0 0
BITMAP
BFFF40
56D500
02C000
0FF800
02D000
02C000
02C000
02C000
02C000
02C000
ENDCHAR
STARTCHAR tbar
ENCODING 359
SWIDTH 332 0
DWIDTH 5 0
BBX 6 10 -1 0
BITMAP
0B00
0B00
3FD0
1B40
7FD0
0B00
0B00
0B00
0B40
03D0
ENDCHAR
STARTCHAR Utilde
ENCODING 360
SWIDTH 651 0
DWIDTH 9 0
BBX 8 14 1 0
BITMAP
0010
1E70
35D0
0000
E01D
E01D
E01D
E01D
E01D
E01D
E01D
E02D
B9B8
1FE0
ENDCHAR
STARTCHAR utilde
ENCODING 361
SWIDTH 555 0
DWIDTH 8 0
BBX 7 11 0 0
BITMAP
1E74
29E0
0000
742C
742C
742C
742C
742C
382C
3DBC
1FAC
ENDCHAR
STARTCHAR Umacron
ENCODING 362
SWIDTH 651 0
DWIDTH 9 0
BBX 8 12 1 0
BITMAP
2FF0
0000
E01D
E01D
E01D
E01D
E01D
E01D
E01D
E02D
B9B8
1FE0
ENDCHAR
STARTCHAR umacron
ENCODING 363
SWIDTH 555 0
DWIDTH 8 0
BBX 7 10 0 0
BITMAP
1FF4
0000
742C
742C
742C
742C
742C
382C
3DBC
1FAC
ENDCHAR
STARTCHAR Ubreve
ENCODING 364
SWIDTH 651 0
DWIDTH 9 0
BBX 8 13 1 0
BITMAP
28A0
0B80
0000
E01D
E01D
E01D
E01D
E01D
E01D
E01D
E02D
B9B8
1FE0
ENDCHAR
STARTCHAR ubreve
ENCODING 365
SWIDTH 555 0
DWIDTH 8 0
BBX 7 11 0 0
BITMAP
1C70
0BD0
0000
742C
742C
742C
742C
742C
382C
3DBC
1FAC
ENDCHAR
STARTCHAR Uring
ENCODING 366
SWIDTH 651 0
DWIDTH 9 0
BBX 8 14 1 0
BITMAP
0780
0CC0
0780
0000
E01D
E01D
E01D
E01D
E01D
E01D
E01D
E02D
B9B8
1FE0
ENDCHAR
STARTCHAR uring
ENCODING 367
SWIDTH 555 0
DWIDTH 8 0
BBX 7 12 0 0
BITMAP
0780
0990
0780
0000
742C
742C
742C
742C
742C
382C
3DBC
1FAC
ENDCHAR
STARTCHAR Uhungarumlaut
ENCODING 368
SWIDTH 651 0
DWIDTH 9 0
BBX 8 13 1 0
BITMAP
0B78
0DA0
0000
E01D
E01D
E01D
E01D
E01D
E01D
E01D
E02D
B9B8
1FE0
ENDCHAR
STARTCHAR uhungarumlaut
ENCODING 369
SWIDTH 555 0
DWIDTH 8 0
BBX 7 11 0 0
BITMAP
0768
0A60
0000
742C
742C
742C
742C
742C
382C
3DBC
1FAC
ENDCHAR
STARTCHAR Uogonek
ENCODING 370
SWIDTH 651 0
DWIDTH 9 0
BBX 8 12 1 -2
BITMAP
E01D
E01D
E01D
E01D
E01D
E01D
E01D
E02C
B9B8
1FE0
0280
01E0
ENDCHAR
STARTCHAR uogonek
ENCODING 371
SWIDTH 555 0
DWIDTH 8 0
BBX 7 11 0 -3
BITMAP
742C
742C
742C
742C
742C
382C
3DBC
1FAC
0074
00A0
0078
ENDCHAR
STARTCHAR Wcircumflex
ENCODING 372
SWIDTH 879 0
DWIDTH 12 0
BBX 12 13 0 0
BITMAP
002D00
00A740
000000
B02C0B
743D0E
383E1D
387A1D
2CA72C
1DD368
1ED2B8
0FC2F4
0B81F0
0740F0
ENDCHAR
STARTCHAR wcircumflex
ENCODING 373
SWIDTH 743 0
DWIDTH 10 0
BBX 10 11 0 0
BITMAP
00B400
029D00
000000
B0B0B0
74F4A0
34F8E0
39E9D0
2E9EC0
1F4F80
0F0B80
0E0740
ENDCHAR
STARTCHAR Ycircumflex
ENCODING 374
SWIDTH 609 0
DWIDTH 9 0
BBX 9 13 0 0
BITMAP
02D000
0A7400
000000
B40B40
781E00
2D2C00
0E3800
0BB000
03E000
02C000
02C000
02C000
02C000
ENDCHAR
STARTCHAR ycircumflex
ENCODING 375
SWIDTH 486 0
DWIDTH 7 0
BBX 7 14 0 -3
BITMAP
0B80
1990
0000
B078
7474
38B0
2CE0
1ED0
0FC0
0B80
0740
0B00
1E00
7800
ENDCHAR
STARTCHAR Ydieresis
ENCODING 376
SWIDTH 609 0
DWIDTH 9 0
BBX 9 13 0 0
BITMAP
051400
0D2800
000000
B40B40
781E00
2D2C00
0E3800
0BB000
03E000
02C000
02C000
02C000
02C000
ENDCHAR
STARTCHAR Zacute
ENCODING 377
SWIDTH 602 0
DWIDTH 8 0
BBX 8 13 0 0
BITMAP
00B4
01D0
0000
7FFE
156E
0038
00B4
01D0
0380
0B00
2D00
7D55
7FFF
ENDCHAR
STARTCHAR zacute
ENCODING 378
SWIDTH 502 0
DWIDTH 7 0
BBX 7 11 0 0
BITMAP
01D0
0280
0000
7FF4
15F0
01D0
0780
0B00
1D00
7D54
7FF8
ENDCHAR
STARTCHAR Zdotaccent
ENCODING 379
SWIDTH 602 0
DWIDTH 8 0
BBX 8 13 0 0
BITMAP
0180
01C0
0000
7FFE
156E
0038
00B4
01D0
0380
0B00
2D00
7D55
7FFF
ENDCHAR
STARTCHAR zdotaccent
ENCODING 380
SWIDTH 502 0
DWIDTH 7 0
BBX 7 11 0 0
BITMAP
0200
0740
0000
7FF4
15F0
01D0
0780
0B00
1D00
7D54
7FF8
ENDCHAR
STARTCHAR Zcaron
ENCODING 381
SWIDTH 602 0
DWIDTH 8 0
BBX 8 13 0 0
BITMAP
0A74
02D0
0000
7FFE
156E
0038
00B4
01D0
0380
0B00
2D00
7D55
7FFF
ENDCHAR
STARTCHAR zcaron
ENCODING 382
SWIDTH 502 0
DWIDTH 7 0
BBX 7 11 0 0
BITMAP
1DE0
0780
0000
7FF4
15F0
01D0
0780
0B00
1D00
7D54
7FF8
ENDCHAR
STARTCHAR longs
ENCODING 383
SWIDTH 255 0
DWIDTH 4 0
BBX 4 11 1 0
BITMAP
6D
B4
E0
E0
E0
E0
E0
E0
E0
E0
E0
ENDCHAR
STARTCHAR uni018F
ENCODING 399
SWIDTH 691 0
DWIDTH 10 0
BBX 9 10 0 0
BITMAP
1BF800
1AAE00
000B80
000380
0003C0
7FFFC0
795780
780740
2E6E00
07F800
ENDCHAR
STARTCHAR florin
ENCODING 402
SWIDTH 351 0
DWIDTH 5 0
BBX 5 14 0 -3
BITMAP
0B80
1E40
2C00
BF40
6D00
2C00
2C00
2C00
2C00
2C00
2C00
2C00
7800
E400
ENDCHAR
STARTCHAR Ohorn
ENCODING 416
SWIDTH 692 0
DWIDTH 10 0
BBX 10 11 0 0
BITMAP
000060
06F8A0
1EAFC0
3C0740
740380
7403C0
740380
740380
3C0740
1E6E00
06F800
ENDCHAR
STARTCHAR ohorn
ENCODING 417
SWIDTH 577 0
DWIDTH 8 0
BBX 8 9 0 0
BITMAP
0002
0BE7
2D7E
742C
741D
741D
742D
2D78
0BE0
ENDCHAR
STARTCHAR Uhorn
ENCODING 431
SWIDTH 705 0
DWIDTH 10 0
BBX 10 11 1 0
BITMAP
000070
E01DA0
E01F80
E01D00
E01D00
E01D00
E01D00
E01D00
E02C00
B9B800
1FE000
ENDCHAR
STARTCHAR uhorn
ENCODING 432
SWIDTH 618 0
DWIDTH 9 0
BBX 9 9 0 0
BITMAP
000080
742DC0
742F40
742C00
742C00
742C00
382C00
3DBC00
1FAC00
ENDCHAR
STARTCHAR uni01F0
ENCODING 496
SWIDTH 268 0
DWIDTH 4 0
BBX 5 14 -1 -3
BITMAP
7680
1E00
0000
0E00
0E00
0E00
0E00
0E00
0E00
0E00
0E00
0E00
1E00
7800
ENDCHAR
STARTCHAR Aringacute
ENCODING 506
SWIDTH 665 0
DWIDTH 9 0
BBX 9 15 0 0
BITMAP
003800
006000
01E000
026000
01E000
01E000
02F000
03B400
073800
0A1C00
1D0E00
2FFF00
395B40
740380
B002C0
ENDCHAR
STARTCHAR aringacute
ENCODING 507
SWIDTH 541 0
DWIDTH 8 0
BBX 7 13 0 0
BITMAP
00A0
0180
0380
0580
0380
1BE0
39B4
1038
1BF8
3838
7438
79B8
1FBC
ENDCHAR
STARTCHAR AEacute
ENCODING 508
SWIDTH 939 0
DWIDTH 13 0
BBX 13 13 0 0
BITMAP
000B4000
000D0000
00000000
002FFF40
007F5500
00BB0000
01DB0000
038BFF00
07475500
0FFF4000
2D5B4000
78079540
B407FFC0
ENDCHAR
STARTCHAR aeacute
ENCODING 509
SWIDTH 844 0
DWIDTH 12 0
BBX 12 11 0 0
BITMAP
000E00
002800
000000
1BD7E4
3DBE6C
10381D
1FFFFD
793954
743C00
79BE58
2F97F8
ENDCHAR
STARTCHAR Oslashacute
ENCODING 510
SWIDTH 689 0
DWIDTH 10 0
BBX 9 14 0 -1
BITMAP
003800
00A000
000040
06FA40
1FAF00
3C0F80
382BC0
7472C0
7492C0
3983C0
3F0780
1F6F00
1EF800
140000
ENDCHAR
STARTCHAR oslashacute
ENCODING 511
SWIDTH 566 0
DWIDTH 8 0
BBX 8 12 0 -1
BITMAP
01E0
0280
0014
0BF4
2DB8
74AD
759D
765D
7A2D
2E78
1FE0
1400
ENDCHAR
STARTCHAR uni0218
ENCODING 536
SWIDTH 603 0
DWIDTH 8 0
BBX 8 13 0 -3
BITMAP
0BF4
2E6D
380F
3D00
1F90
01BD
001E
740F
3E6E
0BF8
01C0
01C0
0240
ENDCHAR
STARTCHAR uni0219
ENCODING 537
SWIDTH 516 0
DWIDTH 7 0
BBX 7 12 0 -4
BITMAP
1BD0
39B4
7414
2E40
06F4
6038
79B4
1BD0
0000
0340
0340
0600
ENDCHAR
STARTCHAR uni021A
ENCODING 538
SWIDTH 606 0
DWIDTH 9 0
BBX 9 13 0 -3
BITMAP
BFFF40
56D500
02C000
02C000
02C000
02C000
02C000
02C000
02C000
02C000
01C000
028000
024000
ENDCHAR
STARTCHAR uni021B
ENCODING 539
SWIDTH 332 0
DWIDTH 5 0
BBX 5 13 0 -3
BITMAP
2C00
2C00
FF40
6D00
2C00
2C00
2C00
2C00
2D00
1F40
0A00
0A00
0800
ENDCHAR
STARTCHAR uni0237
ENCODING 567
SWIDTH 268 0
DWIDTH 4 0
BBX 4 11 -1 -3
BITMAP
0E
0E
0E
0E
0E
0E
0E
0E
0E
1E
78
ENDCHAR
STARTCHAR uni0259
ENCODING 601
SWIDTH 529 0
DWIDTH 7 0
BBX 7 8 0 0
BITMAP
2FD0
25B4
0038
002C
7FFC
7578
39B4
1BD0
ENDCHAR
STARTCHAR uni02BC
ENCODING 700
SWIDTH 216 0
DWIDTH 3 0
BBX 3 3 0 8
BITMAP
34
34
60
ENDCHAR
STARTCHAR circumflex
ENCODING 710
SWIDTH 487 0
DWIDTH 7 0
BBX 5 2 1 8
BITMAP
2D00
A740
ENDCHAR
STARTCHAR caron
ENCODING 711
SWIDTH 460 0
DWIDTH 6 0
BBX 5 2 1 9
BITMAP
A740
2D00
ENDCHAR
STARTCHAR uni02C9
ENCODING 713
SWIDTH 482 0
DWIDTH 7 0
BBX 5 1 1 9
BITMAP
FF80
ENDCHAR
STARTCHAR breve
ENCODING 728
SWIDTH 435 0
DWIDTH 6 0
BBX 4 2 1 8
BITMAP
D7
7D
ENDCHAR
STARTCHAR dotaccent
ENCODING 729
SWIDTH 255 0
DWIDTH 4 0
BBX 2 2 1 9
BITMAP
90
D0
ENDCHAR
STARTCHAR ring
ENCODING 730
SWIDTH 336 0
DWIDTH 5 0
BBX 3 3 1 8
BITMAP
B4
88
B4
ENDCHAR
STARTCHAR ogonek
ENCODING 731
SWIDTH 287 0
DWIDTH 4 0
BBX 3 3 0 -3
BITMAP
74
A0
78
ENDCHAR
STARTCHAR tilde
ENCODING 732
SWIDTH 480 0
DWIDTH 7 0
BBX 5 2 1 9
BITMAP
B580
CB40
ENDCHAR
STARTCHAR hungarumlaut
ENCODING 733
SWIDTH 390 0
DWIDTH 5 0
BBX 6 2 0 8
BITMAP
2DD0
7640
ENDCHAR
STARTCHAR uni02F3
ENCODING 755
SWIDTH 302 0
DWIDTH 4 0
BBX 3 3 1 -4
BITMAP
B0
94
B0
ENDCHAR
STARTCHAR gravecomb
ENCODING 768
SWIDTH 0 0
DWIDTH 0 0
BBX 3 2 -6 8
BITMAP
B4
28
ENDCHAR
STARTCHAR acutecomb
ENCODING 769
SWIDTH 0 0
DWIDTH 0 0
BBX 4 2 -5 8
BITMAP
2D
74
ENDCHAR
STARTCHAR tildecomb
ENCODING 771
SWIDTH 0 0
DWIDTH 0 0
BBX 5 2 -6 9
BITMAP
B580
CB40
ENDCHAR
STARTCHAR hookabovecomb
ENCODING 777
SWIDTH 0 0
DWIDTH 0 0
BBX 3 3 -5 9
BITMAP
A0
34
A0
ENDCHAR
STARTCHAR uni030F
ENCODING 783
SWIDTH 0 0
DWIDTH 0 0
BBX 6 2 -7 9
BITMAP
7B80
1DD0
ENDCHAR
STARTCHAR dotbelowcomb
ENCODING 803
SWIDTH 0 0
DWIDTH 0 0
BBX 2 2 -5 -3
BITMAP
A0
90
ENDCHAR
STARTCHAR tonos
ENCODING 900
SWIDTH 295 0
DWIDTH 4 0
BBX 2 2 1 9
BITMAP
70
60
ENDCHAR
STARTCHAR dieresistonos
ENCODING 901
SWIDTH 529 0
DWIDTH 7 0
BBX 6 3 1 9
BITMAP
0A00
8980
D0D0
ENDCHAR
STARTCHAR Alphatonos
ENCODING 902
SWIDTH 665 0
DWIDTH 9 0
BBX 9 11 0 0
BITMAP
280000
21E000
02F000
03B400
073800
0A1C00
1D0E00
2FFF00
395B40
740380
B002C0
ENDCHAR
STARTCHAR anoteleia
ENCODING 903
SWIDTH 282 0
DWIDTH 4 0
BBX 2 2 1 4
BITMAP
A0
A0
ENDCHAR
STARTCHAR Epsilontonos
ENCODING 904
SWIDTH 565 0
DWIDTH 8 0
BBX 10 11 -2 0
BITMAP
A00000
93FFD0
03D550
038000
038000
03FF80
03D540
038000
038000
03D550
03FFE0
ENDCHAR
STARTCHAR Etatonos
ENCODING 905
SWIDTH 710 0
DWIDTH 10 0
BBX 11 11 -2 0
BITMAP
B00000
93802C
03802C
03802C
03802C
03FFFC
03D57C
03802C
03802C
03802C
03802C
ENDCHAR
STARTCHAR Iotatonos
ENCODING 906
SWIDTH 282 0
DWIDTH 4 0
BBX 5 11 -2 0
BITMAP
B000
93C0
03C0
03C0
03C0
03C0
03C0
03C0
03C0
03C0
03C0
ENDCHAR
STARTCHAR Omicrontonos
ENCODING 908
SWIDTH 700 0
DWIDTH 10 0
BBX 10 11 -1 0
BITMAP
700000
61BE00
07EBC0
0B01E0
0E00B0
0E00B0
0E00B0
0E00B0
0B01E0
07EBC0
01BE40
ENDCHAR
STARTCHAR Upsilontonos
ENCODING 910
SWIDTH 658 0
DWIDTH 9 0
BBX 11 11 -2 0
BITMAP
A00000
93C03C
01D074
00F0E0
0075D0
003F80
001F40
000F00
000E00
000E00
000E00
ENDCHAR
STARTCHAR Omegatonos
ENCODING 911
SWIDTH 679 0
DWIDTH 10 0
BBX 10 11 -1 0
BITMAP
740000
61BE00
07DB80
0B02D0
0E01E0
0E01E0
0E01E0
0F01D0
0742C0
07DB90
0FDBE0
ENDCHAR
STARTCHAR iotadieresistonos
ENCODING 912
SWIDTH 333 0
DWIDTH 5 0
BBX 6 12 -1 0
BITMAP
0740
5650
A0A0
0000
0E00
0E00
0E00
0E00
0E00
0E00
0B40
07C0
ENDCHAR
STARTCHAR Alpha
ENCODING 913
SWIDTH 665 0
DWIDTH 9 0
BBX 9 10 0 0
BITMAP
01E000
02F000
03B400
073800
0A1C00
1D0E00
2FFF00
395B40
740380
B002C0
ENDCHAR
STARTCHAR Beta
ENCODING 914
SWIDTH 630 0
DWIDTH 9 0
BBX 7 10 1 0
BITMAP
FFE0
F5B8
E038
E078
FFE0
E578
E02C
E02C
F5B8
FFE0
ENDCHAR
STARTCHAR Gamma
ENCODING 915
SWIDTH 557 0
DWIDTH 8 0
BBX 7 10 1 0
BITMAP
FFF4
F550
E000
E000
E000
E000
E000
E000
E000
E000
ENDCHAR
STARTCHAR uni0394
ENCODING 916
SWIDTH 718 0
DWIDTH 10 0
BBX 10 10 0 0
BITMAP
00F000
01F800
02EC00
079D00
0B0E00
0E0B00
1D0740
2C03C0
7956D0
BFFFE0
ENDCHAR
STARTCHAR Epsilon
ENCODING 917
SWIDTH 565 0
DWIDTH 8 0
BBX 7 10 1 0
BITMAP
FFF4
F554
E000
E000
FFE0
F550
E000
E000
F554
FFF8
ENDCHAR
STARTCHAR Zeta
ENCODING 918
SWIDTH 602 0
DWIDTH 8 0
BBX 8 10 0 0
BITMAP
7FFE
156E
0038
00B4
01D0
0380
0B00
2D00
7D55
7FFF
ENDCHAR
STARTCHAR Eta
ENCODING 919
SWIDTH 710 0
DWIDTH 10 0
BBX 8 10 1 0
BITMAP
E00B
E00B
E00B
E00B
FFFF
F55F
E00B
E00B
E00B
E00B
ENDCHAR
STARTCHAR Theta
ENCODING 920
SWIDTH 684 0
DWIDTH 10 0
BBX 9 10 0 0
BITMAP
06F800
1FAF00
3C0740
780380
76F7C0
7553C0
780380
3C0740
1E6F00
06F800
ENDCHAR
STARTCHAR Iota
ENCODING 921
SWIDTH 282 0
DWIDTH 4 0
BBX 2 10 1 0
BITMAP
F0
F0
F0
F0
F0
F0
F0
F0
F0
F0
ENDCHAR
STARTCHAR Kappa
ENCODING 922
SWIDTH 630 0
DWIDTH 9 0
BBX 8 10 1 0
BITMAP
E02D
E0B4
E1E0
E780
FF40
FF80
F6D0
E0F4
E078
E01E
ENDCHAR
STARTCHAR Lambda
ENCODING 923
SWIDTH 652 0
DWIDTH 9 0
BBX 9 10 0 0
BITMAP
01E000
02F000
07F400
0B7800
0F2C00
1E1D00
2D0E00
3C0B00
780740
B40380
ENDCHAR
STARTCHAR Mu
ENCODING 924
SWIDTH 875 0
DWIDTH 12 0
BBX 11 10 1 0
BITMAP
F401F4
F802F4
FD03F4
EE07B4
EB0A74
E74D74
E39C74
E1F8B4
E0F4B4
E0B0B4
ENDCHAR
STARTCHAR Nu
ENCODING 925
SWIDTH 709 0
DWIDTH 10 0
BBX 8 10 1 0
BITMAP
F00B
F80B
FD0B
EF0B
E78B
E2DB
E0EB
E07F
E02F
E00F
ENDCHAR
STARTCHAR Xi
ENCODING 926
SWIDTH 570 0
DWIDTH 8 0
BBX 8 10 0 0
BITMAP
7FFC
1554
0000
0000
2FF8
1554
0000
0000
1554
7FFD
ENDCHAR
STARTCHAR Omicron
ENCODING 927
SWIDTH 690 0
DWIDTH 10 0
BBX 9 10 0 0
BITMAP
06F800
1FAF00
3C0780
380380
7402C0
7402C0
380380
3C0780
1F6F00
06F800
ENDCHAR
STARTCHAR Pi
ENCODING 928
SWIDTH 711 0
DWIDTH 10 0
BBX 8 10 1 0
BITMAP
FFFF
F55F
E00B
E00B
E00B
E00B
E00B
E00B
E00B
E00B
ENDCHAR
STARTCHAR Rho
ENCODING 929
SWIDTH 639 0
DWIDTH 9 0
BBX 8 10 1 0
BITMAP
FFE0
F5BC
E01D
E01D
E02D
FFF4
F540
E000
E000
E000
ENDCHAR
STARTCHAR Sigma
ENCODING 931
SWIDTH 570 0
DWIDTH 8 0
BBX 8 10 0 0
BITMAP
BFFD
7D54
1E00
0B40
02C0
02C0
0B40
1E00
7D55
BFFE
ENDCHAR
STARTCHAR Tau
ENCODING 932
SWIDTH 606 0
DWIDTH 9 0
BBX 9 10 0 0
BITMAP
BFFF40
56D500
02C000
02C000
02C000
02C000
02C000
02C000
02C000
02C000
ENDCHAR
STARTCHAR Upsilon
ENCODING 933
SWIDTH 609 0
DWIDTH 9 0
BBX 9 10 0 0
BITMAP
B40B40
781E00
2D2C00
0E3800
0BB000
03E000
02C000
02C000
02C000
02C000
ENDCHAR
STARTCHAR Phi
ENCODING 934
SWIDTH 741 0
DWIDTH 10 0
BBX 10 10 0 0
BITMAP
00B000
0BFE40
2EBBD0
78B0E0
74B0B0
74B0F0
3DB6D0
1FFF80
01B500
00B000
ENDCHAR
STARTCHAR Chi
ENCODING 935
SWIDTH 632 0
DWIDTH 9 0
BBX 9 10 0 0
BITMAP
780B40
2D1E00
0E3C00
0BB400
03E000
03E000
0BB400
1E3C00
2D1E00
780B40
ENDCHAR
STARTCHAR Psi
ENCODING 936
SWIDTH 708 0
DWIDTH 10 0
BBX 10 10 0 0
BITMAP
B4E1D0
B4E1D0
B4E1D0
B4E1D0
74E2D0
3DE780
1FFE00
01F400
00E000
00E000
ENDCHAR
STARTCHAR uni03A9
ENCODING 937
SWIDTH 669 0
DWIDTH 9 0
BBX 9 10 0 0
BITMAP
06F400
1E6E00
3C0B40
780740
780780
780740
380740
2C0A00
1F2E00
7F7F40
ENDCHAR
STARTCHAR Iotadieresis
ENCODING 938
SWIDTH 282 0
DWIDTH 4 0
BBX 6 13 -1 0
BITMAP
2080
71D0
0000
0F00
0F00
0F00
0F00
0F00
0F00
0F00
0F00
0F00
0F00
ENDCHAR
STARTCHAR Upsilondieresis
ENCODING 939
SWIDTH 609 0
DWIDTH 9 0
BBX 9 13 0 0
BITMAP
051400
0D2800
000000
B40B40
781E00
2D2C00
0E3800
0BB000
03E000
02C000
02C000
02C000
02C000
ENDCHAR
STARTCHAR alphatonos
ENCODING 940
SWIDTH 564 0
DWIDTH 8 0
BBX 8 11 0 0
BITMAP
00D0
0180
0000
0BAC
2DBC
782C
742C
742C
742C
3DBD
1B9E
ENDCHAR
STARTCHAR epsilontonos
ENCODING 941
SWIDTH 546 0
DWIDTH 8 0
BBX 7 11 0 0
BITMAP
01C0
0140
0000
1BE0
3D78
7818
3800
1FD0
7940
797C
1BE4
ENDCHAR
STARTCHAR etatonos
ENCODING 942
SWIDTH 566 0
DWIDTH 8 0
BBX 6 14 1 -3
BITMAP
0700
0600
0000
EB90
F5E0
E0B0
E0B0
E0B0
E0B0
E0B0
E0B0
00B0
00B0
00B0
ENDCHAR
STARTCHAR iotatonos
ENCODING 943
SWIDTH 333 0
DWIDTH 5 0
BBX 3 11 1 0
BITMAP
74
60
00
E0
E0
E0
E0
E0
E0
B4
7C
ENDCHAR
STARTCHAR upsilondieresistonos
ENCODING 944
SWIDTH 546 0
DWIDTH 8 0
BBX 6 12 1 0
BITMAP
0B00
5550
D0A0
0000
E1D0
E0E0
E0B0
E0B0
E0B0
E0E0
B6D0
2F40
ENDCHAR
STARTCHAR alpha
ENCODING 945
SWIDTH 564 0
DWIDTH 8 0
BBX 8 8 0 0
BITMAP
0BAC
2DBC
782C
742C
742C
742C
3DBD
1B9E
ENDCHAR
STARTCHAR beta
ENCODING 946
SWIDTH 596 0
DWIDTH 8 0
BBX 7 13 1 -3
BITMAP
2F90
B9F0
E074
E0B0
E7D0
E1B4
E038
E038
F5B4
FBD0
E000
E000
E000
ENDCHAR
STARTCHAR gamma
ENCODING 947
SWIDTH 506 0
DWIDTH 7 0
BBX 7 11 0 -3
BITMAP
B038
7474
38B0
2CA0
1DD0
0FC0
0B80
0740
0740
0740
0740
ENDCHAR
STARTCHAR delta
ENCODING 948
SWIDTH 566 0
DWIDTH 8 0
BBX 8 11 0 0
BITMAP
0BE0
1E60
1D00
0BD0
1EB8
382C
741D
741D
742D
2D78
0BE0
ENDCHAR
STARTCHAR epsilon
ENCODING 949
SWIDTH 546 0
DWIDTH 8 0
BBX 7 8 0 0
BITMAP
1BE0
3D78
7818
3800
1FD0
7940
797C
1BE4
ENDCHAR
STARTCHAR zeta
ENCODING 950
SWIDTH 512 0
DWIDTH 7 0
BBX 7 13 0 -3
BITMAP
7FF8
15B4
01D0
0780
0E00
1C00
2C00
3800
2D00
0BE0
00B4
0070
0090
ENDCHAR
STARTCHAR eta
ENCODING 951
SWIDTH 566 0
DWIDTH 8 0
BBX 6 11 1 -3
BITMAP
EB90
F5E0
E0B0
E0B0
E0B0
E0B0
E0B0
E0B0
00B0
00B0
00B0
ENDCHAR
STARTCHAR theta
ENCODING 952
SWIDTH 578 0
DWIDTH 8 0
BBX 8 10 0 0
BITMAP
0BE0
2D78
382C
341D
7FFD
796D
381D
382C
2E78
0BE0
ENDCHAR
STARTCHAR iota
ENCODING 953
SWIDTH 333 0
DWIDTH 5 0
BBX 3 8 1 0
BITMAP
E0
E0
E0
E0
E0
E0
B4
7C
ENDCHAR
STARTCHAR kappa
ENCODING 954
SWIDTH 574 0
DWIDTH 8 0
BBX 7 8 1 0
BITMAP
E0F4
E2D0
E780
FF00
EB40
E3C0
E1E0
E0B4
ENDCHAR
STARTCHAR lambda
ENCODING 955
SWIDTH 551 0
DWIDTH 8 0
BBX 8 10 0 0
BITMAP
3D00
1E00
0740
0780
0BC0
0ED0
2DF0
3C74
743D
B01D
ENDCHAR
STARTCHAR uni03BC
ENCODING 956
SWIDTH 591 0
DWIDTH 8 0
BBX 7 11 1 -3
BITMAP
E074
E074
E074
E074
E074
E074
F5F4
FFB4
E000
E000
E000
ENDCHAR
STARTCHAR nu
ENCODING 957
SWIDTH 494 0
DWIDTH 7 0
BBX 7 8 0 0
BITMAP
B038
7474
38B0
2CE0
1DD0
0FC0
0B80
0740
ENDCHAR
STARTCHAR xi
ENCODING 958
SWIDTH 509 0
DWIDTH 7 0
BBX 7 13 0 -3
BITMAP
0BF4
1E50
2C00
2D00
0BE0
2E50
7400
7400
3D00
0BF4
0078
0034
0060
ENDCHAR
STARTCHAR omicron
ENCODING 959
SWIDTH 569 0
DWIDTH 8 0
BBX 8 8 0 0
BITMAP
0BE0
2D78
742D
741D
741D
742D
2D78
0BE0
ENDCHAR
STARTCHAR pi
ENCODING 960
SWIDTH 618 0
DWIDTH 9 0
BBX 9 8 0 0
BITMAP
BFFF00
6D6D00
2C2C00
2C2C00
2C2C00
2C2C00
2C1E40
2C0B40
ENDCHAR
STARTCHAR rho
ENCODING 961
SWIDTH 566 0
DWIDTH 8 0
BBX 7 11 1 -3
BITMAP
2F80
79E0
E0B0
E074
E074
E0B0
F5E0
EB80
E000
E000
E000
ENDCHAR
STARTCHAR sigma1
ENCODING 962
SWIDTH 526 0
DWIDTH 7 0
BBX 7 10 0 -2
BITMAP
0BE0
2DB8
7428
7400
7400
7800
2E40
06F0
0074
0090
ENDCHAR
STARTCHAR sigma
ENCODING 963
SWIDTH 570 0
DWIDTH 8 0
BBX 8 8 0 0
BITMAP
0BFF
2DB9
742C
741D
741D
742C
2D78
0BE0
ENDCHAR
STARTCHAR tau
ENCODING 964
SWIDTH 521 0
DWIDTH 7 0
BBX 7 8 0 0
BITMAP
BFFC
5794
0740
0740
0740
0740
0390
02E0
ENDCHAR
STARTCHAR upsilon
ENCODING 965
SWIDTH 546 0
DWIDTH 8 0
BBX 6 8 1 0
BITMAP
E1D0
E0E0
E0B0
E0B0
E0B0
E0E0
B6D0
2F40
ENDCHAR
STARTCHAR phi
ENCODING 966
SWIDTH 726 0
DWIDTH 10 0
BBX 10 11 0 -3
BITMAP
187E00
3CB7C0
74B1D0
B4B0E0
74B0E0
78B1D0
2EFB80
06FE00
00B000
00B000
00B000
ENDCHAR
STARTCHAR chi
ENCODING 967
SWIDTH 502 0
DWIDTH 7 0
BBX 8 11 0 -3
BITMAP
B42C
6C74
0DB0
0BE0
07C0
0380
0BD0
0EE0
1DB0
3879
741D
ENDCHAR
STARTCHAR psi
ENCODING 968
SWIDTH 723 0
DWIDTH 10 0
BBX 10 11 0 -3
BITMAP
74E2C0
74E1D0
74E1D0
74E0E0
74E0D0
38E2D0
2EFB80
06FE00
00E000
00E000
00E000
ENDCHAR
STARTCHAR omega
ENCODING 969
SWIDTH 822 0
DWIDTH 12 0
BBX 11 8 0 0
BITMAP
2C00B0
380074
383838
743838
743838
387838
2DBDB4
0B87D0
ENDCHAR
STARTCHAR iotadieresis
ENCODING 970
SWIDTH 333 0
DWIDTH 5 0
BBX 6 11 -1 0
BITMAP
2080
74D0
0000
0E00
0E00
0E00
0E00
0E00
0E00
0B40
07C0
ENDCHAR
STARTCHAR upsilondieresis
ENCODING 971
SWIDTH 546 0
DWIDTH 8 0
BBX 6 11 1 0
BITMAP
5080
71C0
0000
E1D0
E0E0
E0B0
E0B0
E0B0
E0E0
B6D0
2F40
ENDCHAR
STARTCHAR omicrontonos
ENCODING 972
SWIDTH 569 0
DWIDTH 8 0
BBX 8 11 0 0
BITMAP
01C0
0180
0000
0BE0
2D78
742D
741D
741D
742D
2D78
0BE0
ENDCHAR
STARTCHAR upsilontonos
ENCODING 973
SWIDTH 546 0
DWIDTH 8 0
BBX 6 11 1 0
BITMAP
0B00
0900
0000
E1D0
E0E0
E0B0
E0B0
E0B0
E0E0
B6D0
2F40
ENDCHAR
STARTCHAR omegatonos
ENCODING 974
SWIDTH 822 0
DWIDTH 12 0
BBX 11 11 0 0
BITMAP
002C00
002400
000000
2C00B0
380074
383838
743838
743838
387838
2DBDB4
0B87D0
ENDCHAR
STARTCHAR theta1
ENCODING 977
SWIDTH 587 0
DWIDTH 8 0
BBX 8 10 0 0
BITMAP
02F4
07BC
0B2C
0B2D
07AD
75FF
742E
382C
2E78
0BE0
ENDCHAR
STARTCHAR Upsilon1
ENCODING 978
SWIDTH 560 0
DWIDTH 8 0
BBX 8 10 0 0
BITMAP
E00F
B82D
2C38
1DB0
0BE0
07D0
0380
0380
0380
0380
ENDCHAR
STARTCHAR omega1
ENCODING 982
SWIDTH 805 0
DWIDTH 11 0
BBX 11 8 0 0
BITMAP
BFFFFC
7955B4
381474
747838
747838
387874
2DEDB0
0B8BD0
ENDCHAR
STARTCHAR uni0400
ENCODING 1024
SWIDTH 565 0
DWIDTH 8 0
BBX 7 13 1 0
BITMAP
2D00
0A00
0000
FFF4
F554
E000
E000
FFE0
F550
E000
E000
F554
FFF8
ENDCHAR
STARTCHAR uni0401
ENCODING 1025
SWIDTH 565 0
DWIDTH 8 0
BBX 7 13 1 0
BITMAP
1450
34A0
0000
FFF4
F554
E000
E000
FFE0
F550
E000
E000
F554
FFF8
ENDCHAR
STARTCHAR uni0402
ENCODING 1026
SWIDTH 749 0
DWIDTH 10 0
BBX 10 10 0 0
BITMAP
BFFF00
579500
038000
038000
03FF80
03E6E0
0380B0
0380B0
0386E0
038B80
ENDCHAR
STARTCHAR uni0403
ENCODING 1027
SWIDTH 557 0
DWIDTH 8 0
BBX 7 13 1 0
BITMAP
02D0
0740
0000
FFF4
F550
E000
E000
E000
E000
E000
E000
E000
E000
ENDCHAR
STARTCHAR uni0404
ENCODING 1028
SWIDTH 668 0
DWIDTH 9 0
BBX 9 10 0 0
BITMAP
06F800
1E6F00
3C0740
380140
7FF000
795000
780140
3C0740
1E6F00
06F800
ENDCHAR
STARTCHAR uni0405
ENCODING 1029
SWIDTH 603 0
DWIDTH 8 0
BBX 8 10 0 0
BITMAP
0BF4
2E6D
380F
3D00
1F90
01BD
001E
740F
3E6E
0BF8
ENDCHAR
STARTCHAR uni0406
ENCODING 1030
SWIDTH 282 0
DWIDTH 4 0
BBX 2 10 1 0
BITMAP
F0
F0
F0
F0
F0
F0
F0
F0
F0
F0
ENDCHAR
STARTCHAR uni0407
ENCODING 1031
SWIDTH 282 0
DWIDTH 4 0
BBX 6 13 -1 0
BITMAP
2080
71D0
0000
0F00
0F00
0F00
0F00
0F00
0F00
0F00
0F00
0F00
0F00
ENDCHAR
STARTCHAR uni0408
ENCODING 1032
SWIDTH 555 0
DWIDTH 8 0
BBX 7 10 0 0
BITMAP
0038
0038
0038
0038
0038
0038
0038
B038
79B4
1FD0
ENDCHAR
STARTCHAR uni0409
ENCODING 1033
SWIDTH 1066 0
DWIDTH 15 0
BBX 15 10 0 0
BITMAP
0BFFC000
0B57C000
0B03C000
0B03C000
0B03FF80
0B03D6F0
0E03C074
0E03C074
6D03D5F0
B403FF80
ENDCHAR
STARTCHAR uni040A
ENCODING 1034
SWIDTH 1069 0
DWIDTH 15 0
BBX 14 10 1 0
BITMAP
E00F0000
E00F0000
E00F0000
E00F0000
FFFFFE40
F55F57C0
E00F01D0
E00F01D0
E00F5BC0
E00FFE00
ENDCHAR
STARTCHAR uni040B
ENCODING 1035
SWIDTH 794 0
DWIDTH 11 0
BBX 10 10 0 0
BITMAP
BFFF00
579500
038000
038000
03FF80
0396E0
0380B0
0380B0
0380B0
0380B0
ENDCHAR
STARTCHAR uni040C
ENCODING 1036
SWIDTH 630 0
DWIDTH 9 0
BBX 8 13 1 0
BITMAP
02C0
0700
0000
E02D
E0B4
E1E0
E780
FF40
FF80
F6D0
E0F4
E078
E01E
ENDCHAR
STARTCHAR uni040D
ENCODING 1037
SWIDTH 707 0
DWIDTH 10 0
BBX 8 13 1 0
BITMAP
0F00
0340
0000
E01F
E02F
E07F
E0EF
E2CF
E74F
EF0F
FD0F
F80F
F00F
ENDCHAR
STARTCHAR uni040E
ENCODING 1038
SWIDTH 629 0
DWIDTH 9 0
BBX 9 13 0 0
BITMAP
0A2800
02E000
000000
780B40
3C0F00
1D1D00
0F2C00
077800
03F400
02E000
01D000
07C000
1E4000
ENDCHAR
STARTCHAR uni040F
ENCODING 1039
SWIDTH 708 0
DWIDTH 10 0
BBX 8 12 1 -2
BITMAP
E00F
E00F
E00F
E00F
E00F
E00F
E00F
E00F
F55F
FFFF
03C0
03C0
ENDCHAR
STARTCHAR uni0410
ENCODING 1040
SWIDTH 665 0
DWIDTH 9 0
BBX 9 10 0 0
BITMAP
01E000
02F000
03B400
073800
0A1C00
1D0E00
2FFF00
395B40
740380
B002C0
ENDCHAR
STARTCHAR uni0411
ENCODING 1041
SWIDTH 628 0
DWIDTH 9 0
BBX 8 10 1 0
BITMAP
FFF4
E550
E000
E000
FFE0
E5BC
E02D
E02D
E5B8
FFE0
ENDCHAR
STARTCHAR uni0412
ENCODING 1042
SWIDTH 630 0
DWIDTH 9 0
BBX 7 10 1 0
BITMAP
FFE0
F5B8
E038
E078
FFE0
E578
E02C
E02C
F5B8
FFE0
ENDCHAR
STARTCHAR uni0413
ENCODING 1043
SWIDTH 557 0
DWIDTH 8 0
BBX 7 10 1 0
BITMAP
FFF4
F550
E000
E000
E000
E000
E000
E000
E000
E000
ENDCHAR
STARTCHAR uni0414
ENCODING 1044
SWIDTH 752 0
DWIDTH 11 0
BBX 11 12 0 -2
BITMAP
07FFC0
0797C0
0742C0
0742C0
0B42C0
0B02C0
0F02C0
1E02C0
6D57D0
BFFFF4
B00074
B00074
ENDCHAR
STARTCHAR uni0415
ENCODING 1045
SWIDTH 565 0
DWIDTH 8 0
BBX 7 10 1 0
BITMAP
FFF4
F554
E000
E000
FFE0
F550
E000
E000
F554
FFF8
ENDCHAR
STARTCHAR uni0416
ENCODING 1046
SWIDTH 954 0
DWIDTH 13 0
BBX 13 10 0 0
BITMAP
780E0780
2D0E0F00
0F0E1D00
078E3800
02FFF400
07AEB800
0B4E2D00
1E0E1F00
3C0E0B40
B80E03C0
ENDCHAR
STARTCHAR uni0417
ENCODING 1047
SWIDTH 604 0
DWIDTH 8 0
BBX 8 10 0 0
BITMAP
1BE4
3D6D
640E
001D
03F8
016D
000E
740E
3D6D
1BE4
ENDCHAR
STARTCHAR uni0418
ENCODING 1048
SWIDTH 707 0
DWIDTH 10 0
BBX 8 10 1 0
BITMAP
E01F
E02F
E07F
E0EF
E2CF
E74F
EF0F
FD0F
F80F
F00F
ENDCHAR
STARTCHAR uni0419
ENCODING 1049
SWIDTH 707 0
DWIDTH 10 0
BBX 8 13 1 0
BITMAP
0D70
07D0
0000
E01F
E02F
E07F
E0EF
E2CF
E74F
EF0F
FD0F
F80F
F00F
ENDCHAR
STARTCHAR uni041A
ENCODING 1050
SWIDTH 644 0
DWIDTH 9 0
BBX 8 10 1 0
BITMAP
E02D
E078
E1F0
E3D0
FF80
FBC0
E1E0
E0B4
E03C
E01E
ENDCHAR
STARTCHAR uni041B
ENCODING 1051
SWIDTH 707 0
DWIDTH 10 0
BBX 9 10 0 0
BITMAP
0BFFC0
0B57C0
0B03C0
0B03C0
0B03C0
0B03C0
0E03C0
0E03C0
6D03C0
B403C0
ENDCHAR
STARTCHAR uni041C
ENCODING 1052
SWIDTH 875 0
DWIDTH 12 0
BBX 11 10 1 0
BITMAP
F401F4
F802F4
FD03F4
EE07B4
EB0A74
E74D74
E39C74
E1F8B4
E0F4B4
E0B0B4
ENDCHAR
STARTCHAR uni041D
ENCODING 1053
SWIDTH 710 0
DWIDTH 10 0
BBX 8 10 1 0
BITMAP
E00B
E00B
E00B
E00B
FFFF
F55F
E00B
E00B
E00B
E00B
ENDCHAR
STARTCHAR uni041E
ENCODING 1054
SWIDTH 690 0
DWIDTH 10 0
BBX 9 10 0 0
BITMAP
06F800
1FAF00
3C0780
380380
7402C0
7402C0
380380
3C0780
1F6F00
06F800
ENDCHAR
STARTCHAR uni041F
ENCODING 1055
SWIDTH 711 0
DWIDTH 10 0
BBX 8 10 1 0
BITMAP
FFFF
F55F
E00B
E00B
E00B
E00B
E00B
E00B
E00B
E00B
ENDCHAR
STARTCHAR uni0420
ENCODING 1056
SWIDTH 639 0
DWIDTH 9 0
BBX 8 10 1 0
BITMAP
FFE0
F5BC
E01D
E01D
E02D
FFF4
F540
E000
E000
E000
ENDCHAR
STARTCHAR uni0421
ENCODING 1057
SWIDTH 652 0
DWIDTH 9 0
BBX 9 10 0 0
BITMAP
06F800
1E6F00
3C0740
780140
740000
740000
780140
3C0740
1E6F00
06F800
ENDCHAR
STARTCHAR uni0422
ENCODING 1058
SWIDTH 606 0
DWIDTH 9 0
BBX 9 10 0 0
BITMAP
BFFF40
56D500
02C000
02C000
02C000
02C000
02C000
02C000
02C000
02C000
ENDCHAR
STARTCHAR uni0423
ENCODING 1059
SWIDTH 629 0
DWIDTH 9 0
BBX 9 10 0 0
BITMAP
780B40
3C0F00
1D1D00
0F2C00
077800
03F400
02E000
01D000
07C000
1E4000
ENDCHAR
STARTCHAR uni0424
ENCODING 1060
SWIDTH 796 0
DWIDTH 11 0
BBX 11 10 0 0
BITMAP
007400
07FF80
2EBAF0
787474
747438
747438
3D74B4
1FFFD0
01B900
007400
ENDCHAR
STARTCHAR uni0425
ENCODING 1061
SWIDTH 632 0
DWIDTH 9 0
BBX 9 10 0 0
BITMAP
780B40
2D1E00
0E3C00
0BB400
03E000
03E000
0BB400
1E3C00
2D1E00
780B40
ENDCHAR
STARTCHAR uni0426
ENCODING 1062
SWIDTH 746 0
DWIDTH 10 0
BBX 9 12 1 -2
BITMAP
E00F00
E00F00
E00F00
E00F00
E00F00
E00F00
E00F00
E00F00
F55F40
FFFFC0
0002C0
0002C0
ENDCHAR
STARTCHAR uni0427
ENCODING 1063
SWIDTH 691 0
DWIDTH 10 0
BBX 8 10 1 0
BITMAP
E00E
E00E
E00E
E00E
B41E
7FFE
055E
000E
000E
000E
ENDCHAR
STARTCHAR uni0428
ENCODING 1064
SWIDTH 950 0
DWIDTH 13 0
BBX 12 10 1 0
BITMAP
E0781D
E0781D
E0781D
E0781D
E0781D
E0781D
E0781D
E0781D
F5796D
FFFFFD
ENDCHAR
STARTCHAR uni0429
ENCODING 1065
SWIDTH 996 0
DWIDTH 14 0
BBX 13 12 1 -2
BITMAP
E0781D00
E0781D00
E0781D00
E0781D00
E0781D00
E0781D00
E0781D00
E0781D00
F5796D00
FFFFFF40
00000740
00000740
ENDCHAR
STARTCHAR uni042A
ENCODING 1066
SWIDTH 762 0
DWIDTH 11 0
BBX 10 10 0 0
BITMAP
BF8000
578000
038000
038000
03FF80
0396E0
0380B0
0380B0
0396E0
03FF80
ENDCHAR
STARTCHAR uni042B
ENCODING 1067
SWIDTH 871 0
DWIDTH 12 0
BBX 10 10 1 0
BITMAP
E000B0
E000B0
E000B0
E000B0
FFE0B0
F5BCB0
E01DB0
E01DB0
F5BCB0
FFE0B0
ENDCHAR
STARTCHAR uni042C
ENCODING 1068
SWIDTH 628 0
DWIDTH 9 0
BBX 8 10 1 0
BITMAP
E000
E000
E000
E000
FFE0
E5BC
E02D
E02D
E5B8
FFE0
ENDCHAR
STARTCHAR uni042D
ENCODING 1069
SWIDTH 664 0
DWIDTH 9 0
BBX 8 10 1 0
BITMAP
1FE0
B9B8
E02D
001E
0BFE
055E
901E
E02D
B9B8
1BE0
ENDCHAR
STARTCHAR uni042E
ENCODING 1070
SWIDTH 916 0
DWIDTH 13 0
BBX 12 10 1 0
BITMAP
E02F90
E0FAF4
E2D03C
E3C02C
FF801D
F7801D
E2C02C
E1D03C
E0B9F4
E02F90
ENDCHAR
STARTCHAR uni042F
ENCODING 1071
SWIDTH 620 0
DWIDTH 9 0
BBX 8 10 0 0
BITMAP
0BFE
2E5E
780E
740E
3D0E
1FFE
0F5E
1D0E
3C0E
B40E
ENDCHAR
STARTCHAR uni0430
ENCODING 1072
SWIDTH 541 0
DWIDTH 8 0
BBX 7 8 0 0
BITMAP
1BE0
39B4
1038
1BF8
3838
7438
79B8
1FBC
ENDCHAR
STARTCHAR uni0431
ENCODING 1073
SWIDTH 561 0
DWIDTH 8 0
BBX 8 11 0 0
BITMAP
0028
06F4
1E40
3800
36E0
7D7C
741D
741D
341D
2D78
0BE0
ENDCHAR
STARTCHAR uni0432
ENCODING 1074
SWIDTH 569 0
DWIDTH 8 0
BBX 7 8 1 0
BITMAP
FF80
E5E0
E0B0
E0B0
FFD0
E5B4
E5B4
FFE0
ENDCHAR
STARTCHAR uni0433
ENCODING 1075
SWIDTH 418 0
DWIDTH 6 0
BBX 5 8 1 0
BITMAP
FF80
E540
E000
E000
E000
E000
E000
E000
ENDCHAR
STARTCHAR uni0434
ENCODING 1076
SWIDTH 620 0
DWIDTH 9 0
BBX 9 10 0 -2
BITMAP
0BFD00
0F6D00
0E1D00
0E1D00
0E1D00
1D1D00
7D6E00
BFFF40
B00740
B00740
ENDCHAR
STARTCHAR uni0435
ENCODING 1077
SWIDTH 536 0
DWIDTH 8 0
BBX 7 8 0 0
BITMAP
0BE0
2D78
742C
7FFC
7554
7800
2E68
0BE0
ENDCHAR
STARTCHAR uni0436
ENCODING 1078
SWIDTH 807 0
DWIDTH 11 0
BBX 11 8 0 0
BITMAP
787478
2D74F0
0E75D0
0BFF80
0BBAC0
1D75E0
3C74B4
B47478
ENDCHAR
STARTCHAR uni0437
ENCODING 1079
SWIDTH 510 0
DWIDTH 7 0
BBX 7 8 0 0
BITMAP
1BD0
39B4
6474
0074
0BE0
0174
79B4
1FE0
ENDCHAR
STARTCHAR uni0438
ENCODING 1080
SWIDTH 574 0
DWIDTH 8 0
BBX 6 8 1 0
BITMAP
E0B0
E1F0
E3F0
E7B0
EDB0
FCB0
F4B0
F0B0
ENDCHAR
STARTCHAR uni0439
ENCODING 1081
SWIDTH 574 0
DWIDTH 8 0
BBX 6 11 1 0
BITMAP
35C0
1F40
0000
E0B0
E1F0
E3F0
E7B0
EDB0
FCB0
F4B0
F0B0
ENDCHAR
STARTCHAR uni043A
ENCODING 1082
SWIDTH 553 0
DWIDTH 8 0
BBX 7 8 1 0
BITMAP
E0F4
E1E0
E3C0
EB40
FF00
E780
E2E0
E0B4
ENDCHAR
STARTCHAR uni043B
ENCODING 1083
SWIDTH 575 0
DWIDTH 8 0
BBX 7 8 0 0
BITMAP
1FFC
1E6C
1D2C
1D2C
1D2C
2C2C
782C
A42C
ENDCHAR
STARTCHAR uni043C
ENCODING 1084
SWIDTH 751 0
DWIDTH 11 0
BBX 9 8 1 0
BITMAP
F40B80
F80F80
FC2F80
ED3B80
EA7780
E7A380
E3D380
E2C380
ENDCHAR
STARTCHAR uni043D
ENCODING 1085
SWIDTH 573 0
DWIDTH 8 0
BBX 6 8 1 0
BITMAP
E0B0
E0B0
E0B0
FFF0
E5B0
E0B0
E0B0
E0B0
ENDCHAR
STARTCHAR uni043E
ENCODING 1086
SWIDTH 569 0
DWIDTH 8 0
BBX 8 8 0 0
BITMAP
0BE0
2D78
742D
741D
741D
742D
2D78
0BE0
ENDCHAR
STARTCHAR uni043F
ENCODING 1087
SWIDTH 574 0
DWIDTH 8 0
BBX 6 8 1 0
BITMAP
FFF0
E5B0
E0B0
E0B0
E0B0
E0B0
E0B0
E0B0
ENDCHAR
STARTCHAR uni0440
ENCODING 1088
SWIDTH 562 0
DWIDTH 8 0
BBX 7 11 1 -3
BITMAP
EB80
F6E0
E0B0
E074
E074
E0B0
F5E0
EB80
E000
E000
E000
ENDCHAR
STARTCHAR uni0441
ENCODING 1089
SWIDTH 523 0
DWIDTH 7 0
BBX 7 8 0 0
BITMAP
0BE0
2DB8
7428
7400
7400
7428
2DB8
0BE0
ENDCHAR
STARTCHAR uni0442
ENCODING 1090
SWIDTH 494 0
DWIDTH 7 0
BBX 7 8 0 0
BITMAP
BFF8
5B54
0740
0740
0740
0740
0740
0740
ENDCHAR
STARTCHAR uni0443
ENCODING 1091
SWIDTH 486 0
DWIDTH 7 0
BBX 7 11 0 -3
BITMAP
B078
7474
38B0
2CE0
1ED0
0FC0
0B80
0740
0B00
1E00
7800
ENDCHAR
STARTCHAR uni0444
ENCODING 1092
SWIDTH 728 0
DWIDTH 10 0
BBX 10 14 0 -3
BITMAP
00B000
00B000
00B000
1FFF40
3DF7C0
74B1D0
74B0E0
74B0E0
74B1D0
3DF6C0
1BFF40
00B000
00B000
00B000
ENDCHAR
STARTCHAR uni0445
ENCODING 1093
SWIDTH 502 0
DWIDTH 7 0
BBX 7 8 0 0
BITMAP
7474
3CF0
1ED0
0B80
0B80
1ED0
3CB0
7478
ENDCHAR
STARTCHAR uni0446
ENCODING 1094
SWIDTH 603 0
DWIDTH 8 0
BBX 7 10 1 -2
BITMAP
E0B0
E0B0
E0B0
E0B0
E0B0
E0B0
E5B4
FFFC
002C
002C
ENDCHAR
STARTCHAR uni0447
ENCODING 1095
SWIDTH 549 0
DWIDTH 8 0
BBX 7 8 0 0
BITMAP
7438
7438
7438
3838
2FF8
0178
0038
0038
ENDCHAR
STARTCHAR uni0448
ENCODING 1096
SWIDTH 819 0
DWIDTH 11 0
BBX 10 8 1 0
BITMAP
E0E0E0
E0E0E0
E0E0E0
E0E0E0
E0E0E0
E0E0E0
E5E5E0
FFFFE0
ENDCHAR
STARTCHAR uni0449
ENCODING 1097
SWIDTH 865 0
DWIDTH 12 0
BBX 11 10 1 -2
BITMAP
E1E1D0
E1E1D0
E1E1D0
E1E1D0
E1E1D0
E1E1D0
E5E5E4
FFFFF8
000038
000038
ENDCHAR
STARTCHAR uni044A
ENCODING 1098
SWIDTH 636 0
DWIDTH 9 0
BBX 9 8 0 0
BITMAP
BF0000
5B0000
0B0000
0BFD00
0B5B40
0B0380
0B5B40
0BFD00
ENDCHAR
STARTCHAR uni044B
ENCODING 1099
SWIDTH 804 0
DWIDTH 11 0
BBX 9 8 1 0
BITMAP
E002C0
E002C0
E002C0
FF92C0
E5F2C0
E076C0
E5F2C0
FF92C0
ENDCHAR
STARTCHAR uni044C
ENCODING 1100
SWIDTH 550 0
DWIDTH 8 0
BBX 7 8 1 0
BITMAP
E000
E000
E000
FF90
E5F0
E074
E5F0
FF90
ENDCHAR
STARTCHAR uni044D
ENCODING 1101
SWIDTH 529 0
DWIDTH 7 0
BBX 7 8 0 0
BITMAP
1BD0
39B0
7478
0038
07F8
5078
79B4
1F90
ENDCHAR
STARTCHAR uni044E
ENCODING 1102
SWIDTH 814 0
DWIDTH 11 0
BBX 10 8 1 0
BITMAP
E06E40
E0E6D0
E2C0E0
E380B0
FF80F0
E7C0E0
E2E6D0
E07E40
ENDCHAR
STARTCHAR uni044F
ENCODING 1103
SWIDTH 554 0
DWIDTH 8 0
BBX 7 8 0 0
BITMAP
1BF8
3978
7438
7838
2FF8
1D78
3838
7438
ENDCHAR
STARTCHAR uni0450
ENCODING 1104
SWIDTH 536 0
DWIDTH 8 0
BBX 7 11 0 0
BITMAP
1E00
0740
0000
0BE0
2D78
742C
7FFC
7554
7800
2E68
0BE0
ENDCHAR
STARTCHAR uni0451
ENCODING 1105
SWIDTH 536 0
DWIDTH 8 0
BBX 7 11 0 0
BITMAP
1420
1C70
0000
0BE0
2D78
742C
7FFC
7554
7800
2E68
0BE0
ENDCHAR
STARTCHAR uni0452
ENCODING 1106
SWIDTH 555 0
DWIDTH 8 0
BBX 8 14 -1 -3
BITMAP
1D00
7FD0
1E40
1EB8
1F5E
1E0B
1D0B
1D0B
1D0B
1D0B
1D0B
000B
001E
0078
ENDCHAR
STARTCHAR uni0453
ENCODING 1107
SWIDTH 418 0
DWIDTH 6 0
BBX 5 11 1 0
BITMAP
0E00
1800
0000
FF80
E540
E000
E000
E000
E000
E000
E000
ENDCHAR
STARTCHAR uni0454
ENCODING 1108
SWIDTH 529 0
DWIDTH 7 0
BBX 7 8 0 0
BITMAP
0BE0
2D78
7414
7F80
7400
782C
2DB4
0BE0
ENDCHAR
STARTCHAR uni0455
ENCODING 1109
SWIDTH 516 0
DWIDTH 7 0
BBX 7 8 0 0
BITMAP
1BD0
39B4
7414
2E40
06F4
6038
79B4
1BD0
ENDCHAR
STARTCHAR uni0456
ENCODING 1110
SWIDTH 255 0
DWIDTH 4 0
BBX 2 11 1 0
BITMAP
90
E0
00
E0
E0
E0
E0
E0
E0
E0
E0
ENDCHAR
STARTCHAR uni0457
ENCODING 1111
SWIDTH 262 0
DWIDTH 4 0
BBX 5 11 -1 0
BITMAP
5080
71C0
0000
0E00
0E00
0E00
0E00
0E00
0E00
0E00
0E00
ENDCHAR
STARTCHAR uni0458
ENCODING 1112
SWIDTH 250 0
DWIDTH 4 0
BBX 4 14 -1 -3
BITMAP
09
0D
00
0E
0E
0E
0E
0E
0E
0E
0E
0E
6D
78
ENDCHAR
STARTCHAR uni0459
ENCODING 1113
SWIDTH 852 0
DWIDTH 12 0
BBX 12 8 0 0
BITMAP
1FFC00
1E6C00
1D2C00
1D2FF4
1D2D6D
2C2C0D
782D6D
A42FF4
ENDCHAR
STARTCHAR uni045A
ENCODING 1114
SWIDTH 861 0
DWIDTH 12 0
BBX 11 8 1 0
BITMAP
E0B000
E0B000
E0B000
FFFFE0
E5B5B4
E0B038
E0B5B4
E0BFE0
ENDCHAR
STARTCHAR uni045B
ENCODING 1115
SWIDTH 566 0
DWIDTH 8 0
BBX 7 11 0 0
BITMAP
7400
FF40
7800
7AE0
7D78
782C
742C
742C
742C
742C
742C
ENDCHAR
STARTCHAR uni045C
ENCODING 1116
SWIDTH 553 0
DWIDTH 8 0
BBX 7 11 1 0
BITMAP
0780
0A00
0000
E0F4
E1E0
E3C0
EB40
FF00
E780
E2E0
E0B4
ENDCHAR
STARTCHAR uni045D
ENCODING 1117
SWIDTH 574 0
DWIDTH 8 0
BBX 6 11 1 0
BITMAP
2C00
0900
0000
E0B0
E1F0
E3F0
E7B0
EDB0
FCB0
F4B0
F0B0
ENDCHAR
STARTCHAR uni045E
ENCODING 1118
SWIDTH 486 0
DWIDTH 7 0
BBX 7 14 0 -3
BITMAP
28A0
0B80
0000
B078
7474
38B0
2CE0
1ED0
0FC0
0B80
0740
0B00
1E00
7800
ENDCHAR
STARTCHAR uni045F
ENCODING 1119
SWIDTH 574 0
DWIDTH 8 0
BBX 6 10 1 -2
BITMAP
E0B0
E0B0
E0B0
E0B0
E0B0
E0B0
E5B0
FFF0
0B00
0B00
ENDCHAR
STARTCHAR uni0460
ENCODING 1120
SWIDTH 910 0
DWIDTH 13 0
BBX 11 10 1 0
BITMAP
E0B438
E0B438
E0B438
E0B438
E0B438
E0B438
E0B438
E0B438
B9FDB4
2F9BD0
ENDCHAR
STARTCHAR uni0461
ENCODING 1121
SWIDTH 788 0
DWIDTH 11 0
BBX 11 8 0 0
BITMAP
747474
747474
747474
747474
747474
347474
3DBDB0
1B9B90
ENDCHAR
STARTCHAR uni0462
ENCODING 1122
SWIDTH 628 0
DWIDTH 9 0
BBX 10 10 -1 0
BITMAP
0E0000
7FD000
1E0000
0E0000
0FFE00
0E5BC0
0E02D0
0E02D0
0E5B80
0FFE00
ENDCHAR
STARTCHAR uni0463
ENCODING 1123
SWIDTH 550 0
DWIDTH 8 0
BBX 9 11 -1 0
BITMAP
0E0000
0E0000
7FE000
1E4000
0E0000
0E0000
0FF900
0E5F00
0E0740
0E5F00
0FF900
ENDCHAR
STARTCHAR uni0464
ENCODING 1124
SWIDTH 894 0
DWIDTH 13 0
BBX 11 10 1 0
BITMAP
E06F90
E0F9B4
E2D038
E38014
FFFF00
F7D500
E3C014
E2D038
E0F5F4
E02F90
ENDCHAR
STARTCHAR uni0465
ENCODING 1125
SWIDTH 750 0
DWIDTH 11 0
BBX 9 8 1 0
BITMAP
E0BE00
E2DB40
E382C0
E74140
FFFC00
E79140
E3D780
E0BE00
ENDCHAR
STARTCHAR uni0466
ENCODING 1126
SWIDTH 630 0
DWIDTH 9 0
BBX 9 10 0 0
BITMAP
01E000
02F000
03F400
0B7800
0F2C00
1E1D00
2FFE00
3DDB00
79D740
B1D380
ENDCHAR
STARTCHAR uni0467
ENCODING 1127
SWIDTH 546 0
DWIDTH 8 0
BBX 8 8 0 0
BITMAP
0780
0BC0
0ED0
1DE0
2CB4
3FF8
77AC
B35D
ENDCHAR
STARTCHAR uni0468
ENCODING 1128
SWIDTH 907 0
DWIDTH 13 0
BBX 12 10 1 0
BITMAP
B00B40
B00F80
B01FC0
B02DD0
B038E0
B074B0
BFFFF4
B5EB78
B2DB2C
B3CB1D
ENDCHAR
STARTCHAR uni0469
ENCODING 1129
SWIDTH 776 0
DWIDTH 11 0
BBX 10 8 1 0
BITMAP
E03C00
E07D00
E0BE00
E0EB00
E1D740
FFFF80
E7AAC0
EB29D0
ENDCHAR
STARTCHAR uni046A
ENCODING 1130
SWIDTH 865 0
DWIDTH 12 0
BBX 11 10 1 0
BITMAP
2FFFC0
1F5B40
0B0E00
039D00
2FFF80
B9F6E0
E0B0B0
E0B074
E0B074
E0B074
ENDCHAR
STARTCHAR uni046B
ENCODING 1131
SWIDTH 737 0
DWIDTH 10 0
BBX 9 8 1 0
BITMAP
3FFD00
2D7C00
0E7400
0BF000
2FFD00
B6DB00
E2C740
E2C740
ENDCHAR
STARTCHAR uni046C
ENCODING 1132
SWIDTH 1149 0
DWIDTH 16 0
BBX 15 10 1 0
BITMAP
F02FFFC0
F01E5B40
F00B0E00
F0039C00
FFFFFF80
F5F9F6E0
F0E0B0B0
F0E0B0B4
F0E0B0B4
F0E0B0B4
ENDCHAR
STARTCHAR uni046D
ENCODING 1133
SWIDTH 996 0
DWIDTH 14 0
BBX 12 8 1 0
BITMAP
E07FFC
E02D74
E00DA0
FFFFF8
E5E79E
E1D38B
E1D38B
E1D38B
ENDCHAR
STARTCHAR uni046E
ENCODING 1134
SWIDTH 515 0
DWIDTH 7 0
BBX 7 16 0 -3
BITMAP
1DE0
0780
0000
3F80
15F0
00B0
00B0
1FC0
05E0
0074
0074
05F0
7F90
B000
7400
2800
ENDCHAR
STARTCHAR uni046F
ENCODING 1135
SWIDTH 492 0
DWIDTH 7 0
BBX 6 14 0 -3
BITMAP
29D0
0B40
0000
3F80
15E0
00B0
01E0
1FD0
01B0
05B0
7F90
B000
7400
2800
ENDCHAR
STARTCHAR uni0470
ENCODING 1136
SWIDTH 708 0
DWIDTH 10 0
BBX 10 10 0 0
BITMAP
B4E1D0
B4E1D0
B4E1D0
B4E1D0
74E2D0
3DE780
1FFE00
01F400
00E000
00E000
ENDCHAR
STARTCHAR uni0471
ENCODING 1137
SWIDTH 723 0
DWIDTH 10 0
BBX 10 11 0 -3
BITMAP
74E2C0
74E1D0
74E1D0
74E0E0
74E0D0
38E2D0
2EFB80
06FE00
00E000
00E000
00E000
ENDCHAR
STARTCHAR uni0472
ENCODING 1138
SWIDTH 684 0
DWIDTH 10 0
BBX 9 10 0 0
BITMAP
06F800
1E6F00
380740
740380
7FFFC0
7803C0
780380
3C0740
1F6F00
06F800
ENDCHAR
STARTCHAR uni0473
ENCODING 1139
SWIDTH 566 0
DWIDTH 8 0
BBX 8 8 0 0
BITMAP
0BE0
2DB8
782D
741D
7FFD
756D
2D78
0BE0
ENDCHAR
STARTCHAR uni0474
ENCODING 1140
SWIDTH 637 0
DWIDTH 9 0
BBX 9 10 0 0
BITMAP
B00280
740B40
380E00
2C1D00
1D2C00
0E3800
0B7400
07B000
03E000
02D000
ENDCHAR
STARTCHAR uni0475
ENCODING 1141
SWIDTH 506 0
DWIDTH 7 0
BBX 7 8 0 0
BITMAP
B02C
7478
38B0
28E0
1DD0
0EC0
0B80
0740
ENDCHAR
STARTCHAR uni0476
ENCODING 1142
SWIDTH 637 0
DWIDTH 9 0
BBX 9 13 0 0
BITMAP
2AD000
0AA000
000000
B00280
740B40
380E00
2C1D00
1D2C00
0E3800
0B7400
07B000
03E000
02D000
ENDCHAR
STARTCHAR uni0477
ENCODING 1143
SWIDTH 506 0
DWIDTH 7 0
BBX 7 11 0 0
BITMAP
B780
29C0
0000
B02C
7478
38B0
28E0
1DD0
0EC0
0B80
0740
ENDCHAR
STARTCHAR uni0478
ENCODING 1144
SWIDTH 1177 0
DWIDTH 16 0
BBX 17 13 0 -3
BITMAP
06F8000000
1FAF000000
3C078E0B40
38038B0B00
7402C74E00
7402C39D00
380382EC00
3C0781F800
1F6F00F400
06F800B000
000000E000
000006D000
00000B4000
ENDCHAR
STARTCHAR uni0479
ENCODING 1145
SWIDTH 1056 0
DWIDTH 15 0
BBX 15 11 0 -3
BITMAP
0BE0B078
2D7874B4
742D38B0
741D2CE0
741D1ED0
742D0FC0
2D780B80
0BE00740
00000B00
00001E00
00007800
ENDCHAR
STARTCHAR uni047A
ENCODING 1146
SWIDTH 684 0
DWIDTH 10 0
BBX 9 12 0 -1
BITMAP
009000
07F800
1EEF00
3C0740
780380
7403C0
7403C0
780380
3C0740
1EEF00
07F800
009000
ENDCHAR
STARTCHAR uni047B
ENCODING 1147
SWIDTH 566 0
DWIDTH 8 0
BBX 8 10 0 -1
BITMAP
0140
0BE0
2FB8
741D
741D
741D
741D
2FB8
0BE0
0140
ENDCHAR
STARTCHAR uni047C
ENCODING 1148
SWIDTH 908 0
DWIDTH 13 0
BBX 11 13 1 0
BITMAP
01F400
025B40
003000
2C61D0
B800B4
E00038
E00038
E06038
E0B438
E0B438
E0B438
B9FDB4
2F9BD0
ENDCHAR
STARTCHAR uni047D
ENCODING 1149
SWIDTH 783 0
DWIDTH 11 0
BBX 11 11 0 0
BITMAP
00F800
018780
002400
0A2280
2D01E0
3800B0
741074
747474
3874B0
3DF9E0
1B9B80
ENDCHAR
STARTCHAR uni047E
ENCODING 1150
SWIDTH 910 0
DWIDTH 13 0
BBX 11 13 1 0
BITMAP
0BFF40
007000
000000
E0B438
E0B438
E0B438
E0B438
E0B438
E0B438
E0B438
E0B438
B9FDB4
2F9BD0
ENDCHAR
STARTCHAR uni047F
ENCODING 1151
SWIDTH 788 0
DWIDTH 11 0
BBX 11 11 0 0
BITMAP
07FF40
003000
000000
747474
747474
747474
747474
747474
347474
3DBDB0
1B9B90
ENDCHAR
STARTCHAR uni0480
ENCODING 1152
SWIDTH 637 0
DWIDTH 9 0
BBX 8 12 0 -2
BITMAP
07F8
1E6E
380B
7805
7400
7400
7400
3800
1E50
07E0
00E0
00E0
ENDCHAR
STARTCHAR uni0481
ENCODING 1153
SWIDTH 536 0
DWIDTH 8 0
BBX 7 10 0 -2
BITMAP
0BE0
2DB8
3828
7400
7400
7800
2D40
0BC0
02C0
02C0
ENDCHAR
STARTCHAR uni0482
ENCODING 1154
SWIDTH 624 0
DWIDTH 9 0
BBX 7 9 1 0
BITMAP
0034
0960
07D0
02B4
4704
BD00
2E40
3580
A000
ENDCHAR
STARTCHAR uni0483
ENCODING 1155
SWIDTH 0 0
DWIDTH 0 0
BBX 6 3 -7 8
BITMAP
0050
7FE0
6000
ENDCHAR
STARTCHAR uni0484
ENCODING 1156
SWIDTH 0 0
DWIDTH 0 0
BBX 6 2 -7 9
BITMAP
06E0
7930
ENDCHAR
STARTCHAR uni0485
ENCODING 1157
SWIDTH 0 0
DWIDTH 0 0
BBX 2 2 -5 9
BITMAP
70
20
ENDCHAR
STARTCHAR uni0486
ENCODING 1158
SWIDTH 0 0
DWIDTH 0 0
BBX 2 2 -4 9
BITMAP
A0
80
ENDCHAR
STARTCHAR uni0488
ENCODING 1160
SWIDTH 0 0
DWIDTH 0 0
BBX 13 13 -10 -3
BITMAP
002D0000
00210000
2D002D00
22002100
00000000
B4000780
54000880
00000000
00000000
2D002D00
21002500
002D0000
00210000
ENDCHAR
STARTCHAR uni0489
ENCODING 1161
SWIDTH 0 0
DWIDTH 0 0
BBX 13 13 -10 -3
BITMAP
00080000
08080000
09041800
01002000
00000000
00000000
A4000A40
14000140
00000000
06001000
19042400
00080800
00140000
ENDCHAR
STARTCHAR uni048A
ENCODING 1162
SWIDTH 770 0
DWIDTH 11 0
BBX 10 15 1 -2
BITMAP
0D7000
0BD000
000000
E01F00
E02F00
E07F00
E0EF00
E2CF00
E74F00
EF0F00
FD0F00
F80F80
F00FD0
0001C0
000280
ENDCHAR
STARTCHAR uni048B
ENCODING 1163
SWIDTH 638 0
DWIDTH 9 0
BBX 8 13 1 -2
BITMAP
35C0
1F40
0000
E0B0
E1F0
E3F0
E7B0
EDB0
FCB0
F4B9
F0BE
000D
0018
ENDCHAR
STARTCHAR uni048C
ENCODING 1164
SWIDTH 628 0
DWIDTH 9 0
BBX 10 10 -1 0
BITMAP
0E0000
7FD000
1E0000
0E0000
0FFE00
0E5BC0
0E02D0
0E02D0
0E5B80
0FFE00
ENDCHAR
STARTCHAR uni048D
ENCODING 1165
SWIDTH 550 0
DWIDTH 8 0
BBX 9 12 -1 0
BITMAP
040000
0E0000
7FE000
1E4000
0E0000
0E0000
0E0000
0FF900
0E5F00
0E0740
0E5F00
0FF900
ENDCHAR
STARTCHAR uni048E
ENCODING 1166
SWIDTH 634 0
DWIDTH 9 0
BBX 8 10 1 0
BITMAP
FFE0
F5BC
E01D
E05D
E0BD
FFFC
F549
E000
E000
E000
ENDCHAR
STARTCHAR uni048F
ENCODING 1167
SWIDTH 565 0
DWIDTH 8 0
BBX 7 11 1 -3
BITMAP
EB80
F6E0
E0B0
E074
E074
E2F0
F6E0
EBB0
E010
E000
E000
ENDCHAR
STARTCHAR uni0490
ENCODING 1168
SWIDTH 551 0
DWIDTH 8 0
BBX 7 12 1 0
BITMAP
0074
0074
FFF4
E550
E000
E000
E000
E000
E000
E000
E000
E000
ENDCHAR
STARTCHAR uni0491
ENCODING 1169
SWIDTH 453 0
DWIDTH 6 0
BBX 5 10 1 0
BITMAP
02C0
02C0
FFC0
E540
E000
E000
E000
E000
E000
E000
ENDCHAR
STARTCHAR uni0492
ENCODING 1170
SWIDTH 557 0
DWIDTH 8 0
BBX 8 10 0 0
BITMAP
3FFD
3D54
3800
3800
FF40
3800
3800
3800
3800
3800
ENDCHAR
STARTCHAR uni0493
ENCODING 1171
SWIDTH 418 0
DWIDTH 6 0
BBX 7 8 -1 0
BITMAP
0FF8
0E54
0E00
7FD0
1E00
0E00
0E00
0E00
ENDCHAR
STARTCHAR uni0494
ENCODING 1172
SWIDTH 618 0
DWIDTH 9 0
BBX 7 12 1 -2
BITMAP
FFF4
F550
E000
E000
FF90
F5F4
E038
E02C
E02C
E02C
00B4
01D0
ENDCHAR
STARTCHAR uni0495
ENCODING 1173
SWIDTH 515 0
DWIDTH 7 0
BBX 6 10 1 -2
BITMAP
FF80
E540
E000
FE40
E7C0
E0E0
E0E0
E0E0
03C0
0240
ENDCHAR
STARTCHAR uni0496
ENCODING 1174
SWIDTH 1013 0
DWIDTH 14 0
BBX 14 13 0 -3
BITMAP
780E0780
2D0E0F00
0F0E1D00
078E3800
02FFF400
07AEB800
0B4E2D00
1E0E1F00
3C0E0B40
B80E03F0
000000B0
000000B0
000000B0
ENDCHAR
STARTCHAR uni0497
ENCODING 1175
SWIDTH 853 0
DWIDTH 12 0
BBX 12 11 0 -3
BITMAP
787478
2D74F0
0E75D0
0BFF80
0BBAC0
1D75E0
3C74B4
B4747E
00000E
00000E
00000E
ENDCHAR
STARTCHAR uni0498
ENCODING 1176
SWIDTH 604 0
DWIDTH 8 0
BBX 8 14 0 -4
BITMAP
1BE4
3D6D
640E
001D
03F8
016D
000E
740E
3D6D
1BE4
02C0
02C0
02C0
02C0
ENDCHAR
STARTCHAR uni0499
ENCODING 1177
SWIDTH 510 0
DWIDTH 7 0
BBX 7 12 0 -4
BITMAP
1BD0
39B4
6474
0074
0BE0
0174
79B4
1FE0
0740
0740
0740
0740
ENDCHAR
STARTCHAR uni049A
ENCODING 1178
SWIDTH 724 0
DWIDTH 10 0
BBX 9 13 1 -3
BITMAP
E02D00
E07800
E1F000
E3D000
FF8000
FBC000
E1E000
E0B400
E03C00
E01F80
000380
000380
000380
ENDCHAR
STARTCHAR uni049B
ENCODING 1179
SWIDTH 622 0
DWIDTH 9 0
BBX 8 11 1 -3
BITMAP
E0F4
E1E0
E3C0
EB40
FF00
E780
E2E0
E0BD
001D
001D
001D
ENDCHAR
STARTCHAR uni049C
ENCODING 1180
SWIDTH 646 0
DWIDTH 9 0
BBX 8 10 1 0
BITMAP
E01E
E03C
E974
E9E0
FFD0
FEE0
E9B4
E078
E02D
E01F
ENDCHAR
STARTCHAR uni049D
ENCODING 1181
SWIDTH 583 0
DWIDTH 8 0
BBX 7 8 1 0
BITMAP
E078
E4B0
E9E0
FFC0
EED0
E9F0
E0B4
E03C
ENDCHAR
STARTCHAR uni049E
ENCODING 1182
SWIDTH 654 0
DWIDTH 9 0
BBX 10 10 -1 0
BITMAP
0B02E0
7FD780
0B0F00
0B2D00
0BF800
0BBC00
0B1E00
0B0B80
0B03D0
0B01F0
ENDCHAR
STARTCHAR uni049F
ENCODING 1183
SWIDTH 533 0
DWIDTH 7 0
BBX 9 11 -1 0
BITMAP
0E0000
BFC000
0E0000
0E0E00
0E2D00
0E7400
0FF000
0EB400
0E3C00
0E1E00
0E0B40
ENDCHAR
STARTCHAR uni04A0
ENCODING 1184
SWIDTH 822 0
DWIDTH 12 0
BBX 12 10 0 0
BITMAP
BFD07C
56D0F4
01D2D0
01D780
01FF00
01EB80
01D2D0
01D1F0
01D078
01D02D
ENDCHAR
STARTCHAR uni04A1
ENCODING 1185
SWIDTH 705 0
DWIDTH 10 0
BBX 10 8 0 0
BITMAP
BFC2D0
57C780
02CE00
02FD00
02EE00
02CB40
02C3C0
02C2E0
ENDCHAR
STARTCHAR uni04A2
ENCODING 1186
SWIDTH 769 0
DWIDTH 11 0
BBX 10 13 1 -3
BITMAP
E00B00
E00B00
E00B00
E00B00
FFFF00
F55F00
E00B00
E00B00
E00B00
E00BD0
0001D0
0001D0
0001D0
ENDCHAR
STARTCHAR uni04A3
ENCODING 1187
SWIDTH 631 0
DWIDTH 9 0
BBX 8 11 1 -3
BITMAP
E0B0
E0B0
E0B0
FFF0
E5B0
E0B0
E0B0
E0BD
001D
001D
001D
ENDCHAR
STARTCHAR uni04A4
ENCODING 1188
SWIDTH 976 0
DWIDTH 14 0
BBX 12 10 1 0
BITMAP
E00BFF
E00B55
E00B00
E00B00
FFFF00
F55F00
E00B00
E00B00
E00B00
E00B00
ENDCHAR
STARTCHAR uni04A5
ENCODING 1189
SWIDTH 708 0
DWIDTH 10 0
BBX 9 8 1 0
BITMAP
E0BF40
E0B500
E0B000
E0B000
FFF000
E5B000
E0B000
E0B000
ENDCHAR
STARTCHAR uni04A6
ENCODING 1190
SWIDTH 1034 0
DWIDTH 14 0
BBX 13 12 1 -2
BITMAP
FFFF0000
F55F0000
E00B0000
E00B0000
E00BF900
E00B5F00
E00B0780
E00B03C0
E00B0280
E00B0380
00001B40
00002D00
ENDCHAR
STARTCHAR uni04A7
ENCODING 1191
SWIDTH 869 0
DWIDTH 12 0
BBX 11 10 1 -2
BITMAP
FFF000
E5B000
E0B000
E0BF90
E0B5F4
E0B038
E0B038
E0B038
0000F4
000090
ENDCHAR
STARTCHAR uni04A8
ENCODING 1192
SWIDTH 770 0
DWIDTH 11 0
BBX 11 10 0 0
BITMAP
0B1F80
2E7AE0
38B0B0
78B0B0
78B0B0
78B0B0
3870B0
2D38E0
1FAFD0
02FFF4
ENDCHAR
STARTCHAR uni04A9
ENCODING 1193
SWIDTH 624 0
DWIDTH 9 0
BBX 9 8 0 0
BITMAP
197800
3DEE00
75CB00
75CB00
75CB00
38DB00
2EBE00
0BFF40
ENDCHAR
STARTCHAR uni04AA
ENCODING 1194
SWIDTH 652 0
DWIDTH 9 0
BBX 9 14 0 -4
BITMAP
06F800
1E6F00
3C0740
780140
740000
740000
780140
3C0740
1E6F00
06F800
00E000
00E000
00E000
00E000
ENDCHAR
STARTCHAR uni04AB
ENCODING 1195
SWIDTH 523 0
DWIDTH 7 0
BBX 7 12 0 -4
BITMAP
0BE0
2DB8
7428
7400
7400
7428
2DB8
0BE0
0380
0380
0380
0380
ENDCHAR
STARTCHAR uni04AC
ENCODING 1196
SWIDTH 606 0
DWIDTH 9 0
BBX 9 13 0 -3
BITMAP
BFFF40
56D500
02C000
02C000
02C000
02C000
02C000
02C000
02C000
02F400
007400
007400
007400
ENDCHAR
STARTCHAR uni04AD
ENCODING 1197
SWIDTH 494 0
DWIDTH 7 0
BBX 7 11 0 -3
BITMAP
BFF8
5B54
0740
0740
0740
0740
0740
07E0
00E0
00E0
00E0
ENDCHAR
STARTCHAR uni04AE
ENCODING 1198
SWIDTH 609 0
DWIDTH 9 0
BBX 9 10 0 0
BITMAP
B40B40
781E00
2D2C00
0E3800
0BB000
03E000
02C000
02C000
02C000
02C000
ENDCHAR
STARTCHAR uni04AF
ENCODING 1199
SWIDTH 506 0
DWIDTH 7 0
BBX 7 11 0 -3
BITMAP
B038
7474
38B0
2CA0
1DD0
0FC0
0B80
0740
0740
0740
0740
ENDCHAR
STARTCHAR uni04B0
ENCODING 1200
SWIDTH 609 0
DWIDTH 9 0
BBX 9 10 0 0
BITMAP
B40B40
381E00
2D2C00
0E3800
07B000
0FF800
02D000
02C000
02C000
02C000
ENDCHAR
STARTCHAR uni04B1
ENCODING 1201
SWIDTH 506 0
DWIDTH 7 0
BBX 7 11 0 -3
BITMAP
B038
7474
38B0
2CA0
1DD0
0FC0
0BC0
2FF0
0740
0740
0740
ENDCHAR
STARTCHAR uni04B2
ENCODING 1202
SWIDTH 652 0
DWIDTH 9 0
BBX 9 13 0 -3
BITMAP
780B40
2D1E00
0E3C00
0BB400
03E000
03E000
0BB400
1E3C00
2D1E00
780BC0
0002C0
0002C0
0002C0
ENDCHAR
STARTCHAR uni04B3
ENCODING 1203
SWIDTH 534 0
DWIDTH 7 0
BBX 8 11 0 -3
BITMAP
7474
3CF0
1ED0
0B80
0B80
1ED0
3CB0
747D
001D
001D
001D
ENDCHAR
STARTCHAR uni04B4
ENCODING 1204
SWIDTH 898 0
DWIDTH 13 0
BBX 12 12 0 -2
BITMAP
BFFC78
5B9478
074078
074078
074078
074078
074078
074078
079579
07FFFE
00000E
00000E
ENDCHAR
STARTCHAR uni04B5
ENCODING 1205
SWIDTH 679 0
DWIDTH 10 0
BBX 9 10 0 -2
BITMAP
BFCB00
5E4B00
0E0B00
0E0B00
0E0B00
0E0B00
0E5B40
0FFFC0
0002C0
0002C0
ENDCHAR
STARTCHAR uni04B6
ENCODING 1206
SWIDTH 747 0
DWIDTH 10 0
BBX 9 13 1 -3
BITMAP
E00E00
E00E00
E00E00
E00E00
B41E00
7FFE00
055E00
000E00
000E00
000FC0
0002C0
0002C0
0002C0
ENDCHAR
STARTCHAR uni04B7
ENCODING 1207
SWIDTH 607 0
DWIDTH 9 0
BBX 8 11 0 -3
BITMAP
7438
7438
7438
3838
2FF8
0178
0038
003F
000B
000B
000B
ENDCHAR
STARTCHAR uni04B8
ENCODING 1208
SWIDTH 681 0
DWIDTH 10 0
BBX 8 10 1 0
BITMAP
E01E
E01E
E01E
E25E
F65E
7FFE
079E
025E
001E
001E
ENDCHAR
STARTCHAR uni04B9
ENCODING 1209
SWIDTH 556 0
DWIDTH 8 0
BBX 7 8 0 0
BITMAP
742C
766C
3A6C
2FFC
06AC
012C
002C
002C
ENDCHAR
STARTCHAR uni04BA
ENCODING 1210
SWIDTH 690 0
DWIDTH 10 0
BBX 8 10 1 0
BITMAP
E000
E000
E000
E000
FFE4
F97D
E01D
E00E
E00E
E00E
ENDCHAR
STARTCHAR uni04BB
ENCODING 1211
SWIDTH 555 0
DWIDTH 8 0
BBX 7 11 0 0
BITMAP
7400
7400
7400
7AE0
7D78
782C
742C
742C
742C
742C
742C
ENDCHAR
STARTCHAR uni04BC
ENCODING 1212
SWIDTH 767 0
DWIDTH 11 0
BBX 10 10 0 0
BITMAP
00BE40
02EBD0
5740E0
AB00B0
3FFFF0
0B5550
0B4000
078000
02EA90
00BF90
ENDCHAR
STARTCHAR uni04BD
ENCODING 1213
SWIDTH 595 0
DWIDTH 8 0
BBX 9 8 -1 0
BITMAP
00BD00
13DB40
7B4280
2FFFC0
0B5540
074000
02D680
00BE00
ENDCHAR
STARTCHAR uni04BE
ENCODING 1214
SWIDTH 767 0
DWIDTH 11 0
BBX 10 14 0 -4
BITMAP
00BE40
02EBD0
5740E0
AB00B0
3FFFF0
0B5550
0B4000
078000
02EA90
00BF90
001D00
001D00
001D00
001D00
ENDCHAR
STARTCHAR uni04BF
ENCODING 1215
SWIDTH 595 0
DWIDTH 8 0
BBX 9 12 -1 -4
BITMAP
00BD00
13DB40
7B4280
2FFFC0
0B5540
074000
02D680
00BE00
003800
003800
003800
003800
ENDCHAR
STARTCHAR uni04C0
ENCODING 1216
SWIDTH 282 0
DWIDTH 4 0
BBX 2 10 1 0
BITMAP
F0
F0
F0
F0
F0
F0
F0
F0
F0
F0
ENDCHAR
STARTCHAR uni04C1
ENCODING 1217
SWIDTH 954 0
DWIDTH 13 0
BBX 13 13 0 0
BITMAP
00728000
002F4000
00000000
780E0780
2D0E0F00
0F0E1D00
078E3800
02FFF400
07AEB800
0B4E2D00
1E0E1F00
3C0E0B40
B80E03C0
ENDCHAR
STARTCHAR uni04C2
ENCODING 1218
SWIDTH 807 0
DWIDTH 11 0
BBX 11 11 0 0
BITMAP
01CA00
00BD00
000000
787478
2D74F0
0E75D0
0BFF80
0BBAC0
1D75E0
3C74B4
B47478
ENDCHAR
STARTCHAR uni04C3
ENCODING 1219
SWIDTH 641 0
DWIDTH 9 0
BBX 8 12 1 -2
BITMAP
E03D
E0B4
E1E0
E780
FF90
FAB8
E02D
E01E
E00E
E01D
007C
00E4
ENDCHAR
STARTCHAR uni04C4
ENCODING 1220
SWIDTH 558 0
DWIDTH 8 0
BBX 7 10 1 -2
BITMAP
E0F4
E1E0
E3C0
EB40
FF80
EAE0
E074
E074
01F0
0180
ENDCHAR
STARTCHAR uni04C5
ENCODING 1221
SWIDTH 769 0
DWIDTH 11 0
BBX 11 12 0 -2
BITMAP
0BFFC0
0B57C0
0B03C0
0B03C0
0B03C0
0B03C0
0E03C0
0E03C0
6D03E0
B403F4
000070
0000A0
ENDCHAR
STARTCHAR uni04C6
ENCODING 1222
SWIDTH 639 0
DWIDTH 9 0
BBX 9 10 0 -2
BITMAP
1FFC00
1E6C00
1D2C00
1D2C00
1D2C00
2C2C00
782E40
A42F80
000340
000600
ENDCHAR
STARTCHAR uni04C7
ENCODING 1223
SWIDTH 710 0
DWIDTH 10 0
BBX 8 13 1 -3
BITMAP
E00F
E00F
E00F
E00F
FFFF
F55F
E00F
E00F
E00F
E00F
000F
005E
0078
ENDCHAR
STARTCHAR uni04C8
ENCODING 1224
SWIDTH 566 0
DWIDTH 8 0
BBX 6 11 1 -3
BITMAP
E0B0
E0B0
E0B0
E0B0
FFF0
E5B0
E0B0
E0B0
00B0
01F0
0390
ENDCHAR
STARTCHAR uni04C9
ENCODING 1225
SWIDTH 775 0
DWIDTH 11 0
BBX 10 12 1 -2
BITMAP
E00B00
E00B00
E00B00
E00B00
FFFF00
F55F00
E00B00
E00B00
E00B90
E00BD0
0001C0
000280
ENDCHAR
STARTCHAR uni04CA
ENCODING 1226
SWIDTH 637 0
DWIDTH 9 0
BBX 8 10 1 -2
BITMAP
E0B0
E0B0
E0B0
FFF0
E5B0
E0B0
E0B9
E0BE
000D
0018
ENDCHAR
STARTCHAR uni04CB
ENCODING 1227
SWIDTH 691 0
DWIDTH 10 0
BBX 8 13 1 -3
BITMAP
E00E
E00E
E00E
E00E
B41E
7FFE
055E
000E
000E
007E
0074
0074
0074
ENDCHAR
STARTCHAR uni04CC
ENCODING 1228
SWIDTH 549 0
DWIDTH 8 0
BBX 7 11 0 -3
BITMAP
7438
7438
7438
3838
2FF8
0178
0038
01F8
01D0
01D0
01D0
ENDCHAR
STARTCHAR uni04CD
ENCODING 1229
SWIDTH 936 0
DWIDTH 13 0
BBX 12 12 1 -2
BITMAP
F401F4
F802F4
FD03F4
EE07B4
EB0A74
E74D74
E39C74
E1F8B4
E0F4B9
E0B0BE
00000D
000018
ENDCHAR
STARTCHAR uni04CE
ENCODING 1230
SWIDTH 808 0
DWIDTH 11 0
BBX 10 10 1 -2
BITMAP
F40B80
F80F80
FC2F80
ED3B80
EA7780
E7A380
E3D3E0
E2C3F0
0000A0
0000D0
ENDCHAR
STARTCHAR uni04CF
ENCODING 1231
SWIDTH 282 0
DWIDTH 4 0
BBX 2 10 1 0
BITMAP
F0
F0
F0
F0
F0
F0
F0
F0
F0
F0
ENDCHAR
STARTCHAR uni04D0
ENCODING 1232
SWIDTH 665 0
DWIDTH 9 0
BBX 9 13 0 0
BITMAP
072800
02F400
000000
01E000
02F000
03B400
073800
0A1C00
1D0E00
2FFF00
395B40
740380
B002C0
ENDCHAR
STARTCHAR uni04D1
ENCODING 1233
SWIDTH 541 0
DWIDTH 8 0
BBX 7 11 0 0
BITMAP
1C70
0BD0
0000
1BE0
39B4
1038
1BF8
3838
7438
79B8
1FBC
ENDCHAR
STARTCHAR uni04D2
ENCODING 1234
SWIDTH 665 0
DWIDTH 9 0
BBX 9 13 0 0
BITMAP
051400
0A1C00
000000
01E000
02F000
03B400
073800
0A1C00
1D0E00
2FFF00
395B40
740380
B002C0
ENDCHAR
STARTCHAR uni04D3
ENCODING 1235
SWIDTH 541 0
DWIDTH 8 0
BBX 7 11 0 0
BITMAP
0820
1C70
0000
1BE0
39B4
1038
1BF8
3838
7438
79B8
1FBC
ENDCHAR
STARTCHAR uni04D4
ENCODING 1236
SWIDTH 939 0
DWIDTH 13 0
BBX 13 10 0 0
BITMAP
002FFF40
007F5500
00BB0000
01DB0000
038BFF00
07475500
0FFF4000
2D5B4000
78079540
B407FFC0
ENDCHAR
STARTCHAR uni04D5
ENCODING 1237
SWIDTH 844 0
DWIDTH 12 0
BBX 12 8 0 0
BITMAP
1BD7E4
3DBE6C
10381D
1FFFFD
793954
743C00
79BE58
2F97F8
ENDCHAR
STARTCHAR uni04D6
ENCODING 1238
SWIDTH 565 0
DWIDTH 8 0
BBX 7 13 1 0
BITMAP
28D0
1F80
0000
FFF4
F554
E000
E000
FFE0
F550
E000
E000
F554
FFF8
ENDCHAR
STARTCHAR uni04D7
ENCODING 1239
SWIDTH 536 0
DWIDTH 8 0
BBX 7 11 0 0
BITMAP
1C70
0BD0
0000
0BE0
2D78
742C
7FFC
7554
7800
2E68
0BE0
ENDCHAR
STARTCHAR uni04D8
ENCODING 1240
SWIDTH 691 0
DWIDTH 10 0
BBX 9 10 0 0
BITMAP
1BF800
1AAE00
000B80
000380
0003C0
7FFFC0
795780
780740
2E6E00
07F800
ENDCHAR
STARTCHAR uni04D9
ENCODING 1241
SWIDTH 529 0
DWIDTH 7 0
BBX 7 8 0 0
BITMAP
2FD0
25B4
0038
002C
7FFC
7578
39B4
1BD0
ENDCHAR
STARTCHAR uni04DA
ENCODING 1242
SWIDTH 691 0
DWIDTH 10 0
BBX 9 13 0 0
BITMAP
051400
092800
000000
1BF800
1AAE00
000B80
000380
0003C0
7FFFC0
795780
780740
2E6E00
07F800
ENDCHAR
STARTCHAR uni04DB
ENCODING 1243
SWIDTH 529 0
DWIDTH 7 0
BBX 7 11 0 0
BITMAP
1420
1C70
0000
2FD0
25B4
0038
002C
7FFC
7578
39B4
1BD0
ENDCHAR
STARTCHAR uni04DC
ENCODING 1244
SWIDTH 954 0
DWIDTH 13 0
BBX 13 13 0 0
BITMAP
00514000
00A1C000
00000000
780E0780
2D0E0F00
0F0E1D00
078E3800
02FFF400
07AEB800
0B4E2D00
1E0E1F00
3C0E0B40
B80E03C0
ENDCHAR
STARTCHAR uni04DD
ENCODING 1245
SWIDTH 807 0
DWIDTH 11 0
BBX 11 11 0 0
BITMAP
014500
028700
000000
787478
2D74F0
0E75D0
0BFF80
0BBAC0
1D75E0
3C74B4
B47478
ENDCHAR
STARTCHAR uni04DE
ENCODING 1246
SWIDTH 604 0
DWIDTH 8 0
BBX 8 13 0 0
BITMAP
0814
0D34
0000
1BE4
3D6D
640E
001D
03F8
016D
000E
740E
3D6D
1BE4
ENDCHAR
STARTCHAR uni04DF
ENCODING 1247
SWIDTH 510 0
DWIDTH 7 0
BBX 7 11 0 0
BITMAP
1450
28A0
0000
1BD0
39B4
6474
0074
0BE0
0174
79B4
1FE0
ENDCHAR
STARTCHAR uni04E0
ENCODING 1248
SWIDTH 581 0
DWIDTH 8 0
BBX 8 10 0 0
BITMAP
3FFD
1578
00B0
02D0
07E4
017C
001D
741D
3D7C
1BE4
ENDCHAR
STARTCHAR uni04E1
ENCODING 1249
SWIDTH 581 0
DWIDTH 8 0
BBX 8 11 0 -3
BITMAP
3FFD
1578
00B0
02C0
07E0
017C
001D
001D
741D
3D7C
0BE0
ENDCHAR
STARTCHAR uni04E2
ENCODING 1250
SWIDTH 707 0
DWIDTH 10 0
BBX 8 12 1 0
BITMAP
1FF4
0000
E01F
E02F
E07F
E0EF
E2CF
E74F
EF0F
FD0F
F80F
F00F
ENDCHAR
STARTCHAR uni04E3
ENCODING 1251
SWIDTH 574 0
DWIDTH 8 0
BBX 6 10 1 0
BITMAP
7FD0
0000
E0B0
E1F0
E3F0
E7B0
EDB0
FCB0
F4B0
F0B0
ENDCHAR
STARTCHAR uni04E4
ENCODING 1252
SWIDTH 707 0
DWIDTH 10 0
BBX 8 13 1 0
BITMAP
0820
1C74
0000
E01F
E02F
E07F
E0EF
E2CF
E74F
EF0F
FD0F
F80F
F00F
ENDCHAR
STARTCHAR uni04E5
ENCODING 1253
SWIDTH 574 0
DWIDTH 8 0
BBX 6 11 1 0
BITMAP
2080
74D0
0000
E0B0
E1F0
E3F0
E7B0
EDB0
FCB0
F4B0
F0B0
ENDCHAR
STARTCHAR uni04E6
ENCODING 1254
SWIDTH 690 0
DWIDTH 10 0
BBX 9 13 0 0
BITMAP
050800
071C00
000000
06F800
1FAF00
3C0780
380380
7402C0
7402C0
380380
3C0780
1F6F00
06F800
ENDCHAR
STARTCHAR uni04E7
ENCODING 1255
SWIDTH 569 0
DWIDTH 8 0
BBX 8 11 0 0
BITMAP
0820
1C74
0000
0BE0
2D78
742D
741D
741D
742D
2D78
0BE0
ENDCHAR
STARTCHAR uni04E8
ENCODING 1256
SWIDTH 684 0
DWIDTH 10 0
BBX 9 10 0 0
BITMAP
06F800
1E6F00
380740
740380
7FFFC0
7803C0
780380
3C0740
1F6F00
06F800
ENDCHAR
STARTCHAR uni04E9
ENCODING 1257
SWIDTH 566 0
DWIDTH 8 0
BBX 8 8 0 0
BITMAP
0BE0
2DB8
782D
741D
7FFD
756D
2D78
0BE0
ENDCHAR
STARTCHAR uni04EA
ENCODING 1258
SWIDTH 684 0
DWIDTH 10 0
BBX 9 13 0 0
BITMAP
020800
071D00
000000
06F800
1E6F00
380740
740380
7FFFC0
7803C0
780380
3C0740
1F6F00
06F800
ENDCHAR
STARTCHAR uni04EB
ENCODING 1259
SWIDTH 566 0
DWIDTH 8 0
BBX 8 11 0 0
BITMAP
1420
1C70
0000
0BE0
2DB8
782D
741D
7FFD
756D
2D78
0BE0
ENDCHAR
STARTCHAR uni04EC
ENCODING 1260
SWIDTH 664 0
DWIDTH 9 0
BBX 8 13 1 0
BITMAP
1450
2860
0000
1FE0
B9B8
E02D
001E
0BFE
055E
901E
E02D
B9B8
1BE0
ENDCHAR
STARTCHAR uni04ED
ENCODING 1261
SWIDTH 529 0
DWIDTH 7 0
BBX 7 11 0 0
BITMAP
1450
2870
0000
1BD0
39B0
7478
0038
07F8
5078
79B4
1F90
ENDCHAR
STARTCHAR uni04EE
ENCODING 1262
SWIDTH 629 0
DWIDTH 9 0
BBX 9 12 0 0
BITMAP
0FFC00
000000
780B40
3C0F00
1D1D00
0F2C00
077800
03F400
02E000
01D000
07C000
1E4000
ENDCHAR
STARTCHAR uni04EF
ENCODING 1263
SWIDTH 486 0
DWIDTH 7 0
BBX 7 13 0 -3
BITMAP
2FF0
0000
B078
7474
38B0
2CE0
1ED0
0FC0
0B80
0740
0B00
1E00
7800
ENDCHAR
STARTCHAR uni04F0
ENCODING 1264
SWIDTH 629 0
DWIDTH 9 0
BBX 9 13 0 0
BITMAP
051400
0A2800
000000
780B40
3C0F00
1D1D00
0F2C00
077800
03F400
02E000
01D000
07C000
1E4000
ENDCHAR
STARTCHAR uni04F1
ENCODING 1265
SWIDTH 486 0
DWIDTH 7 0
BBX 7 14 0 -3
BITMAP
1450
28A0
0000
B078
7474
38B0
2CE0
1ED0
0FC0
0B80
0740
0B00
1E00
7800
ENDCHAR
STARTCHAR uni04F2
ENCODING 1266
SWIDTH 629 0
DWIDTH 9 0
BBX 9 13 0 0
BITMAP
02DD00
036800
000000
780B40
3C0F00
1D1D00
0F2C00
077800
03F400
02E000
01D000
07C000
1E4000
ENDCHAR
STARTCHAR uni04F3
ENCODING 1267
SWIDTH 486 0
DWIDTH 7 0
BBX 7 14 0 -3
BITMAP
0B74
0DA0
0000
B078
7474
38B0
2CE0
1ED0
0FC0
0B80
0740
0B00
1E00
7800
ENDCHAR
STARTCHAR uni04F4
ENCODING 1268
SWIDTH 691 0
DWIDTH 10 0
BBX 8 13 1 0
BITMAP
0820
1C74
0000
E00E
E00E
E00E
E00E
B41E
7FFE
055E
000E
000E
000E
ENDCHAR
STARTCHAR uni04F5
ENCODING 1269
SWIDTH 549 0
DWIDTH 8 0
BBX 7 11 0 0
BITMAP
1420
1C70
0000
7438
7438
7438
3838
2FF8
0178
0038
0038
ENDCHAR
STARTCHAR uni04F6
ENCODING 1270
SWIDTH 557 0
DWIDTH 8 0
BBX 7 13 1 -3
BITMAP
FFF4
F550
E000
E000
E000
E000
E000
E000
E000
FC00
2C00
2C00
2C00
ENDCHAR
STARTCHAR uni04F7
ENCODING 1271
SWIDTH 418 0
DWIDTH 6 0
BBX 5 11 1 -3
BITMAP
FF80
E540
E000
E000
E000
E000
E000
FC00
2C00
2C00
2C00
ENDCHAR
STARTCHAR uni04F8
ENCODING 1272
SWIDTH 871 0
DWIDTH 12 0
BBX 10 13 1 0
BITMAP
020500
034D00
000000
E000B0
E000B0
E000B0
E000B0
FFE0B0
F5BCB0
E01DB0
E01DB0
F5BCB0
FFE0B0
ENDCHAR
STARTCHAR uni04F9
ENCODING 1273
SWIDTH 804 0
DWIDTH 11 0
BBX 9 11 1 0
BITMAP
051400
0A1800
000000
E002C0
E002C0
E002C0
FF92C0
E5F2C0
E076C0
E5F2C0
FF92C0
ENDCHAR
STARTCHAR uni04FA
ENCODING 1274
SWIDTH 597 0
DWIDTH 8 0
BBX 8 13 0 -3
BITMAP
1FFF
1E55
1D00
1D00
BFC0
2E00
1D00
1D00
1D00
1F80
0380
0780
1E00
ENDCHAR
STARTCHAR uni04FB
ENCODING 1275
SWIDTH 460 0
DWIDTH 6 0
BBX 7 11 0 -3
BITMAP
2FF4
2D50
2C00
BFC0
2D00
2C00
2C00
2F80
0380
1B40
2E00
ENDCHAR
STARTCHAR uni04FC
ENCODING 1276
SWIDTH 675 0
DWIDTH 9 0
BBX 10 13 0 -3
BITMAP
780B40
2D1E00
0E3C00
0BB400
03E000
03E000
0BB400
1E3C00
2D1E00
780BD0
0001D0
0006C0
000F40
ENDCHAR
STARTCHAR uni04FD
ENCODING 1277
SWIDTH 556 0
DWIDTH 8 0
BBX 8 11 0 -3
BITMAP
7474
3CF0
1ED0
0B80
0B80
1ED0
3CB0
747E
000E
006D
00B8
ENDCHAR
STARTCHAR uni04FE
ENCODING 1278
SWIDTH 632 0
DWIDTH 9 0
BBX 9 10 0 0
BITMAP
780B40
2D1E00
0E3C00
07B400
0BF800
07F400
0BB800
1E3D00
3D1E00
780B40
ENDCHAR
STARTCHAR uni04FF
ENCODING 1279
SWIDTH 502 0
DWIDTH 7 0
BBX 7 8 0 0
BITMAP
7474
2CE0
1ED0
2FF0
0FD0
1EE0
3CB0
B478
ENDCHAR
STARTCHAR uni0500
ENCODING 1280
SWIDTH 628 0
DWIDTH 9 0
BBX 8 10 0 0
BITMAP
000B
000B
000B
000B
0BFF
3E5F
740B
740B
3D5F
0BFF
ENDCHAR
STARTCHAR uni0501
ENCODING 1281
SWIDTH 564 0
DWIDTH 8 0
BBX 7 11 0 0
BITMAP
002C
002C
002C
1BAC
3DBC
742C
742C
742C
742C
3DBC
1BAC
ENDCHAR
STARTCHAR uni0502
ENCODING 1282
SWIDTH 867 0
DWIDTH 12 0
BBX 12 10 0 0
BITMAP
000B00
000B00
000B00
000B00
0BFF19
2E5B0E
780B0E
780B1E
2E5B6D
0BFFF4
ENDCHAR
STARTCHAR uni0503
ENCODING 1283
SWIDTH 857 0
DWIDTH 12 0
BBX 12 11 0 0
BITMAP
002C00
002C00
002C00
0BAC00
2DBC18
382C1D
742C1D
742C1D
782C2C
2DBEB8
0B8BE0
ENDCHAR
STARTCHAR uni0504
ENCODING 1284
SWIDTH 790 0
DWIDTH 11 0
BBX 11 10 0 0
BITMAP
BF9000
56F000
007400
00B050
1FD0B0
16E074
00B474
0074B0
007AE0
002F80
ENDCHAR
STARTCHAR uni0505
ENCODING 1285
SWIDTH 644 0
DWIDTH 9 0
BBX 9 8 0 0
BITMAP
BE4000
57C000
02C240
02C380
3F4380
16C380
01DB40
00BD00
ENDCHAR
STARTCHAR uni0506
ENCODING 1286
SWIDTH 560 0
DWIDTH 8 0
BBX 8 12 0 -2
BITMAP
7F40
16E0
00B0
00B0
01E0
3F80
16E0
00B0
00B9
007D
001C
0028
ENDCHAR
STARTCHAR uni0507
ENCODING 1287
SWIDTH 530 0
DWIDTH 7 0
BBX 7 10 0 -2
BITMAP
7F80
16E0
00E0
01E0
2FC0
15E0
00B8
00BC
001C
0024
ENDCHAR
STARTCHAR uni0508
ENCODING 1288
SWIDTH 967 0
DWIDTH 14 0
BBX 13 10 0 0
BITMAP
07FF8000
07978000
0B438000
0B038140
0B0382C0
0B0382C0
0B0382C0
0E03C3C0
6D02DB40
B800BD00
ENDCHAR
STARTCHAR uni0509
ENCODING 1289
SWIDTH 826 0
DWIDTH 12 0
BBX 11 8 0 0
BITMAP
0FFC00
0E6C14
0E2C2C
0D2C2C
1D2C2C
1D2C2C
7C1EB8
B40BE0
ENDCHAR
STARTCHAR uni050A
ENCODING 1290
SWIDTH 998 0
DWIDTH 14 0
BBX 12 10 1 0
BITMAP
E00E00
E00E00
E00E00
E00E05
FFFE0B
F55E0B
E00E0B
E00F0B
E00BAE
E002F8
ENDCHAR
STARTCHAR uni050B
ENCODING 1291
SWIDTH 827 0
DWIDTH 12 0
BBX 11 8 0 0
BITMAP
742C00
742C14
742C2C
742C2C
7FFC2C
796C2C
741E78
740BE0
ENDCHAR
STARTCHAR uni050C
ENCODING 1292
SWIDTH 626 0
DWIDTH 9 0
BBX 9 10 0 0
BITMAP
06F800
1E5800
380000
740000
740500
740B00
740740
380B40
1E6E00
06F800
ENDCHAR
STARTCHAR uni050D
ENCODING 1293
SWIDTH 521 0
DWIDTH 7 0
BBX 7 8 0 0
BITMAP
0BE0
2D50
7800
7400
7438
7838
2E78
0BE0
ENDCHAR
STARTCHAR uni050E
ENCODING 1294
SWIDTH 708 0
DWIDTH 10 0
BBX 10 10 0 0
BITMAP
BFFF00
56D500
02C000
02C140
02C2C0
02C1D0
02C1D0
02C2C0
01EB80
00BE00
ENDCHAR
STARTCHAR uni050F
ENCODING 1295
SWIDTH 639 0
DWIDTH 9 0
BBX 9 8 0 0
BITMAP
BFF800
5B9400
074500
074740
074740
074740
039F00
01F900
ENDCHAR
STARTCHAR uni0510
ENCODING 1296
SWIDTH 666 0
DWIDTH 9 0
BBX 8 10 1 0
BITMAP
1BE4
B97D
F009
B400
2FC0
B940
E000
E00E
B97D
1BE4
ENDCHAR
STARTCHAR uni0511
ENCODING 1297
SWIDTH 546 0
DWIDTH 8 0
BBX 7 8 0 0
BITMAP
1BE0
3D78
7818
3800
1FD0
7940
797C
1BE4
ENDCHAR
STARTCHAR uni0512
ENCODING 1298
SWIDTH 785 0
DWIDTH 11 0
BBX 11 13 0 -3
BITMAP
0BFFC0
0B57C0
0B03C0
0B03C0
0B03C0
0B03C0
0E03C0
0E03C0
6D03C0
B403F4
000074
0001B4
0002E0
ENDCHAR
STARTCHAR uni0513
ENCODING 1299
SWIDTH 655 0
DWIDTH 9 0
BBX 9 11 0 -3
BITMAP
1FFC00
1E6C00
1D2C00
1D2C00
1D2C00
2C2C00
782C00
A42F80
000380
001780
001E00
ENDCHAR
STARTCHAR uni1E00
ENCODING 7680
SWIDTH 665 0
DWIDTH 9 0
BBX 9 14 0 -4
BITMAP
01E000
02F000
03B400
073800
0A1C00
1D0E00
2FFF00
395B40
740380
B002C0
000000
01E000
016000
01E000
ENDCHAR
STARTCHAR uni1E01
ENCODING 7681
SWIDTH 541 0
DWIDTH 8 0
BBX 7 12 0 -4
BITMAP
1BE0
39B4
1038
1BF8
3838
7438
79B8
1FBC
0000
0B40
0980
0B40
ENDCHAR
STARTCHAR uni1E3E
ENCODING 7742
SWIDTH 875 0
DWIDTH 12 0
BBX 11 13 1 0
BITMAP
002C00
007000
000000
F401F4
F802F4
FD03F4
EE07B4
EB0A74
E74D74
E39C74
E1F8B4
E0F4B4
E0B0B4
ENDCHAR
STARTCHAR uni1E3F
ENCODING 7743
SWIDTH 870 0
DWIDTH 12 0
BBX 11 11 1 0
BITMAP
002D00
007400
000000
EB9BD0
F6F9F0
E0B074
E0B074
E0B074
E0B074
E0B074
E0B074
ENDCHAR
STARTCHAR Wgrave
ENCODING 7808
SWIDTH 879 0
DWIDTH 12 0
BBX 12 13 0 0
BITMAP
00B400
002800
000000
B02C0B
743D0E
383E1D
387A1D
2CA72C
1DD368
1ED2B8
0FC2F4
0B81F0
0740F0
ENDCHAR
STARTCHAR wgrave
ENCODING 7809
SWIDTH 743 0
DWIDTH 10 0
BBX 10 11 0 0
BITMAP
02D000
00A000
000000
B0B0B0
74F4A0
34F8E0
39E9D0
2E9EC0
1F4F80
0F0B80
0E0740
ENDCHAR
STARTCHAR Wacute
ENCODING 7810
SWIDTH 879 0
DWIDTH 12 0
BBX 12 13 0 0
BITMAP
000B40
001D00
000000
B02C0B
743D0E
383E1D
387A1D
2CA72C
1DD368
1ED2B8
0FC2F4
0B81F0
0740F0
ENDCHAR
STARTCHAR wacute
ENCODING 7811
SWIDTH 743 0
DWIDTH 10 0
BBX 10 11 0 0
BITMAP
002C00
007400
000000
B0B0B0
74F4A0
34F8E0
39E9D0
2E9EC0
1F4F80
0F0B80
0E0740
ENDCHAR
STARTCHAR Wdieresis
ENCODING 7812
SWIDTH 879 0
DWIDTH 12 0
BBX 12 13 0 0
BITMAP
008140
00D340
000000
B02C0B
743D0E
383E1D
387A1D
2CA72C
1DD368
1ED2B8
0FC2F4
0B81F0
0740F0
ENDCHAR
STARTCHAR wdieresis
ENCODING 7813
SWIDTH 743 0
DWIDTH 10 0
BBX 10 11 0 0
BITMAP
020500
034D00
000000
B0B0B0
74F4A0
34F8E0
39E9D0
2E9EC0
1F4F80
0F0B80
0E0740
ENDCHAR
STARTCHAR uni1EA0
ENCODING 7840
SWIDTH 665 0
DWIDTH 9 0
BBX 9 13 0 -3
BITMAP
01E000
02F000
03B400
073800
0A1C00
1D0E00
2FFF00
395B40
740380
B002C0
000000
00D000
009000
ENDCHAR
STARTCHAR uni1EA1
ENCODING 7841
SWIDTH 541 0
DWIDTH 8 0
BBX 7 11 0 -3
BITMAP
1BE0
39B4
1038
1BF8
3838
7438
79B8
1FBC
0000
0700
0600
ENDCHAR
STARTCHAR uni1EA2
ENCODING 7842
SWIDTH 665 0
DWIDTH 9 0
BBX 9 14 0 0
BITMAP
00E000
007400
00E000
000000
01E000
02F000
03B400
073800
0A1C00
1D0E00
2FFF00
395B40
740380
B002C0
ENDCHAR
STARTCHAR uni1EA3
ENCODING 7843
SWIDTH 541 0
DWIDTH 8 0
BBX 7 12 0 0
BITMAP
0280
00D0
0280
0000
1BE0
39B4
1038
1BF8
3838
7438
79B8
1FBC
ENDCHAR
STARTCHAR uni1EA4
ENCODING 7844
SWIDTH 665 0
DWIDTH 9 0
BBX 9 14 0 0
BITMAP
0002C0
02E640
076800
000000
01E000
02F000
03B400
073800
0A1C00
1D0E00
2FFF00
395B40
740380
B002C0
ENDCHAR
STARTCHAR uni1EA5
ENCODING 7845
SWIDTH 541 0
DWIDTH 8 0
BBX 8 12 0 0
BITMAP
0007
07D9
1DA0
0000
1BE0
39B4
1038
1BF8
3838
7438
79B8
1FBC
ENDCHAR
STARTCHAR uni1EA6
ENCODING 7846
SWIDTH 665 0
DWIDTH 9 0
BBX 9 14 0 0
BITMAP
B00000
26E000
076800
000000
01E000
02F000
03B400
073800
0A1C00
1D0E00
2FFF00
395B40
740380
B002C0
ENDCHAR
STARTCHAR uni1EA7
ENCODING 7847
SWIDTH 541 0
DWIDTH 8 0
BBX 8 12 -1 0
BITMAP
7400
29F4
0768
0000
06F8
0E6D
040E
06FE
0E0E
1D0E
1E6E
07EF
ENDCHAR
STARTCHAR uni1EA8
ENCODING 7848
SWIDTH 665 0
DWIDTH 9 0
BBX 9 15 0 0
BITMAP
000A00
000240
02EA00
062800
000000
01E000
02F000
03B400
073800
0A1C00
1D0E00
2FFF00
395B40
740380
B002C0
ENDCHAR
STARTCHAR uni1EA9
ENCODING 7849
SWIDTH 541 0
DWIDTH 8 0
BBX 8 13 0 0
BITMAP
001D
000A
07DC
1D60
0000
1BE0
39B4
1038
1BF8
3838
7438
79B8
1FBC
ENDCHAR
STARTCHAR uni1EAA
ENCODING 7850
SWIDTH 665 0
DWIDTH 9 0
BBX 9 16 0 0
BITMAP
029400
027000
000000
01E000
062800
000000
01E000
02F000
03B400
073800
0A1C00
1D0E00
2FFF00
395B40
740380
B002C0
ENDCHAR
STARTCHAR uni1EAB
ENCODING 7851
SWIDTH 541 0
DWIDTH 8 0
BBX 7 14 0 0
BITMAP
0660
09D0
0000
07D0
1D60
0000
1BE0
39B4
1038
1BF8
3838
7438
79B8
1FBC
ENDCHAR
STARTCHAR uni1EAC
ENCODING 7852
SWIDTH 665 0
DWIDTH 9 0
BBX 9 16 0 -3
BITMAP
01E000
076800
000000
01E000
02F000
03B400
073800
0A1C00
1D0E00
2FFF00
395B40
740380
B002C0
000000
00D000
009000
ENDCHAR
STARTCHAR uni1EAD
ENCODING 7853
SWIDTH 541 0
DWIDTH 8 0
BBX 7 14 0 -3
BITMAP
07D0
0DA0
0000
1BE0
39B4
1038
1BF8
3838
7438
79B8
1FBC
0000
0700
0600
ENDCHAR
STARTCHAR uni1EAE
ENCODING 7854
SWIDTH 665 0
DWIDTH 9 0
BBX 9 15 0 0
BITMAP
007000
009000
072800
02F400
000000
01E000
02F000
03B400
073800
0A1C00
1D0E00
2FFF00
395B40
740380
B002C0
ENDCHAR
STARTCHAR uni1EAF
ENCODING 7855
SWIDTH 541 0
DWIDTH 8 0
BBX 7 13 0 0
BITMAP
00C0
0180
1C70
0BD0
0000
1BE0
39B4
1038
1BF8
3838
7438
79B8
1FBC
ENDCHAR
STARTCHAR uni1EB0
ENCODING 7856
SWIDTH 665 0
DWIDTH 9 0
BBX 9 15 0 0
BITMAP
028000
008000
072800
02F400
000000
01E000
02F000
03B400
073800
0A1C00
1D0E00
2FFF00
395B40
740380
B002C0
ENDCHAR
STARTCHAR uni1EB1
ENCODING 7857
SWIDTH 541 0
DWIDTH 8 0
BBX 7 13 0 0
BITMAP
0700
0240
1C70
0BD0
0000
1BE0
39B4
1038
1BF8
3838
7438
79B8
1FBC
ENDCHAR
STARTCHAR uni1EB2
ENCODING 7858
SWIDTH 665 0
DWIDTH 9 0
BBX 9 16 0 0
BITMAP
00E000
007000
00D000
062800
02E400
000000
01E000
02F000
03B400
073800
0A1C00
1D0E00
2FFF00
395B40
740380
B002C0
ENDCHAR
STARTCHAR uni1EB3
ENCODING 7859
SWIDTH 541 0
DWIDTH 8 0
BBX 7 14 0 0
BITMAP
0280
00D0
0280
1C70
0BD0
0000
1BE0
39B4
1038
1BF8
3838
7438
79B8
1FBC
ENDCHAR
STARTCHAR uni1EB4
ENCODING 7860
SWIDTH 665 0
DWIDTH 9 0
BBX 9 16 0 0
BITMAP
029800
067400
000000
062800
02E400
000000
01E000
02F000
03B400
073800
0A1C00
1D0E00
2FFF00
395B40
740380
B002C0
ENDCHAR
STARTCHAR uni1EB5
ENCODING 7861
SWIDTH 541 0
DWIDTH 8 0
BBX 7 14 0 0
BITMAP
0A20
09D0
0000
1C70
0BD0
0000
1BE0
39B4
1038
1BF8
3838
7438
79B8
1FBC
ENDCHAR
STARTCHAR uni1EB6
ENCODING 7862
SWIDTH 665 0
DWIDTH 9 0
BBX 9 16 0 -3
BITMAP
072800
02F400
000000
01E000
02F000
03B400
073800
0A1C00
1D0E00
2FFF00
395B40
740380
B002C0
000000
00D000
009000
ENDCHAR
STARTCHAR uni1EB7
ENCODING 7863
SWIDTH 541 0
DWIDTH 8 0
BBX 7 14 0 -3
BITMAP
1C70
0BD0
0000
1BE0
39B4
1038
1BF8
3838
7438
79B8
1FBC
0000
0700
0600
ENDCHAR
STARTCHAR uni1EB8
ENCODING 7864
SWIDTH 565 0
DWIDTH 8 0
BBX 7 13 1 -3
BITMAP
FFF4
F554
E000
E000
FFE0
F550
E000
E000
F554
FFF8
0000
0700
0600
ENDCHAR
STARTCHAR uni1EB9
ENCODING 7865
SWIDTH 536 0
DWIDTH 8 0
BBX 7 11 0 -3
BITMAP
0BE0
2D78
742C
7FFC
7554
7800
2E68
0BE0
0000
0380
0240
ENDCHAR
STARTCHAR uni1EBA
ENCODING 7866
SWIDTH 565 0
DWIDTH 8 0
BBX 7 14 1 0
BITMAP
0740
02C0
0740
0000
FFF4
F554
E000
E000
FFE0
F550
E000
E000
F554
FFF8
ENDCHAR
STARTCHAR uni1EBB
ENCODING 7867
SWIDTH 536 0
DWIDTH 8 0
BBX 7 12 0 0
BITMAP
0380
00D0
0380
0000
0BE0
2D78
742C
7FFC
7554
7800
2E68
0BE0
ENDCHAR
STARTCHAR uni1EBC
ENCODING 7868
SWIDTH 565 0
DWIDTH 8 0
BBX 7 13 1 0
BITMAP
2DA0
32D0
0000
FFF4
F554
E000
E000
FFE0
F550
E000
E000
F554
FFF8
ENDCHAR
STARTCHAR uni1EBD
ENCODING 7869
SWIDTH 536 0
DWIDTH 8 0
BBX 7 11 0 0
BITMAP
1E74
25E0
0000
0BE0
2D78
742C
7FFC
7554
7800
2E68
0BE0
ENDCHAR
STARTCHAR uni1EBE
ENCODING 7870
SWIDTH 565 0
DWIDTH 8 0
BBX 8 14 1 0
BITMAP
000D
0B58
29D0
0000
FFF4
F554
E000
E000
FFE0
F550
E000
E000
F554
FFF8
ENDCHAR
STARTCHAR uni1EBF
ENCODING 7871
SWIDTH 536 0
DWIDTH 8 0
BBX 8 12 0 0
BITMAP
0007
07D9
1DA0
0000
0BE0
2D78
742C
7FFC
7554
7800
2E68
0BE0
ENDCHAR
STARTCHAR uni1EC0
ENCODING 7872
SWIDTH 565 0
DWIDTH 8 0
BBX 8 14 0 0
BITMAP
E000
66D0
0A74
0000
3FFD
3D55
3800
3800
3FF8
3D54
3800
3800
3D55
3FFE
ENDCHAR
STARTCHAR uni1EC1
ENCODING 7873
SWIDTH 536 0
DWIDTH 8 0
BBX 8 12 -1 0
BITMAP
7000
25F0
0768
0000
02F8
0B5E
1D0B
1FFF
1D55
1E00
0B9A
02F8
ENDCHAR
STARTCHAR uni1EC2
ENCODING 7874
SWIDTH 565 0
DWIDTH 8 0
BBX 7 15 1 0
BITMAP
0038
001C
0FB4
2890
0000
FFF4
F554
E000
E000
FFE0
F550
E000
E000
F554
FFF8
ENDCHAR
STARTCHAR uni1EC3
ENCODING 7875
SWIDTH 536 0
DWIDTH 8 0
BBX 8 13 0 0
BITMAP
0018
0009
07E8
1C60
0000
0BE0
2D78
742C
7FFC
7554
7800
2E68
0BE0
ENDCHAR
STARTCHAR uni1EC4
ENCODING 7876
SWIDTH 565 0
DWIDTH 8 0
BBX 7 16 1 0
BITMAP
0D80
1680
0000
0B40
2890
0000
FFF4
F554
E000
E000
FFE0
F550
E000
E000
F554
FFF8
ENDCHAR
STARTCHAR uni1EC5
ENCODING 7877
SWIDTH 536 0
DWIDTH 8 0
BBX 7 14 0 0
BITMAP
0A50
09D0
0000
0780
1D60
0000
0BE0
2D78
742C
7FFC
7554
7800
2E68
0BE0
ENDCHAR
STARTCHAR uni1EC6
ENCODING 7878
SWIDTH 565 0
DWIDTH 8 0
BBX 7 16 1 -3
BITMAP
0B40
29D0
0000
FFF4
F554
E000
E000
FFE0
F550
E000
E000
F554
FFF8
0000
0700
0600
ENDCHAR
STARTCHAR uni1EC7
ENCODING 7879
SWIDTH 536 0
DWIDTH 8 0
BBX 7 14 0 -3
BITMAP
0780
1DA0
0000
0BE0
2D78
742C
7FFC
7554
7800
2E68
0BE0
0000
0380
0240
ENDCHAR
STARTCHAR uni1EC8
ENCODING 7880
SWIDTH 282 0
DWIDTH 4 0
BBX 3 14 1 0
BITMAP
A4
38
A0
00
F0
F0
F0
F0
F0
F0
F0
F0
F0
F0
ENDCHAR
STARTCHAR uni1EC9
ENCODING 7881
SWIDTH 262 0
DWIDTH 4 0
BBX 3 12 1 0
BITMAP
E0
34
A0
00
E0
E0
E0
E0
E0
E0
E0
E0
ENDCHAR
STARTCHAR uni1ECA
ENCODING 7882
SWIDTH 282 0
DWIDTH 4 0
BBX 2 13 1 -3
BITMAP
F0
F0
F0
F0
F0
F0
F0
F0
F0
F0
00
A0
50
ENDCHAR
STARTCHAR uni1ECB
ENCODING 7883
SWIDTH 255 0
DWIDTH 4 0
BBX 2 14 1 -3
BITMAP
90
E0
00
E0
E0
E0
E0
E0
E0
E0
E0
00
D0
90
ENDCHAR
STARTCHAR uni1ECC
ENCODING 7884
SWIDTH 690 0
DWIDTH 10 0
BBX 9 13 0 -3
BITMAP
06F800
1FAF00
3C0780
380380
7402C0
7402C0
380380
3C0780
1F6F00
06F800
000000
00E000
009000
ENDCHAR
STARTCHAR uni1ECD
ENCODING 7885
SWIDTH 569 0
DWIDTH 8 0
BBX 8 11 0 -3
BITMAP
0BE0
2D78
742D
741D
741D
742D
2D78
0BE0
0000
0280
0140
ENDCHAR
STARTCHAR uni1ECE
ENCODING 7886
SWIDTH 690 0
DWIDTH 10 0
BBX 9 14 0 0
BITMAP
00E000
003400
00A000
000000
06F800
1FAF00
3C0780
380380
7402C0
7402C0
380380
3C0780
1F6F00
06F800
ENDCHAR
STARTCHAR uni1ECF
ENCODING 7887
SWIDTH 569 0
DWIDTH 8 0
BBX 8 12 0 0
BITMAP
0290
00E0
0280
0000
0BE0
2D78
742D
741D
741D
742D
2D78
0BE0
ENDCHAR
STARTCHAR uni1ED0
ENCODING 7888
SWIDTH 690 0
DWIDTH 10 0
BBX 9 14 0 0
BITMAP
0001C0
01F640
076800
000000
06F800
1FAF00
3C0780
380380
7402C0
7402C0
380380
3C0780
1F6F00
06F800
ENDCHAR
STARTCHAR uni1ED1
ENCODING 7889
SWIDTH 569 0
DWIDTH 8 0
BBX 9 12 0 0
BITMAP
000740
07D900
1D6000
000000
0BE000
2D7800
742D00
741D00
741D00
742D00
2D7800
0BE000
ENDCHAR
STARTCHAR uni1ED2
ENCODING 7890
SWIDTH 690 0
DWIDTH 10 0
BBX 9 14 0 0
BITMAP
700000
25F400
076800
000000
06F800
1FAF00
3C0780
380380
7402C0
7402C0
380380
3C0780
1F6F00
06F800
ENDCHAR
STARTCHAR uni1ED3
ENCODING 7891
SWIDTH 569 0
DWIDTH 8 0
BBX 9 12 -1 0
BITMAP
740000
29F400
075800
000000
02F800
0B5E00
1D0B40
1D0740
1D0740
1D0B40
0B5E00
02F800
ENDCHAR
STARTCHAR uni1ED4
ENCODING 7892
SWIDTH 690 0
DWIDTH 10 0
BBX 9 15 0 0
BITMAP
000740
000240
01F600
071800
000000
06F800
1FAF00
3C0780
380380
7402C0
7402C0
380380
3C0780
1F6F00
06F800
ENDCHAR
STARTCHAR uni1ED5
ENCODING 7893
SWIDTH 569 0
DWIDTH 8 0
BBX 8 13 0 0
BITMAP
001D
000A
07DC
1D70
0000
0BE0
2D78
742D
741D
741D
742D
2D78
0BE0
ENDCHAR
STARTCHAR uni1ED6
ENCODING 7894
SWIDTH 690 0
DWIDTH 10 0
BBX 9 16 0 0
BITMAP
029800
027400
000000
01F400
075800
000000
06F800
1FAF00
3C0780
380380
7402C0
7402C0
380380
3C0780
1F6F00
06F800
ENDCHAR
STARTCHAR uni1ED7
ENCODING 7895
SWIDTH 569 0
DWIDTH 8 0
BBX 8 14 0 0
BITMAP
0660
09D0
0000
07D0
1D70
0000
0BE0
2D78
742D
741D
741D
742D
2D78
0BE0
ENDCHAR
STARTCHAR uni1ED8
ENCODING 7896
SWIDTH 690 0
DWIDTH 10 0
BBX 9 16 0 -3
BITMAP
01E000
076800
000000
06F800
1FAF00
3C0780
380380
7402C0
7402C0
380380
3C0780
1F6F00
06F800
000000
00E000
009000
ENDCHAR
STARTCHAR uni1ED9
ENCODING 7897
SWIDTH 569 0
DWIDTH 8 0
BBX 8 14 0 -3
BITMAP
07D0
09A0
0000
0BE0
2D78
742D
741D
741D
742D
2D78
0BE0
0000
0280
0140
ENDCHAR
STARTCHAR uni1EDA
ENCODING 7898
SWIDTH 692 0
DWIDTH 10 0
BBX 10 13 0 0
BITMAP
007800
00A000
000060
06F8A0
1EAFC0
3C0740
740380
7403C0
740380
740380
3C0740
1E6E00
06F800
ENDCHAR
STARTCHAR uni1EDB
ENCODING 7899
SWIDTH 577 0
DWIDTH 8 0
BBX 8 11 0 0
BITMAP
00E0
0180
0002
0BE7
2D7E
742C
741D
741D
742D
2D78
0BE0
ENDCHAR
STARTCHAR uni1EDC
ENCODING 7900
SWIDTH 692 0
DWIDTH 10 0
BBX 10 13 0 0
BITMAP
078000
01D000
000060
06F8A0
1EAFC0
3C0740
740380
7403C0
740380
740380
3C0740
1E6E00
06F800
ENDCHAR
STARTCHAR uni1EDD
ENCODING 7901
SWIDTH 577 0
DWIDTH 8 0
BBX 8 11 0 0
BITMAP
0F00
0340
0002
0BE7
2D7E
742C
741D
741D
742D
2D78
0BE0
ENDCHAR
STARTCHAR uni1EDE
ENCODING 7902
SWIDTH 692 0
DWIDTH 10 0
BBX 10 14 0 0
BITMAP
00E000
003400
00A000
000060
06F8A0
1EAFC0
3C0740
740380
7403C0
740380
740380
3C0740
1E6E00
06F800
ENDCHAR
STARTCHAR uni1EDF
ENCODING 7903
SWIDTH 577 0
DWIDTH 8 0
BBX 8 12 0 0
BITMAP
0290
00E0
0280
0002
0BE7
2D7E
742C
741D
741D
742D
2D78
0BE0
ENDCHAR
STARTCHAR uni1EE0
ENCODING 7904
SWIDTH 692 0
DWIDTH 10 0
BBX 10 13 0 0
BITMAP
079D00
097800
000060
06F8A0
1EAFC0
3C0740
740380
7403C0
740380
740380
3C0740
1E6E00
06F800
ENDCHAR
STARTCHAR uni1EE1
ENCODING 7905
SWIDTH 577 0
DWIDTH 8 0
BBX 8 11 0 0
BITMAP
0F64
19E0
0002
0BE7
2D7E
742C
741D
741D
742D
2D78
0BE0
ENDCHAR
STARTCHAR uni1EE2
ENCODING 7906
SWIDTH 692 0
DWIDTH 10 0
BBX 10 14 0 -3
BITMAP
000060
06F8A0
1EAFC0
3C0740
740380
7403C0
740380
740380
3C0740
1E6E00
06F800
000000
00D000
009000
ENDCHAR
STARTCHAR uni1EE3
ENCODING 7907
SWIDTH 577 0
DWIDTH 8 0
BBX 8 12 0 -3
BITMAP
0002
0BE7
2D7E
742C
741D
741D
742D
2D78
0BE0
0000
0280
0140
ENDCHAR
STARTCHAR uni1EE4
ENCODING 7908
SWIDTH 651 0
DWIDTH 9 0
BBX 8 13 1 -3
BITMAP
E01D
E01D
E01D
E01D
E01D
E01D
E01D
E02D
B9B8
1FE0
0000
0740
0200
ENDCHAR
STARTCHAR uni1EE5
ENCODING 7909
SWIDTH 555 0
DWIDTH 8 0
BBX 7 11 0 -3
BITMAP
742C
742C
742C
742C
742C
382C
3DBC
1FAC
0000
0700
0600
ENDCHAR
STARTCHAR uni1EE6
ENCODING 7910
SWIDTH 651 0
DWIDTH 9 0
BBX 8 14 1 0
BITMAP
0380
01C0
0340
0000
E01D
E01D
E01D
E01D
E01D
E01D
E01D
E02D
B9B8
1FE0
ENDCHAR
STARTCHAR uni1EE7
ENCODING 7911
SWIDTH 555 0
DWIDTH 8 0
BBX 7 12 0 0
BITMAP
0280
00D0
0280
0000
742C
742C
742C
742C
742C
382C
3DBC
1FAC
ENDCHAR
STARTCHAR uni1EE8
ENCODING 7912
SWIDTH 705 0
DWIDTH 10 0
BBX 10 13 1 0
BITMAP
01E000
028000
000070
E01DA0
E01F80
E01D00
E01D00
E01D00
E01D00
E01D00
E02C00
B9B800
1FE000
ENDCHAR
STARTCHAR uni1EE9
ENCODING 7913
SWIDTH 618 0
DWIDTH 9 0
BBX 9 11 0 0
BITMAP
00E000
018000
000080
742DC0
742F40
742C00
742C00
742C00
382C00
3DBC00
1FAC00
ENDCHAR
STARTCHAR uni1EEA
ENCODING 7914
SWIDTH 705 0
DWIDTH 10 0
BBX 10 13 1 0
BITMAP
0E0000
074000
000070
E01DA0
E01F80
E01D00
E01D00
E01D00
E01D00
E01D00
E02C00
B9B800
1FE000
ENDCHAR
STARTCHAR uni1EEB
ENCODING 7915
SWIDTH 618 0
DWIDTH 9 0
BBX 9 11 0 0
BITMAP
0F0000
034000
000080
742DC0
742F40
742C00
742C00
742C00
382C00
3DBC00
1FAC00
ENDCHAR
STARTCHAR uni1EEC
ENCODING 7916
SWIDTH 705 0
DWIDTH 10 0
BBX 10 14 1 0
BITMAP
038000
00D000
028000
000070
E01DA0
E01F80
E01D00
E01D00
E01D00
E01D00
E01D00
E02C00
B9B800
1FE000
ENDCHAR
STARTCHAR uni1EED
ENCODING 7917
SWIDTH 618 0
DWIDTH 9 0
BBX 9 12 0 0
BITMAP
029000
00E000
028000
000080
742DC0
742F40
742C00
742C00
742C00
382C00
3DBC00
1FAC00
ENDCHAR
STARTCHAR uni1EEE
ENCODING 7918
SWIDTH 705 0
DWIDTH 10 0
BBX 10 13 1 0
BITMAP
1E7400
25E000
000070
E01DA0
E01F80
E01D00
E01D00
E01D00
E01D00
E01D00
E02C00
B9B800
1FE000
ENDCHAR
STARTCHAR uni1EEF
ENCODING 7919
SWIDTH 618 0
DWIDTH 9 0
BBX 9 11 0 0
BITMAP
0F6400
19E000
000080
742DC0
742F40
742C00
742C00
742C00
382C00
3DBC00
1FAC00
ENDCHAR
STARTCHAR uni1EF0
ENCODING 7920
SWIDTH 705 0
DWIDTH 10 0
BBX 10 14 1 -3
BITMAP
000070
E01DA0
E01F80
E01D00
E01D00
E01D00
E01D00
E01D00
E02C00
B9B800
1FE000
000000
038000
024000
ENDCHAR
STARTCHAR uni1EF1
ENCODING 7921
SWIDTH 618 0
DWIDTH 9 0
BBX 9 12 0 -3
BITMAP
000080
742DC0
742F40
742C00
742C00
742C00
382C00
3DBC00
1FAC00
000000
038000
024000
ENDCHAR
STARTCHAR Ygrave
ENCODING 7922
SWIDTH 609 0
DWIDTH 9 0
BBX 9 13 0 0
BITMAP
0B4000
028000
000000
B40B40
781E00
2D2C00
0E3800
0BB000
03E000
02C000
02C000
02C000
02C000
ENDCHAR
STARTCHAR ygrave
ENCODING 7923
SWIDTH 486 0
DWIDTH 7 0
BBX 7 14 0 -3
BITMAP
1D00
0600
0000
B078
7474
38B0
2CE0
1ED0
0FC0
0B80
0740
0B00
1E00
7800
ENDCHAR
STARTCHAR uni1EF4
ENCODING 7924
SWIDTH 609 0
DWIDTH 9 0
BBX 9 13 0 -3
BITMAP
B40B40
781E00
2D2C00
0E3800
0BB000
03E000
02C000
02C000
02C000
02C000
000000
01C000
018000
ENDCHAR
STARTCHAR uni1EF5
ENCODING 7925
SWIDTH 486 0
DWIDTH 7 0
BBX 7 12 0 -4
BITMAP
B078
7474
38B0
2CE0
1ED0
0FC0
0B80
0740
0B00
1E00
78A0
0060
ENDCHAR
STARTCHAR uni1EF6
ENCODING 7926
SWIDTH 609 0
DWIDTH 9 0
BBX 9 14 0 0
BITMAP
01D000
00B000
01D000
000000
B40B40
781E00
2D2C00
0E3800
0BB000
03E000
02C000
02C000
02C000
02C000
ENDCHAR
STARTCHAR uni1EF7
ENCODING 7927
SWIDTH 486 0
DWIDTH 7 0
BBX 7 15 0 -3
BITMAP
0780
01C0
0340
0000
B078
7474
38B0
2CE0
1ED0
0FC0
0B80
0740
0B00
1E00
7800
ENDCHAR
STARTCHAR uni1EF8
ENCODING 7928
SWIDTH 609 0
DWIDTH 9 0
BBX 9 13 0 0
BITMAP
0B6800
0CB400
000000
B40B40
781E00
2D2C00
0E3800
0BB000
03E000
02C000
02C000
02C000
02C000
ENDCHAR
STARTCHAR uni1EF9
ENCODING 7929
SWIDTH 486 0
DWIDTH 7 0
BBX 7 15 0 -3
BITMAP
0010
2E70
35D0
0000
B078
7474
38B0
2CE0
1ED0
0FC0
0B80
0740
0B00
1E00
7800
ENDCHAR
STARTCHAR uni1F4D
ENCODING 8013
SWIDTH 724 0
DWIDTH 10 0
BBX 14 10 -4 0
BITMAP
7282F900
260B9B40
001D02C0
002C01D0
002C01D0
002C01D0
002C01D0
001D02C0
000B9B40
0002F900
ENDCHAR
STARTCHAR uni2000
ENCODING 8192
SWIDTH 509 0
DWIDTH 7 0
BBX 1 1 0 0
BITMAP
00
ENDCHAR
STARTCHAR uni2001
ENCODING 8193
SWIDTH 1020 0
DWIDTH 14 0
BBX 1 1 0 0
BITMAP
00
ENDCHAR
STARTCHAR uni2002
ENCODING 8194
SWIDTH 509 0
DWIDTH 7 0
BBX 1 1 0 0
BITMAP
00
ENDCHAR
STARTCHAR uni2003
ENCODING 8195
SWIDTH 1020 0
DWIDTH 14 0
BBX 1 1 0 0
BITMAP
00
ENDCHAR
STARTCHAR uni2004
ENCODING 8196
SWIDTH 340 0
DWIDTH 5 0
BBX 1 1 0 0
BITMAP
00
ENDCHAR
STARTCHAR uni2005
ENCODING 8197
SWIDTH 254 0
DWIDTH 4 0
BBX 1 1 0 0
BITMAP
00
ENDCHAR
STARTCHAR uni2006
ENCODING 8198
SWIDTH 169 0
DWIDTH 2 0
BBX 1 1 0 0
BITMAP
00
ENDCHAR
STARTCHAR uni2007
ENCODING 8199
SWIDTH 562 0
DWIDTH 8 0
BBX 1 1 0 0
BITMAP
00
ENDCHAR
STARTCHAR uni2008
ENCODING 8200
SWIDTH 273 0
DWIDTH 4 0
BBX 1 1 0 0
BITMAP
00
ENDCHAR
STARTCHAR uni2009
ENCODING 8201
SWIDTH 204 0
DWIDTH 3 0
BBX 1 1 0 0
BITMAP
00
ENDCHAR
STARTCHAR uni200A
ENCODING 8202
SWIDTH 102 0
DWIDTH 1 0
BBX 1 1 0 0
BITMAP
00
ENDCHAR
STARTCHAR uni200B
ENCODING 8203
SWIDTH 0 0
DWIDTH 0 0
BBX 1 1 0 0
BITMAP
00
ENDCHAR
STARTCHAR uni2010
ENCODING 8208
SWIDTH 328 0
DWIDTH 5 0
BBX 4 2 0 3
BITMAP
BF
55
ENDCHAR
STARTCHAR uni2011
ENCODING 8209
SWIDTH 328 0
DWIDTH 5 0
BBX 4 2 0 3
BITMAP
BF
55
ENDCHAR
STARTCHAR endash
ENCODING 8211
SWIDTH 645 0
DWIDTH 9 0
BBX 7 2 1 4
BITMAP
FFFC
5554
ENDCHAR
STARTCHAR emdash
ENCODING 8212
SWIDTH 773 0
DWIDTH 11 0
BBX 10 2 1 4
BITMAP
FFFFD0
555540
ENDCHAR
STARTCHAR uni2015
ENCODING 8213
SWIDTH 773 0
DWIDTH 11 0
BBX 10 2 1 4
BITMAP
FFFFD0
555540
ENDCHAR
STARTCHAR underscoredbl
ENCODING 8215
SWIDTH 451 0
DWIDTH 6 0
BBX 7 3 0 -3
BITMAP
FFF4
0000
FFF4
ENDCHAR
STARTCHAR quoteleft
ENCODING 8216
SWIDTH 218 0
DWIDTH 3 0
BBX 3 3 0 8
BITMAP
24
34
70
ENDCHAR
STARTCHAR quoteright
ENCODING 8217
SWIDTH 216 0
DWIDTH 3 0
BBX 3 3 0 8
BITMAP
34
34
60
ENDCHAR
STARTCHAR quotesinglbase
ENCODING 8218
SWIDTH 225 0
DWIDTH 3 0
BBX 3 4 0 -2
BITMAP
10
34
74
60
ENDCHAR
STARTCHAR quotereversed
ENCODING 8219
SWIDTH 207 0
DWIDTH 3 0
BBX 3 3 0 8
BITMAP
70
70
24
ENDCHAR
STARTCHAR quotedblleft
ENCODING 8220
SWIDTH 384 0
DWIDTH 5 0
BBX 5 3 0 8
BITMAP
1980
3680
7780
ENDCHAR
STARTCHAR quotedblright
ENCODING 8221
SWIDTH 388 0
DWIDTH 5 0
BBX 5 3 0 8
BITMAP
3A80
3680
6200
ENDCHAR
STARTCHAR quotedblbase
ENCODING 8222
SWIDTH 378 0
DWIDTH 5 0
BBX 5 4 0 -2
BITMAP
2640
3780
7740
6700
ENDCHAR
STARTCHAR dagger
ENCODING 8224
SWIDTH 545 0
DWIDTH 8 0
BBX 8 10 0 0
BITMAP
0380
0380
BFFD
5794
0380
0380
0380
0380
0380
0380
ENDCHAR
STARTCHAR daggerdbl
ENCODING 8225
SWIDTH 574 0
DWIDTH 8 0
BBX 8 13 0 -3
BITMAP
0380
0380
7FFD
17D4
0380
0380
0380
0380
17D4
7FFD
0380
0380
0380
ENDCHAR
STARTCHAR bullet
ENCODING 8226
SWIDTH 349 0
DWIDTH 5 0
BBX 3 3 1 4
BITMAP
B8
FC
B8
ENDCHAR
STARTCHAR twodotenleader
ENCODING 8229
SWIDTH 497 0
DWIDTH 7 0
BBX 5 2 1 0
BITMAP
A280
A280
ENDCHAR
STARTCHAR ellipsis
ENCODING 8230
SWIDTH 706 0
DWIDTH 10 0
BBX 8 2 1 0
BITMAP
A28A
A28A
ENDCHAR
STARTCHAR uni2027
ENCODING 8231
SWIDTH 222 0
DWIDTH 3 0
BBX 3 2 0 3
BITMAP
74
24
ENDCHAR
STARTCHAR perthousand
ENCODING 8240
SWIDTH 956 0
DWIDTH 13 0
BBX 13 10 0 0
BITMAP
2E000000
72860000
618D0000
72A80000
2E700000
009B9E40
019CB180
031871C0
051CB180
000B9F40
ENDCHAR
STARTCHAR minute
ENCODING 8242
SWIDTH 168 0
DWIDTH 2 0
BBX 2 4 0 7
BITMAP
60
60
60
60
ENDCHAR
STARTCHAR second
ENCODING 8243
SWIDTH 324 0
DWIDTH 5 0
BBX 4 4 0 7
BITMAP
77
77
66
66
ENDCHAR
STARTCHAR guilsinglleft
ENCODING 8249
SWIDTH 305 0
DWIDTH 4 0
BBX 3 5 1 1
BITMAP
28
A0
D0
A0
28
ENDCHAR
STARTCHAR guilsinglright
ENCODING 8250
SWIDTH 301 0
DWIDTH 4 0
BBX 3 5 1 1
BITMAP
D0
70
38
70
D0
ENDCHAR
STARTCHAR exclamdbl
ENCODING 8252
SWIDTH 536 0
DWIDTH 8 0
BBX 6 10 1 0
BITMAP
E1E0
E1D0
E0D0
E0D0
E0D0
E0D0
A0D0
0000
9090
A0D0
ENDCHAR
STARTCHAR fraction
ENCODING 8260
SWIDTH 451 0
DWIDTH 6 0
BBX 6 8 0 1
BITMAP
0060
0090
0180
0300
0900
1800
3000
5000
ENDCHAR
STARTCHAR uni2074
ENCODING 8308
SWIDTH 370 0
DWIDTH 5 0
BBX 5 5 0 5
BITMAP
0B00
1F00
3700
BF80
0340
ENDCHAR
STARTCHAR uni207F
ENCODING 8319
SWIDTH 419 0
DWIDTH 6 0
BBX 6 5 0 5
BITMAP
7B80
75D0
70D0
70D0
70D0
ENDCHAR
STARTCHAR franc
ENCODING 8355
SWIDTH 549 0
DWIDTH 8 0
BBX 8 10 0 0
BITMAP
3FFD
3D54
3800
3800
3FF8
3D54
3800
FF80
3C00
3800
ENDCHAR
STARTCHAR lira
ENCODING 8356
SWIDTH 588 0
DWIDTH 8 0
BBX 8 10 0 0
BITMAP
06F8
0F6D
1D09
1D00
7FE0
1D00
7FE0
1D00
2E55
7FFF
ENDCHAR
STARTCHAR uni20A6
ENCODING 8358
SWIDTH 804 0
DWIDTH 11 0
BBX 11 10 0 0
BITMAP
1E00E0
1F40E0
1F80E0
1FD0E0
BFFFFC
1D79E0
BFFFFC
1D0FE0
1D07E0
1D02E0
ENDCHAR
STARTCHAR peseta
ENCODING 8359
SWIDTH 839 0
DWIDTH 12 0
BBX 10 10 1 0
BITMAP
FF8380
F6F380
E0BFF0
E0B790
E1E380
FFC380
F50380
E00380
E003D0
E001E0
ENDCHAR
STARTCHAR uni20A8
ENCODING 8360
SWIDTH 1071 0
DWIDTH 15 0
BBX 14 10 1 0
BITMAP
FFE00000
F5B80000
E02C7E40
E02DE6C0
E079D040
FFF0F900
F5E01BC0
E0B181D0
E079E6D0
E02D7F40
ENDCHAR
STARTCHAR uni20A9
ENCODING 8361
SWIDTH 769 0
DWIDTH 11 0
BBX 11 10 0 0
BITMAP
7474B0
34B4B0
38B8E0
BFFFF8
2CEDD0
BFFFF8
1EDEC0
0F8F80
0B8B40
0B4B40
ENDCHAR
STARTCHAR uni20AA
ENCODING 8362
SWIDTH 818 0
DWIDTH 11 0
BBX 10 8 1 0
BITMAP
FFE0E0
E5B8E0
E138E0
E778E0
E778E0
E754E0
E796D0
E7FF40
ENDCHAR
STARTCHAR dong
ENCODING 8363
SWIDTH 579 0
DWIDTH 8 0
BBX 9 14 0 -3
BITMAP
002C00
01FF40
002D00
1BAC00
3DBC00
742C00
742C00
742C00
742C00
3DBC00
1BAC00
000000
3FFD00
155400
ENDCHAR
STARTCHAR Euro
ENCODING 8364
SWIDTH 568 0
DWIDTH 8 0
BBX 8 10 0 0
BITMAP
01FD
0B98
0E00
7FF0
1E00
7FF0
0E00
0F00
0798
01FD
ENDCHAR
STARTCHAR uni20B1
ENCODING 8369
SWIDTH 744 0
DWIDTH 10 0
BBX 11 10 0 0
BITMAP
2FF800
2E5F00
2D0B40
BFFFF4
2D03C0
BFFFF4
2D0B40
2FFE00
2E5400
2D0000
ENDCHAR
STARTCHAR uni20B9
ENCODING 8377
SWIDTH 525 0
DWIDTH 7 0
BBX 7 10 0 0
BITMAP
7FFC
56E4
BFFC
56E4
BF80
7D00
2E00
0B40
07C0
01E0
ENDCHAR
STARTCHAR uni20BA
ENCODING 8378
SWIDTH 579 0
DWIDTH 8 0
BBX 8 10 0 0
BITMAP
1D00
1E80
6F80
BE80
6F85
BD1E
1D1D
1D2C
1EB8
1FD0
ENDCHAR
STARTCHAR uni20BC
ENCODING 8380
SWIDTH 670 0
DWIDTH 9 0
BBX 9 8 0 0
BITMAP
00E000
00E000
07F800
1EEE00
38E740
74E380
74E380
74E2C0
ENDCHAR
STARTCHAR uni20BD
ENCODING 8381
SWIDTH 686 0
DWIDTH 10 0
BBX 9 10 0 0
BITMAP
1FFD00
1E5B80
1D02C0
1D02C0
1D0780
BFFF40
6E5400
BFE000
6E5000
1D0000
ENDCHAR
STARTCHAR uni2105
ENCODING 8453
SWIDTH 736 0
DWIDTH 10 0
BBX 10 10 0 0
BITMAP
1E0000
328600
700D00
36A800
1E7000
009B80
0198A0
032860
0518A0
000B80
ENDCHAR
STARTCHAR uni2113
ENCODING 8467
SWIDTH 485 0
DWIDTH 7 0
BBX 7 10 0 0
BITMAP
07D0
0FB0
0E74
0EB0
0EE0
1F80
7E00
1E00
0F80
02C0
ENDCHAR
STARTCHAR uni2116
ENCODING 8470
SWIDTH 1022 0
DWIDTH 14 0
BBX 13 10 1 0
BITMAP
F02C7E00
F82CD340
FC2CC280
ED2CD340
EB2C7E00
E36C0000
E2ECFF40
E0FC0000
E0BC0000
E07C0000
ENDCHAR
STARTCHAR trademark
ENCODING 8482
SWIDTH 629 0
DWIDTH 9 0
BBX 8 4 0 6
BITMAP
7EC6
18DA
18AA
18A6
ENDCHAR
STARTCHAR uni03A9.dup2
ENCODING 8486
SWIDTH 669 0
DWIDTH 9 0
BBX 9 10 0 0
BITMAP
06F400
1E6E00
3C0B40
780740
780780
780740
380740
2C0A00
1F2E00
7F7F40
ENDCHAR
STARTCHAR estimated
ENCODING 8494
SWIDTH 634 0
DWIDTH 9 0
BBX 7 8 1 0
BITMAP
1B90
3460
A028
E02C
FFFC
A000
6410
1BE0
ENDCHAR
STARTCHAR oneeighth
ENCODING 8539
SWIDTH 775 0
DWIDTH 11 0
BBX 10 10 0 0
BITMAP
190000
6D0500
0D0C00
0D2400
0D6000
00C7E0
024A70
0607E0
090D70
000BE0
ENDCHAR
STARTCHAR threeeighths
ENCODING 8540
SWIDTH 857 0
DWIDTH 12 0
BBX 11 10 0 0
BITMAP
2F4000
128180
0F4340
528A00
2F5C00
0025F8
00629C
00C1F8
01439C
0001F8
ENDCHAR
STARTCHAR fiveeighths
ENCODING 8541
SWIDTH 852 0
DWIDTH 12 0
BBX 11 10 0 0
BITMAP
3F4000
300140
7F4300
128900
2F5800
0031F8
00929C
0181F8
02435C
0002F8
ENDCHAR
STARTCHAR seveneighths
ENCODING 8542
SWIDTH 829 0
DWIDTH 12 0
BBX 11 10 0 0
BITMAP
7FC000
024200
070900
0D1800
1C3400
00A2E4
01C734
0343F0
060728
0002F4
ENDCHAR
STARTCHAR partialdiff
ENCODING 8706
SWIDTH 570 0
DWIDTH 8 0
BBX 8 10 0 0
BITMAP
1FD0
15B4
002C
0BED
2D7D
781D
741D
381C
2D78
0BE0
ENDCHAR
STARTCHAR uni0394.dup3
ENCODING 8710
SWIDTH 718 0
DWIDTH 10 0
BBX 10 10 0 0
BITMAP
00F000
01F800
02EC00
079D00
0B0E00
0E0B00
1D0740
2C03C0
7956D0
BFFFE0
ENDCHAR
STARTCHAR product
ENCODING 8719
SWIDTH 698 0
DWIDTH 10 0
BBX 8 12 1 -2
BITMAP
FFFE
F55E
E00E
E00E
E00E
E00E
E00E
E00E
E00E
E00E
E00E
E00E
ENDCHAR
STARTCHAR summation
ENCODING 8721
SWIDTH 605 0
DWIDTH 8 0
BBX 9 12 0 -2
BITMAP
BFFF00
7D5500
1E0000
0B4000
02C000
00F000
00F000
02D000
0B4000
1E0000
7D5500
BFFF40
ENDCHAR
STARTCHAR minus
ENCODING 8722
SWIDTH 563 0
DWIDTH 8 0
BBX 6 2 1 4
BITMAP
FFF0
5550
ENDCHAR
STARTCHAR radical
ENCODING 8730
SWIDTH 586 0
DWIDTH 8 0
BBX 8 10 0 0
BITMAP
000B
000D
001C
0028
0034
BC70
5DA0
0AD0
07C0
0380
ENDCHAR
STARTCHAR infinity
ENCODING 8734
SWIDTH 1033 0
DWIDTH 14 0
BBX 14 8 0 0
BITMAP
0BE07E40
2E79E7C0
381F81E0
740B40E0
740B40E0
381F81E0
2E79E7C0
0BE07E40
ENDCHAR
STARTCHAR integral
ENCODING 8747
SWIDTH 271 0
DWIDTH 4 0
BBX 6 14 -1 -3
BITMAP
02E0
0B50
0E00
0E00
0E00
0E00
0E00
0E00
0E00
0E00
0E00
0E00
5E00
7800
ENDCHAR
STARTCHAR approxequal
ENCODING 8776
SWIDTH 569 0
DWIDTH 8 0
BBX 7 6 0 1
BITMAP
2E44
66FC
0010
2E44
66FC
0010
ENDCHAR
STARTCHAR notequal
ENCODING 8800
SWIDTH 559 0
DWIDTH 8 0
BBX 6 8 1 1
BITMAP
0040
0080
FFF0
5A50
0900
FFF0
7550
5000
ENDCHAR
STARTCHAR lessequal
ENCODING 8804
SWIDTH 508 0
DWIDTH 7 0
BBX 7 8 0 0
BITMAP
00B0
1BE0
B900
6E40
01F0
0010
BFF4
5550
ENDCHAR
STARTCHAR greaterequal
ENCODING 8805
SWIDTH 520 0
DWIDTH 7 0
BBX 6 8 1 0
BITMAP
E400
6E40
02E0
1B90
F800
4000
FFE0
5550
ENDCHAR
STARTCHAR lozenge
ENCODING 9674
SWIDTH 505 0
DWIDTH 7 0
BBX 7 10 0 0
BITMAP
0740
0FC0
1DE0
38B0
7438
7438
38B0
1DE0
0FC0
0740
ENDCHAR
STARTCHAR uniEE01
ENCODING 60929
SWIDTH 294 0
DWIDTH 4 0
BBX 2 8 1 1
BITMAP
A0
A0
00
00
00
00
A0
A0
ENDCHAR
STARTCHAR uniEE02
ENCODING 60930
SWIDTH 324 0
DWIDTH 5 0
BBX 4 3 0 5
BITMAP
63
63
63
ENDCHAR
STARTCHAR uniF6C3
ENCODING 63171
SWIDTH 242 0
DWIDTH 3 0
BBX 3 3 0 -1
BITMAP
34
34
60
ENDCHAR
STARTCHAR uniFB01
ENCODING 64257
SWIDTH 582 0
DWIDTH 8 0
BBX 7 11 0 0
BITMAP
0BE4
1E60
2C00
BF6C
6D2C
2C2C
2C2C
2C2C
2C2C
2C2C
2C2C
ENDCHAR
STARTCHAR uniFB02
ENCODING 64258
SWIDTH 591 0
DWIDTH 8 0
BBX 8 11 0 0
BITMAP
0BF9
1E6D
2C1D
BF9D
2D1D
2C1D
2C1D
2C1D
2C1D
2C1D
2C1D
ENDCHAR
STARTCHAR uniFB03
ENCODING 64259
SWIDTH 892 0
DWIDTH 12 0
BBX 12 11 0 0
BITMAP
0BC7F4
1E4F64
2C1D00
BFFF8E
2D6D4E
2C1D0E
2C1D0E
2C1D0E
2C1D0E
2C1D0E
2C1D0E
ENDCHAR
STARTCHAR uniFB04
ENCODING 64260
SWIDTH 892 0
DWIDTH 12 0
BBX 12 11 0 0
BITMAP
0BC7F9
1E4E6E
2C1D0E
BFFF8E
2D6D4E
2C1D0E
2C1D0E
2C1D0E
2C1D0E
2C1D0E
2C1D0E
ENDCHAR
STARTCHAR uniFEFF
ENCODING 65279
SWIDTH 0 0
DWIDTH 0 0
BBX 1 1 0 0
BITMAP
00
ENDCHAR
STARTCHAR uniFFFC
ENCODING 65532
SWIDTH 1023 0
DWIDTH 14 0
BBX 14 13 0 -3
BITMAP
79DB7DF0
50000020
00000000
50000020
50000020
03DF8100
596F8120
09689600
53DF8E20
50000020
00000000
50000020
79DB7DF0
ENDCHAR
STARTCHAR uniFFFD
ENCODING 65533
SWIDTH 1025 0
DWIDTH 14 0
BBX 13 14 1 -3
BITMAP
00180000
007E0000
01FF8000
07FFD000
0F81F400
3F68BD00
BFF8BF40
FFF1FF40
3FD3FD00
0FFFF400
07D7D000
01FF8000
007E0000
00180000
ENDCHAR
STARTCHAR .notdef
ENCODING -1
SWIDTH 443 0
DWIDTH 6 0
BBX 6 10 0 0
BITMAP
7FD0
5050
5050
4510
4510
4510
4510
5050
5050
7FD0
ENDCHAR
STARTCHAR glyph369
ENCODING -1
SWIDTH 396 0
DWIDTH 6 0
BBX 5 2 0 8
BITMAP
7280
2600
ENDCHAR
STARTCHAR uni2009.locl
ENCODING -1
SWIDTH 125 0
DWIDTH 2 0
BBX 1 1 0 0
BITMAP
00
ENDCHAR
STARTCHAR f_f.dlig
ENCODING -1
SWIDTH 638 0
DWIDTH 9 0
BBX 9 11 0 0
BITMAP
0BCBC0
1E5E40
2C2C00
BFFF80
2D6D00
2C2C00
2C2C00
2C2C00
2C2C00
2C2C00
2C2C00
ENDCHAR
STARTCHAR longs_t.dlig
ENCODING -1
SWIDTH 633 0
DWIDTH 9 0
BBX 9 11 0 0
BITMAP
0BE800
1E6C00
2C2C00
BCBF40
2C6D00
2C2C00
2C2C00
2C2C00
2C2C00
2C1E40
2C0B40
ENDCHAR
STARTCHAR s_t.dlig
ENCODING -1
SWIDTH 839 0
DWIDTH 12 0
BBX 12 11 0 0
BITMAP
002F80
0075E0
0070B0
1BF6FD
39B5B4
7414B0
2E80B0
06F4B0
6038B0
79B478
1BD02D
ENDCHAR
STARTCHAR two.dnom
ENCODING -1
SWIDTH 370 0
DWIDTH 5 0
BBX 5 5 0 0
BITMAP
2E00
6340
0700
2800
7F80
ENDCHAR
STARTCHAR one.dnom
ENCODING -1
SWIDTH 370 0
DWIDTH 5 0
BBX 3 5 1 0
BITMAP
64
F8
28
28
28
ENDCHAR
STARTCHAR zero.dnom
ENCODING -1
SWIDTH 370 0
DWIDTH 5 0
BBX 5 5 0 0
BITMAP
2E00
7280
6280
7280
2E00
ENDCHAR
STARTCHAR nine.c2sc
ENCODING -1
SWIDTH 514 0
DWIDTH 7 0
BBX 7 8 0 0
BITMAP
1B90
39B0
7474
7874
2FF4
01B4
06E0
0F40
ENDCHAR
STARTCHAR eight.c2sc
ENCODING -1
SWIDTH 514 0
DWIDTH 7 0
BBX 7 8 0 0
BITMAP
1FD0
39B4
3874
1FE0
39B4
7438
79B4
1FD0
ENDCHAR
STARTCHAR seven.c2sc
ENCODING -1
SWIDTH 514 0
DWIDTH 7 0
BBX 7 8 0 0
BITMAP
BFF8
55B4
00B0
01D0
02C0
0740
0B00
1D00
ENDCHAR
STARTCHAR six.c2sc
ENCODING -1
SWIDTH 513 0
DWIDTH 7 0
BBX 7 8 0 0
BITMAP
06D0
1E40
3800
7BE0
79B8
7438
3DB4
1BE0
ENDCHAR
STARTCHAR five.c2sc
ENCODING -1
SWIDTH 514 0
DWIDTH 7 0
BBX 6 8 1 0
BITMAP
BFD0
B540
E000
FF80
56D0
40E0
E6D0
6F80
ENDCHAR
STARTCHAR four.c2sc
ENCODING -1
SWIDTH 514 0
DWIDTH 7 0
BBX 7 8 0 0
BITMAP
01E0
03E0
0BE0
1DE0
34E0
BFFC
55F4
00E0
ENDCHAR
STARTCHAR three.c2sc
ENCODING -1
SWIDTH 514 0
DWIDTH 7 0
BBX 7 8 0 0
BITMAP
1FD0
79B4
1074
0BE0
01B4
1074
79B4
1FD0
ENDCHAR
STARTCHAR two.c2sc
ENCODING -1
SWIDTH 514 0
DWIDTH 7 0
BBX 7 8 0 0
BITMAP
1BD0
79B4
6074
00B0
02D0
0B40
3D54
7FF8
ENDCHAR
STARTCHAR one.c2sc
ENCODING -1
SWIDTH 514 0
DWIDTH 7 0
BBX 4 8 1 0
BITMAP
1A
FF
4B
0B
0B
0B
0B
0B
ENDCHAR
STARTCHAR zero.c2sc
ENCODING -1
SWIDTH 514 0
DWIDTH 7 0
BBX 7 8 0 0
BITMAP
1BD0
3DB4
7474
7438
7438
7474
3DB0
1BD0
ENDCHAR
STARTCHAR Z.c2sc
ENCODING -1
SWIDTH 520 0
DWIDTH 7 0
BBX 7 8 0 0
BITMAP
BFF8
55B4
01E0
03C0
0B40
1D00
7D54
BFFC
ENDCHAR
STARTCHAR Y.c2sc
ENCODING -1
SWIDTH 529 0
DWIDTH 7 0
BBX 7 8 0 0
BITMAP
B02C
3878
2CB0
0ED0
0BC0
0380
0380
0380
ENDCHAR
STARTCHAR X.c2sc
ENCODING -1
SWIDTH 545 0
DWIDTH 8 0
BBX 8 8 0 0
BITMAP
743C
2C74
1EE0
0BC0
0BD0
1EE0
3C74
B42D
ENDCHAR
STARTCHAR W.c2sc
ENCODING -1
SWIDTH 753 0
DWIDTH 11 0
BBX 11 8 0 0
BITMAP
B0B074
74B4B0
34F8A0
39DCD0
2A8DD0
1E4EC0
0F4B80
0F0780
ENDCHAR
STARTCHAR V.c2sc
ENCODING -1
SWIDTH 560 0
DWIDTH 8 0
BBX 8 8 0 0
BITMAP
B00E
741D
382C
2C34
1D70
0EA0
07D0
03C0
ENDCHAR
STARTCHAR U.c2sc
ENCODING -1
SWIDTH 564 0
DWIDTH 8 0
BBX 8 8 0 0
BITMAP
741D
741D
741D
741D
741D
742C
3D7C
1BE0
ENDCHAR
STARTCHAR T.c2sc
ENCODING -1
SWIDTH 528 0
DWIDTH 7 0
BBX 7 8 0 0
BITMAP
BFFC
5794
0380
0380
0380
0380
0380
0380
ENDCHAR
STARTCHAR S.c2sc
ENCODING -1
SWIDTH 525 0
DWIDTH 7 0
BBX 7 8 0 0
BITMAP
1BE0
3978
7814
2F90
06F4
6038
7978
1BE0
ENDCHAR
STARTCHAR R.c2sc
ENCODING -1
SWIDTH 544 0
DWIDTH 8 0
BBX 7 8 0 0
BITMAP
7FE0
7978
742C
743C
7FF4
79F0
7478
742C
ENDCHAR
STARTCHAR Q.c2sc
ENCODING -1
SWIDTH 593 0
DWIDTH 8 0
BBX 8 9 0 -1
BITMAP
0BE4
2D7C
741E
740E
740E
741E
2D7C
0BF8
001D
ENDCHAR
STARTCHAR P.c2sc
ENCODING -1
SWIDTH 553 0
DWIDTH 8 0
BBX 8 8 0 0
BITMAP
7FE4
797C
741D
742C
7FF4
7940
7400
7400
ENDCHAR
STARTCHAR O.c2sc
ENCODING -1
SWIDTH 593 0
DWIDTH 8 0
BBX 8 8 0 0
BITMAP
0BE4
2E7C
740E
740E
740E
740E
2D7C
0BE4
ENDCHAR
STARTCHAR N.c2sc
ENCODING -1
SWIDTH 607 0
DWIDTH 9 0
BBX 8 8 0 0
BITMAP
780E
7D0E
7F0E
7B8E
75DE
74BE
743E
741E
ENDCHAR
STARTCHAR M.c2sc
ENCODING -1
SWIDTH 752 0
DWIDTH 11 0
BBX 10 8 0 0
BITMAP
7C02E0
7E03E0
7B07E0
774EA0
769DE0
75E8E0
74F4E0
74B0E0
ENDCHAR
STARTCHAR L.c2sc
ENCODING -1
SWIDTH 465 0
DWIDTH 7 0
BBX 7 8 0 0
BITMAP
7400
7400
7400
7400
7400
7400
7950
7FF4
ENDCHAR
STARTCHAR K.c2sc
ENCODING -1
SWIDTH 544 0
DWIDTH 8 0
BBX 8 8 0 0
BITMAP
743D
74B4
76D0
7F80
7FD0
78F0
7478
742D
ENDCHAR
STARTCHAR J.c2sc
ENCODING -1
SWIDTH 479 0
DWIDTH 7 0
BBX 6 8 0 0
BITMAP
00B0
00B0
00B0
00B0
00B0
50B0
B9E0
2F80
ENDCHAR
STARTCHAR I.c2sc
ENCODING -1
SWIDTH 248 0
DWIDTH 3 0
BBX 2 8 1 0
BITMAP
E0
E0
E0
E0
E0
E0
E0
E0
ENDCHAR
STARTCHAR H.c2sc
ENCODING -1
SWIDTH 608 0
DWIDTH 9 0
BBX 8 8 0 0
BITMAP
740E
740E
740E
7FFE
795E
740E
740E
740E
ENDCHAR
STARTCHAR G.c2sc
ENCODING -1
SWIDTH 581 0
DWIDTH 8 0
BBX 8 8 0 0
BITMAP
0BE4
2D6C
7409
7400
74FE
785E
2E6D
0BF8
ENDCHAR
STARTCHAR F.c2sc
ENCODING -1
SWIDTH 471 0
DWIDTH 7 0
BBX 7 8 0 0
BITMAP
7FF4
7950
7400
7FF0
7950
7400
7400
7400
ENDCHAR
STARTCHAR dollar.c2sc
ENCODING -1
SWIDTH 525 0
DWIDTH 7 0
BBX 7 12 0 -2
BITMAP
0140
0240
1BE0
3978
7814
2F90
06F4
6038
7978
1BE0
0240
0140
ENDCHAR
STARTCHAR sterling.c2sc
ENCODING -1
SWIDTH 549 0
DWIDTH 8 0
BBX 8 8 0 0
BITMAP
07E0
1E78
1C28
2C00
BFE0
2C00
3D54
3FFD
ENDCHAR
STARTCHAR yen.c2sc
ENCODING -1
SWIDTH 455 0
DWIDTH 6 0
BBX 6 8 0 0
BITMAP
B0B0
74E0
29D0
1F80
BFE0
0B00
BFE0
0B00
ENDCHAR
STARTCHAR Gamma.c2sc
ENCODING -1
SWIDTH 465 0
DWIDTH 7 0
BBX 7 8 0 0
BITMAP
7FF4
7950
7400
7400
7400
7400
7400
7400
ENDCHAR
STARTCHAR uni0394.c2sc
ENCODING -1
SWIDTH 560 0
DWIDTH 8 0
BBX 8 8 0 0
BITMAP
03C0
07D0
0EA0
1D70
2C34
382C
796D
BFFE
ENDCHAR
STARTCHAR Theta.c2sc
ENCODING -1
SWIDTH 593 0
DWIDTH 8 0
BBX 8 8 0 0
BITMAP
0BE4
2E7C
740E
77EE
755E
740E
2D7C
0BE4
ENDCHAR
STARTCHAR Lambda.c2sc
ENCODING -1
SWIDTH 560 0
DWIDTH 8 0
BBX 8 8 0 0
BITMAP
03C0
07D0
0EE0
1DB0
2C34
382C
741D
B00E
ENDCHAR
STARTCHAR Xi.c2sc
ENCODING -1
SWIDTH 449 0
DWIDTH 6 0
BBX 6 8 0 0
BITMAP
BFE0
5550
0000
3FD0
1540
0000
5550
BFE0
ENDCHAR
STARTCHAR Pi.c2sc
ENCODING -1
SWIDTH 605 0
DWIDTH 8 0
BBX 8 8 0 0
BITMAP
7FFE
795E
740E
740E
740E
740E
740E
740E
ENDCHAR
STARTCHAR Sigma.c2sc
ENCODING -1
SWIDTH 512 0
DWIDTH 7 0
BBX 7 8 0 0
BITMAP
BFF8
7D54
1D00
0B40
0B40
1D00
7D54
BFF8
ENDCHAR
STARTCHAR Phi.c2sc
ENCODING -1
SWIDTH 701 0
DWIDTH 10 0
BBX 10 8 0 0
BITMAP
00E000
0BFE00
3DF780
74E1D0
74E1D0
3DF780
0BFE00
00E000
ENDCHAR
STARTCHAR Psi.c2sc
ENCODING -1
SWIDTH 666 0
DWIDTH 9 0
BBX 9 8 0 0
BITMAP
75D380
75D380
75D380
75D380
3DEB40
1FFD00
01E000
01D000
ENDCHAR
STARTCHAR uni03A9.c2sc
ENCODING -1
SWIDTH 611 0
DWIDTH 9 0
BBX 8 8 0 0
BITMAP
0BE4
2E6D
780E
740B
740A
380D
2E2D
7F7F
ENDCHAR
STARTCHAR uni0402.c2sc
ENCODING -1
SWIDTH 695 0
DWIDTH 10 0
BBX 10 8 0 0
BITMAP
BFF800
5B9400
074000
07FE40
0797C0
0741D0
0746C0
074E40
ENDCHAR
STARTCHAR uni0404.c2sc
ENCODING -1
SWIDTH 562 0
DWIDTH 8 0
BBX 8 8 0 0
BITMAP
0BE4
2D7C
7419
7FC0
7940
7419
2D6C
0BE4
ENDCHAR
STARTCHAR uni0409.c2sc
ENCODING -1
SWIDTH 916 0
DWIDTH 13 0
BBX 13 8 0 0
BITMAP
0FFE0000
0E5E0000
1E0E0000
1D0FF900
1D0E5B00
1D0E0740
7C0E5B00
B40FF900
ENDCHAR
STARTCHAR uni040A.c2sc
ENCODING -1
SWIDTH 917 0
DWIDTH 13 0
BBX 13 8 0 0
BITMAP
740E0000
740E0000
740E0000
7FFFF900
795E5B40
740E0740
740E5B00
740FF900
ENDCHAR
STARTCHAR uni040B.c2sc
ENCODING -1
SWIDTH 698 0
DWIDTH 10 0
BBX 10 8 0 0
BITMAP
BFF800
5B9400
074000
07FE40
0797C0
0741D0
0741D0
0741D0
ENDCHAR
STARTCHAR uni040F.c2sc
ENCODING -1
SWIDTH 604 0
DWIDTH 8 0
BBX 8 10 0 -2
BITMAP
740E
740E
740E
740E
740E
740E
795E
7FFE
02C0
02C0
ENDCHAR
STARTCHAR uni0411.c2sc
ENCODING -1
SWIDTH 555 0
DWIDTH 8 0
BBX 8 8 0 0
BITMAP
7FF4
7950
7400
7FE4
797C
741D
797C
7FE4
ENDCHAR
STARTCHAR uni0414.c2sc
ENCODING -1
SWIDTH 668 0
DWIDTH 9 0
BBX 9 10 0 -2
BITMAP
0BFF00
0F5F00
0E0B00
0E0B00
0E0B00
1D0B00
7D5F40
BFFFC0
B002C0
B002C0
ENDCHAR
STARTCHAR uni0416.c2sc
ENCODING -1
SWIDTH 778 0
DWIDTH 11 0
BBX 11 8 0 0
BITMAP
7874B4
2D75E0
0E77C0
0BFF40
0FBB80
1D76D0
3C74F0
B474B4
ENDCHAR
STARTCHAR uni0417.c2sc
ENCODING -1
SWIDTH 534 0
DWIDTH 7 0
BBX 7 8 0 0
BITMAP
1FE0
79B8
1078
07E0
0174
1038
79B8
1FE0
ENDCHAR
STARTCHAR uni0418.c2sc
ENCODING -1
SWIDTH 611 0
DWIDTH 9 0
BBX 8 8 0 0
BITMAP
741E
743E
74BE
75DE
778E
7F0E
7D0E
780E
ENDCHAR
STARTCHAR uni041A.c2sc
ENCODING -1
SWIDTH 544 0
DWIDTH 8 0
BBX 7 8 0 0
BITMAP
7438
74B0
76D0
7F80
7AC0
75E0
74B4
743C
ENDCHAR
STARTCHAR uni041B.c2sc
ENCODING -1
SWIDTH 599 0
DWIDTH 8 0
BBX 8 8 0 0
BITMAP
0FFE
0E5E
1D0E
1D0E
1D0E
1D0E
7C0E
B40E
ENDCHAR
STARTCHAR uni0423.c2sc
ENCODING -1
SWIDTH 534 0
DWIDTH 7 0
BBX 8 8 0 0
BITMAP
B42D
3838
2D74
0EA0
0BD0
03C0
0740
2E00
ENDCHAR
STARTCHAR uni0426.c2sc
ENCODING -1
SWIDTH 670 0
DWIDTH 9 0
BBX 9 10 0 -2
BITMAP
740E00
740E00
740E00
740E00
740E00
740E00
795E40
7FFFC0
0002C0
0002C0
ENDCHAR
STARTCHAR uni0427.c2sc
ENCODING -1
SWIDTH 568 0
DWIDTH 8 0
BBX 7 8 0 0
BITMAP
B02C
B02C
B02C
742C
2FFC
056C
002C
002C
ENDCHAR
STARTCHAR uni0428.c2sc
ENCODING -1
SWIDTH 814 0
DWIDTH 11 0
BBX 11 8 0 0
BITMAP
743838
743838
743838
743838
743838
743838
797978
7FFFF8
ENDCHAR
STARTCHAR uni0429.c2sc
ENCODING -1
SWIDTH 879 0
DWIDTH 12 0
BBX 12 10 0 -2
BITMAP
743838
743838
743838
743838
743838
743838
797979
7FFFFF
00000B
00000A
ENDCHAR
STARTCHAR uni042A.c2sc
ENCODING -1
SWIDTH 668 0
DWIDTH 9 0
BBX 9 8 0 0
BITMAP
FF0000
5B0000
0B0000
0BFE00
0B5B80
0B02C0
0B5780
0BFE00
ENDCHAR
STARTCHAR uni042B.c2sc
ENCODING -1
SWIDTH 765 0
DWIDTH 11 0
BBX 10 8 0 0
BITMAP
7400B0
7400B0
7400B0
7FE4B0
797CB0
741DB0
797CB0
7FE4B0
ENDCHAR
STARTCHAR uni042C.c2sc
ENCODING -1
SWIDTH 550 0
DWIDTH 8 0
BBX 8 8 0 0
BITMAP
7400
7400
7400
7FE4
797C
741D
797C
7FE4
ENDCHAR
STARTCHAR uni042D.c2sc
ENCODING -1
SWIDTH 562 0
DWIDTH 8 0
BBX 8 8 0 0
BITMAP
1BE0
7978
601C
03FD
016D
602C
79B8
1BE0
ENDCHAR
STARTCHAR uni042E.c2sc
ENCODING -1
SWIDTH 821 0
DWIDTH 12 0
BBX 11 8 0 0
BITMAP
742F90
74B9B4
74E038
7FD02C
79D02C
74E038
7479B4
741F90
ENDCHAR
STARTCHAR uni042F.c2sc
ENCODING -1
SWIDTH 566 0
DWIDTH 8 0
BBX 7 8 0 0
BITMAP
0BFC
3D6C
382C
382C
1FFC
0E6C
2C2C
782C
ENDCHAR
STARTCHAR uni0492.c2sc
ENCODING -1
SWIDTH 516 0
DWIDTH 7 0
BBX 7 8 0 0
BITMAP
1FFC
1D54
1D00
FF80
2D00
1D00
1D00
1D00
ENDCHAR
STARTCHAR uni0496.c2sc
ENCODING -1
SWIDTH 821 0
DWIDTH 12 0
BBX 12 10 0 -2
BITMAP
7874B4
2D75E0
0E77C0
0BFF40
0FBB80
1D76D0
3C74F4
B474BD
00001D
00001D
ENDCHAR
STARTCHAR uni049A.c2sc
ENCODING -1
SWIDTH 576 0
DWIDTH 8 0
BBX 8 10 0 -2
BITMAP
7438
74B0
76D0
7F80
7AC0
75E0
74B9
743F
000B
000B
ENDCHAR
STARTCHAR uni049C.c2sc
ENCODING -1
SWIDTH 637 0
DWIDTH 9 0
BBX 9 8 0 0
BITMAP
740B40
761D00
7B7800
7FF000
7BB400
7B3C00
741E00
740B40
ENDCHAR
STARTCHAR uni04A0.c2sc
ENCODING -1
SWIDTH 678 0
DWIDTH 10 0
BBX 9 8 0 0
BITMAP
BF4780
5B4F00
076D00
07F800
07BC00
075E00
074B40
0743C0
ENDCHAR
STARTCHAR uni04A8.c2sc
ENCODING -1
SWIDTH 742 0
DWIDTH 10 0
BBX 10 8 0 0
BITMAP
0A2F40
3DB6D0
74E0E0
74E0E0
74E0E0
78B1D0
2E7BD0
06FFE0
ENDCHAR
STARTCHAR uni04B0.c2sc
ENCODING -1
SWIDTH 543 0
DWIDTH 8 0
BBX 7 8 0 0
BITMAP
B02C
3878
2CB0
0ED0
2FF0
0780
0380
0380
ENDCHAR
STARTCHAR uni04B2.c2sc
ENCODING -1
SWIDTH 595 0
DWIDTH 8 0
BBX 8 10 0 -2
BITMAP
743C
2C74
1EE0
0BC0
0BD0
1EE0
3C79
B42F
0007
0007
ENDCHAR
STARTCHAR uni04B4.c2sc
ENCODING -1
SWIDTH 822 0
DWIDTH 12 0
BBX 11 10 0 -2
BITMAP
BFF9D0
5B95D0
0741D0
0741D0
0741D0
0741D0
0795E4
07FFF8
000038
000038
ENDCHAR
STARTCHAR uni04B8.c2sc
ENCODING -1
SWIDTH 568 0
DWIDTH 8 0
BBX 7 8 0 0
BITMAP
B02C
B02C
B16C
766C
2FFC
06AC
026C
002C
ENDCHAR
STARTCHAR uni04BA.c2sc
ENCODING -1
SWIDTH 568 0
DWIDTH 8 0
BBX 8 8 0 0
BITMAP
7400
7400
7400
7FE4
796D
741D
740E
740E
ENDCHAR
STARTCHAR uni04BC.c2sc
ENCODING -1
SWIDTH 749 0
DWIDTH 10 0
BBX 10 8 0 0
BITMAP
00BE40
53D6D0
A740E0
7FFFF0
0B9550
078000
02E580
006F80
ENDCHAR
STARTCHAR uni04D8.c2sc
ENCODING -1
SWIDTH 602 0
DWIDTH 8 0
BBX 8 8 0 0
BITMAP
1BE4
196D
000E
7FFF
755F
740E
2D7D
0BE4
ENDCHAR
STARTCHAR uni04E0.c2sc
ENCODING -1
SWIDTH 534 0
DWIDTH 7 0
BBX 7 8 0 0
BITMAP
7FF8
15F4
02C0
07E0
01B8
1038
79B8
1FE0
ENDCHAR
STARTCHAR uni04E8.c2sc
ENCODING -1
SWIDTH 593 0
DWIDTH 8 0
BBX 8 8 0 0
BITMAP
0BE4
2D6C
740E
7FFE
795E
781E
2E7C
0BE4
ENDCHAR
STARTCHAR lira.c2sc
ENCODING -1
SWIDTH 549 0
DWIDTH 8 0
BBX 8 8 0 0
BITMAP
07E0
1E78
2C14
BFE0
2C00
BFE0
3D54
3FFD
ENDCHAR
STARTCHAR Euro.c2sc
ENCODING -1
SWIDTH 495 0
DWIDTH 7 0
BBX 7 8 0 0
BITMAP
06F4
1E50
BFE0
2C00
BFE0
1D00
0F50
06F4
ENDCHAR
STARTCHAR uni2116.c2sc
ENCODING -1
SWIDTH 1026 0
DWIDTH 14 0
BBX 14 8 0 0
BITMAP
780E1F80
7D0E3490
7F0E30A0
7B8E3490
75DE1F80
74BE0000
743E2FD0
741E0000
ENDCHAR
STARTCHAR uni20BD.c2sc
ENCODING -1
SWIDTH 614 0
DWIDTH 9 0
BBX 8 8 0 0
BITMAP
1FF8
1E5F
1D0B
1D0B
BFFD
5E50
BFD0
5E40
ENDCHAR
STARTCHAR three.dnom
ENCODING -1
SWIDTH 370 0
DWIDTH 5 0
BBX 5 5 0 0
BITMAP
2E00
5340
1F00
5280
6E40
ENDCHAR
STARTCHAR four.dnom
ENCODING -1
SWIDTH 370 0
DWIDTH 5 0
BBX 5 5 0 0
BITMAP
0B00
1F00
3700
BF80
0340
ENDCHAR
STARTCHAR five.dnom
ENCODING -1
SWIDTH 370 0
DWIDTH 5 0
BBX 5 5 0 0
BITMAP
3F40
3000
7F40
1280
2F40
ENDCHAR
STARTCHAR six.dnom
ENCODING -1
SWIDTH 370 0
DWIDTH 5 0
BBX 5 5 0 0
BITMAP
1A00
7400
7F40
7280
2F40
ENDCHAR
STARTCHAR seven.dnom
ENCODING -1
SWIDTH 370 0
DWIDTH 5 0
BBX 5 5 0 0
BITMAP
BF80
0340
0A00
0D00
2800
ENDCHAR
STARTCHAR eight.dnom
ENCODING -1
SWIDTH 370 0
DWIDTH 5 0
BBX 5 5 0 0
BITMAP
2E00
7340
3F00
7280
2F40
ENDCHAR
STARTCHAR nine.dnom
ENCODING -1
SWIDTH 370 0
DWIDTH 5 0
BBX 5 5 0 0
BITMAP
2E00
7280
7F80
0740
2E00
ENDCHAR
STARTCHAR glyph550
ENCODING -1
SWIDTH 465 0
DWIDTH 7 0
BBX 5 1 1 5
BITMAP
FF80
ENDCHAR
STARTCHAR glyph551
ENCODING -1
SWIDTH 336 0
DWIDTH 5 0
BBX 4 5 1 8
BITMAP
1D
24
B4
98
B4
ENDCHAR
STARTCHAR E.c2sc
ENCODING -1
SWIDTH 484 0
DWIDTH 7 0
BBX 7 8 0 0
BITMAP
7FF4
7950
7400
7FF0
7950
7400
7950
7FF4
ENDCHAR
STARTCHAR g.ss01
ENCODING -1
SWIDTH 528 0
DWIDTH 7 0
BBX 8 11 0 -3
BITMAP
1FFD
79B4
7038
79B4
2FD0
3400
3FE4
757C
E02C
B5B8
2FD0
ENDCHAR
STARTCHAR alpha.ss02
ENCODING -1
SWIDTH 591 0
DWIDTH 8 0
BBX 8 8 0 0
BITMAP
0B9E
2DBD
782C
742C
742C
742C
3DBD
1B9E
ENDCHAR
STARTCHAR R.ss03
ENCODING -1
SWIDTH 658 0
DWIDTH 9 0
BBX 8 10 1 0
BITMAP
FFE4
F5BC
E02D
E02C
FFF4
F5B8
E02C
E02D
E02D
E01D
ENDCHAR
STARTCHAR K.ss04
ENCODING -1
SWIDTH 644 0
DWIDTH 9 0
BBX 8 10 1 0
BITMAP
E02D
E078
E1F0
E3D0
FF80
FBC0
E1E0
E0B4
E03C
E01E
ENDCHAR
STARTCHAR k.ss04
ENCODING -1
SWIDTH 523 0
DWIDTH 7 0
BBX 6 11 1 0
BITMAP
E000
E000
E000
E1E0
E2C0
E740
FE00
EB40
E380
E1D0
E0F0
ENDCHAR
STARTCHAR K.ss05
ENCODING -1
SWIDTH 652 0
DWIDTH 9 0
BBX 8 10 1 0
BITMAP
E03D
E0B4
E2E0
E780
FE00
FF00
E780
E1E0
E0B8
E02D
ENDCHAR
STARTCHAR k.ss05
ENCODING -1
SWIDTH 521 0
DWIDTH 7 0
BBX 6 11 1 0
BITMAP
E000
E000
E000
E1E0
E780
EF00
FD00
FE00
EB40
E3C0
E1E0
ENDCHAR
STARTCHAR D.c2sc
ENCODING -1
SWIDTH 559 0
DWIDTH 8 0
BBX 8 8 0 0
BITMAP
7FD0
79B8
742C
741D
741D
742C
79B8
7FD0
ENDCHAR
STARTCHAR C.c2sc
ENCODING -1
SWIDTH 562 0
DWIDTH 8 0
BBX 8 8 0 0
BITMAP
0BE4
2D7C
7419
7400
7400
7419
2D6C
0BE4
ENDCHAR
STARTCHAR B.c2sc
ENCODING -1
SWIDTH 546 0
DWIDTH 8 0
BBX 7 8 0 0
BITMAP
7FE0
7978
7438
7FF4
7878
742C
797C
7FE4
ENDCHAR
STARTCHAR A.c2sc
ENCODING -1
SWIDTH 577 0
DWIDTH 8 0
BBX 8 8 0 0
BITMAP
03C0
07D0
0AA0
0D74
2C38
3FFC
755D
B00E
ENDCHAR
STARTCHAR glyph564
ENCODING -1
SWIDTH 252 0
DWIDTH 4 0
BBX 2 3 1 8
BITMAP
60
E0
D0
ENDCHAR
STARTCHAR glyph565
ENCODING -1
SWIDTH 453 0
DWIDTH 6 0
BBX 4 4 1 8
BITMAP
70
24
D7
7D
ENDCHAR
STARTCHAR glyph566
ENCODING -1
SWIDTH 0 0
DWIDTH 0 0
BBX 4 5 -6 8
BITMAP
0D
18
00
A2
8E
ENDCHAR
STARTCHAR glyph567
ENCODING -1
SWIDTH 505 0
DWIDTH 7 0
BBX 7 3 1 9
BITMAP
0038
2E60
A340
ENDCHAR
STARTCHAR glyph568
ENCODING -1
SWIDTH 505 0
DWIDTH 7 0
BBX 7 3 -1 8
BITMAP
A000
66E0
0A34
ENDCHAR
STARTCHAR glyph569
ENCODING -1
SWIDTH 505 0
DWIDTH 7 0
BBX 6 4 1 9
BITMAP
00A0
0070
2E90
A240
ENDCHAR
STARTCHAR glyph570
ENCODING -1
SWIDTH 505 0
DWIDTH 7 0
BBX 5 5 1 9
BITMAP
3600
5A00
0000
2E00
A240
ENDCHAR
STARTCHAR uni0490.c2sc
ENCODING -1
SWIDTH 465 0
DWIDTH 7 0
BBX 7 10 0 0
BITMAP
0074
0074
7FF4
7950
7400
7400
7400
7400
7400
7400
ENDCHAR
STARTCHAR glyph572
ENCODING -1
SWIDTH 453 0
DWIDTH 6 0
BBX 4 4 1 8
BITMAP
0D
18
D7
7D
ENDCHAR
STARTCHAR glyph573
ENCODING -1
SWIDTH 453 0
DWIDTH 6 0
BBX 4 5 1 8
BITMAP
28
0D
28
D7
7D
ENDCHAR
STARTCHAR zero.numr
ENCODING -1
SWIDTH 370 0
DWIDTH 5 0
BBX 5 5 0 5
BITMAP
2E00
7280
6280
7280
2E00
ENDCHAR
STARTCHAR four.numr
ENCODING -1
SWIDTH 370 0
DWIDTH 5 0
BBX 5 5 0 5
BITMAP
0B00
1F00
3700
BF80
0340
ENDCHAR
STARTCHAR five.numr
ENCODING -1
SWIDTH 370 0
DWIDTH 5 0
BBX 5 5 0 5
BITMAP
3F40
3000
7F40
1280
2F40
ENDCHAR
STARTCHAR six.numr
ENCODING -1
SWIDTH 370 0
DWIDTH 5 0
BBX 5 5 0 5
BITMAP
1A00
7400
7F40
7280
2F40
ENDCHAR
STARTCHAR seven.numr
ENCODING -1
SWIDTH 370 0
DWIDTH 5 0
BBX 5 5 0 5
BITMAP
BF80
0340
0A00
0D00
2800
ENDCHAR
STARTCHAR eight.numr
ENCODING -1
SWIDTH 370 0
DWIDTH 5 0
BBX 5 5 0 5
BITMAP
2E00
7340
3F00
7280
2F40
ENDCHAR
STARTCHAR nine.numr
ENCODING -1
SWIDTH 370 0
DWIDTH 5 0
BBX 5 5 0 5
BITMAP
2E00
7280
7F80
0740
2E00
ENDCHAR
STARTCHAR C.ss06
ENCODING -1
SWIDTH 684 0
DWIDTH 10 0
BBX 9 10 0 0
BITMAP
06F900
1F9F40
2C0380
380140
780000
780000
380140
2C0380
1F9B40
06F900
ENDCHAR
STARTCHAR G.ss06
ENCODING -1
SWIDTH 704 0
DWIDTH 10 0
BBX 9 10 0 0
BITMAP
06F900
1F9B40
2D0380
380040
780000
782FC0
3816C0
2D02C0
0F9BC0
02FE00
ENDCHAR
STARTCHAR D.ss06
ENCODING -1
SWIDTH 690 0
DWIDTH 10 0
BBX 8 10 1 0
BITMAP
FF90
F5B8
E02D
E00E
E00F
E00F
E00E
E02D
F5B8
FF90
ENDCHAR
STARTCHAR O.ss06
ENCODING -1
SWIDTH 734 0
DWIDTH 10 0
BBX 10 10 0 0
BITMAP
02F900
0FAF40
2D03C0
3801D0
7801D0
7401D0
3801D0
2D03C0
0F9F40
02F900
ENDCHAR
STARTCHAR Q.ss06
ENCODING -1
SWIDTH 735 0
DWIDTH 10 0
BBX 10 12 0 -2
BITMAP
02F900
0FAF40
2D03C0
3801D0
7801D0
7401D0
3801D0
2D03C0
0F9F40
02FF00
0007C0
000140
ENDCHAR
STARTCHAR one.oldstyle.pnum
ENCODING -1
SWIDTH 513 0
DWIDTH 7 0
BBX 4 8 1 0
BITMAP
1B
FF
4B
0B
0B
0B
0B
0B
ENDCHAR
STARTCHAR two.oldstyle.pnum
ENCODING -1
SWIDTH 563 0
DWIDTH 8 0
BBX 7 8 1 0
BITMAP
2F80
F5E0
90B0
01E0
0780
1E00
B950
FFF4
ENDCHAR
STARTCHAR three.oldstyle.pnum
ENCODING -1
SWIDTH 542 0
DWIDTH 8 0
BBX 7 10 0 -2
BITMAP
7FF8
15F4
0280
0BD0
01B4
0038
003C
0038
A5F4
6F90
ENDCHAR
STARTCHAR four.oldstyle.pnum
ENCODING -1
SWIDTH 592 0
DWIDTH 8 0
BBX 8 10 0 -2
BITMAP
0078
00F8
02F8
0778
0E38
2C38
7979
BFFF
0038
0038
ENDCHAR
STARTCHAR five.oldstyle.pnum
ENCODING -1
SWIDTH 552 0
DWIDTH 8 0
BBX 7 10 1 -2
BITMAP
BFF0
B550
A000
FF80
E6E0
00B0
0074
00B0
96E0
BF40
ENDCHAR
STARTCHAR seven.oldstyle.pnum
ENCODING -1
SWIDTH 522 0
DWIDTH 7 0
BBX 7 10 0 -2
BITMAP
BFFC
557C
0074
00B0
00E0
02C0
0380
0740
0E00
1D00
ENDCHAR
STARTCHAR glyph592
ENCODING -1
SWIDTH 453 0
DWIDTH 6 0
BBX 4 5 1 8
BITMAP
B2
8A
00
D7
7D
ENDCHAR
STARTCHAR glyph593
ENCODING -1
SWIDTH 212 0
DWIDTH 3 0
BBX 3 4 0 -3
BITMAP
74
74
74
74
ENDCHAR
STARTCHAR OE.c2sc
ENCODING -1
SWIDTH 824 0
DWIDTH 12 0
BBX 12 8 0 0
BITMAP
0BFFFD
2E6D54
741D00
741FF8
741D54
741D00
2D6D54
0BFFFD
ENDCHAR
STARTCHAR nine.oldstyle.pnum
ENCODING -1
SWIDTH 587 0
DWIDTH 8 0
BBX 7 10 1 -2
BITMAP
2F80
B5F0
E074
E038
F478
7FF8
0574
00B0
16E0
7F40
ENDCHAR
STARTCHAR glyph596
ENCODING -1
SWIDTH 257 0
DWIDTH 4 0
BBX 4 4 -1 -3
BITMAP
0E
0E
6E
78
ENDCHAR
STARTCHAR three.oldstyle
ENCODING -1
SWIDTH 568 0
DWIDTH 8 0
BBX 7 10 0 -2
BITMAP
3FFC
15B4
02D0
07E0
0178
002C
002C
003C
65B4
6F90
ENDCHAR
STARTCHAR five.oldstyle
ENCODING -1
SWIDTH 568 0
DWIDTH 8 0
BBX 7 10 1 -2
BITMAP
BFF0
B550
A000
FF80
F6E0
00B0
0074
00B0
96E0
BF80
ENDCHAR
STARTCHAR four.oldstyle
ENCODING -1
SWIDTH 568 0
DWIDTH 8 0
BBX 8 10 0 -2
BITMAP
0078
00F8
02F8
0778
0E38
2C38
7979
BFFF
0038
0038
ENDCHAR
STARTCHAR two.oldstyle
ENCODING -1
SWIDTH 568 0
DWIDTH 8 0
BBX 8 8 0 0
BITMAP
0BE0
3D78
642C
0078
01E0
0780
2E54
3FFD
ENDCHAR
STARTCHAR seven.oldstyle
ENCODING -1
SWIDTH 568 0
DWIDTH 8 0
BBX 8 10 0 -2
BITMAP
7FFD
156C
0038
0074
00E0
01D0
02C0
0740
0B00
0E00
ENDCHAR
STARTCHAR zero.oldstyle
ENCODING -1
SWIDTH 568 0
DWIDTH 8 0
BBX 8 8 0 0
BITMAP
0BE0
3D7C
741D
B00E
B00E
741D
3D7C
0BE0
ENDCHAR
STARTCHAR six.oldstyle
ENCODING -1
SWIDTH 568 0
DWIDTH 8 0
BBX 8 10 0 0
BITMAP
02F0
0F90
2C00
3AE0
7D78
782D
741D
382C
2E78
0BE0
ENDCHAR
STARTCHAR nine.oldstyle
ENCODING -1
SWIDTH 568 0
DWIDTH 8 0
BBX 8 10 0 -2
BITMAP
0BE0
3D78
741D
741D
382D
1FFD
016D
003C
15B4
1F90
ENDCHAR
STARTCHAR eight.oldstyle
ENCODING -1
SWIDTH 568 0
DWIDTH 8 0
BBX 7 10 0 0
BITMAP
0BE0
2D78
382C
2C38
0FF0
2D78
742C
742C
3D78
0BE0
ENDCHAR
STARTCHAR one.oldstyle
ENCODING -1
SWIDTH 568 0
DWIDTH 8 0
BBX 5 8 1 0
BITMAP
1A80
7B80
0380
0380
0380
0380
0380
0380
ENDCHAR
STARTCHAR glyph607
ENCODING -1
SWIDTH 268 0
DWIDTH 4 0
BBX 4 11 -1 -3
BITMAP
0E
0E
0E
0E
0E
0E
0E
0E
0E
1E
78
ENDCHAR
STARTCHAR glyph608
ENCODING -1
SWIDTH 268 0
DWIDTH 4 0
BBX 4 11 -1 -3
BITMAP
0E
0E
0E
0E
0E
0E
0E
0E
0E
1E
78
ENDCHAR
STARTCHAR glyph609
ENCODING -1
SWIDTH 263 0
DWIDTH 4 0
BBX 2 8 1 0
BITMAP
E0
E0
E0
E0
E0
E0
E0
E0
ENDCHAR
STARTCHAR glyph610
ENCODING -1
SWIDTH 263 0
DWIDTH 4 0
BBX 3 11 0 -3
BITMAP
38
38
38
38
38
38
38
38
A0
D0
B4
ENDCHAR
STARTCHAR glyph611
ENCODING -1
SWIDTH 263 0
DWIDTH 4 0
BBX 2 8 1 0
BITMAP
E0
E0
E0
E0
E0
E0
E0
E0
ENDCHAR
STARTCHAR germandbls.sc
ENCODING -1
SWIDTH 546 0
DWIDTH 8 0
BBX 7 8 0 0
BITMAP
1BE0
3DB4
35D0
76E4
746C
742C
757C
76E4
ENDCHAR
STARTCHAR zero.oldstyle.pnum
ENCODING -1
SWIDTH 614 0
DWIDTH 9 0
BBX 8 8 0 0
BITMAP
0BE4
2E6D
380E
740B
740B
380E
2E6D
0BE4
ENDCHAR
STARTCHAR seven.pnum
ENCODING -1
SWIDTH 524 0
DWIDTH 7 0
BBX 7 10 0 0
BITMAP
BFFC
5578
0074
00A0
01D0
02C0
0380
0B00
0E00
1D00
ENDCHAR
STARTCHAR b.ss06
ENCODING -1
SWIDTH 566 0
DWIDTH 8 0
BBX 7 11 1 0
BITMAP
E000
E000
E000
EB90
F9F0
E074
E074
E074
E074
F9F0
EB80
ENDCHAR
STARTCHAR c.ss06
ENCODING -1
SWIDTH 529 0
DWIDTH 7 0
BBX 7 8 0 0
BITMAP
0BE0
2D78
7428
7400
7400
7418
2D78
0BE0
ENDCHAR
STARTCHAR d.ss06
ENCODING -1
SWIDTH 574 0
DWIDTH 8 0
BBX 7 11 0 0
BITMAP
002C
002C
002C
0BAC
2E7C
782C
742C
742C
742C
2E7C
0BAC
ENDCHAR
STARTCHAR g.ss06
ENCODING -1
SWIDTH 571 0
DWIDTH 8 0
BBX 7 11 0 -3
BITMAP
0BAC
3E7C
782C
742C
742C
742C
2E7C
0BAC
002C
19B8
1BE0
ENDCHAR
STARTCHAR o.ss06
ENCODING -1
SWIDTH 578 0
DWIDTH 8 0
BBX 8 8 0 0
BITMAP
0BE0
2D78
741D
740E
740E
741D
2D7C
0BE0
ENDCHAR
STARTCHAR p.ss06
ENCODING -1
SWIDTH 572 0
DWIDTH 8 0
BBX 7 11 1 -3
BITMAP
EB80
F6E0
E074
E074
E074
E074
F5F0
EB80
E000
E000
E000
ENDCHAR
STARTCHAR q.ss06
ENCODING -1
SWIDTH 577 0
DWIDTH 8 0
BBX 7 11 0 -3
BITMAP
0BAC
3D7C
742C
742C
742C
782C
2D7C
0BAC
002C
002C
002C
ENDCHAR
STARTCHAR e.ss07
ENCODING -1
SWIDTH 536 0
DWIDTH 8 0
BBX 7 8 0 0
BITMAP
0BE0
2D78
742C
7FFC
7554
7800
2E64
0BE4
ENDCHAR
STARTCHAR g.ss07
ENCODING -1
SWIDTH 566 0
DWIDTH 8 0
BBX 7 11 0 -3
BITMAP
1BAC
3DBC
742C
742C
742C
742C
3DBC
1BAC
002C
19B4
1BD0
ENDCHAR
STARTCHAR one.pnum
ENCODING -1
SWIDTH 455 0
DWIDTH 6 0
BBX 5 10 0 0
BITMAP
1680
7F80
0380
0380
0380
0380
0380
0380
0380
0380
ENDCHAR
STARTCHAR ampersand.c2sc
ENCODING -1
SWIDTH 626 0
DWIDTH 9 0
BBX 8 8 0 0
BITMAP
0B90
2DE0
2CE0
0F80
2F8A
74ED
79BC
1FEE
ENDCHAR
STARTCHAR Lslash.c2sc
ENCODING -1
SWIDTH 470 0
DWIDTH 7 0
BBX 7 8 0 0
BITMAP
3800
3800
3900
BE00
B800
3800
3950
3FF4
ENDCHAR
STARTCHAR AE.c2sc
ENCODING -1
SWIDTH 784 0
DWIDTH 11 0
BBX 11 8 0 0
BITMAP
00FFF4
02F950
077800
0B3FE0
1D3D50
2FF800
797D50
B02FF8
ENDCHAR
STARTCHAR Thorn.c2sc
ENCODING -1
SWIDTH 504 0
DWIDTH 7 0
BBX 7 8 0 0
BITMAP
7400
7FD0
79B4
7438
7478
7FE0
7940
7400
ENDCHAR
STARTCHAR Oslash.c2sc
ENCODING -1
SWIDTH 593 0
DWIDTH 8 0
BBX 8 9 0 -1
BITMAP
0BED
2E7C
747E
74CE
764E
7A0E
2E7C
2BE4
1000
ENDCHAR
STARTCHAR Hbar.c2sc
ENCODING -1
SWIDTH 629 0
DWIDTH 9 0
BBX 9 8 0 0
BITMAP
380B00
BFFF40
380B00
3FFF00
395F00
380B00
380B00
380B00
ENDCHAR
STARTCHAR Eng.c2sc
ENCODING -1
SWIDTH 607 0
DWIDTH 9 0
BBX 8 11 0 -3
BITMAP
780E
7D0E
7F0E
7B8E
75DE
74BE
743E
741E
000E
006D
0078
ENDCHAR
STARTCHAR Dcroat.c2sc
ENCODING -1
SWIDTH 559 0
DWIDTH 8 0
BBX 9 8 -1 0
BITMAP
1FF400
1E6E00
1D0B00
BFC740
1E0740
1D0B00
1E6E00
1FF400
ENDCHAR
STARTCHAR Eth.c2sc
ENCODING -1
SWIDTH 559 0
DWIDTH 8 0
BBX 9 8 -1 0
BITMAP
1FF400
1E6E00
1D0B00
BFC740
1E0740
1D0B00
1E6E00
1FF400
ENDCHAR
STARTCHAR Tbar.c2sc
ENCODING -1
SWIDTH 528 0
DWIDTH 7 0
BBX 7 8 0 0
BITMAP
BFFC
5794
2FF0
0780
0380
0380
0380
0380
ENDCHAR
STARTCHAR Agrave.c2sc
ENCODING -1
SWIDTH 577 0
DWIDTH 8 0
BBX 8 11 0 0
BITMAP
0B00
0280
0000
03C0
07D0
0AA0
0D74
2C38
3FFC
755D
B00E
ENDCHAR
STARTCHAR Aacute.c2sc
ENCODING -1
SWIDTH 577 0
DWIDTH 8 0
BBX 8 11 0 0
BITMAP
00B0
01C0
0000
03C0
07D0
0AA0
0D74
2C38
3FFC
755D
B00E
ENDCHAR
STARTCHAR Acircumflex.c2sc
ENCODING -1
SWIDTH 577 0
DWIDTH 8 0
BBX 8 11 0 0
BITMAP
07D0
0A60
0000
03C0
07D0
0AA0
0D74
2C38
3FFC
755D
B00E
ENDCHAR
STARTCHAR Atilde.c2sc
ENCODING -1
SWIDTH 577 0
DWIDTH 8 0
BBX 8 11 0 0
BITMAP
0F64
18B0
0000
03C0
07D0
0AA0
0D74
2C38
3FFC
755D
B00E
ENDCHAR
STARTCHAR Adieresis.c2sc
ENCODING -1
SWIDTH 577 0
DWIDTH 8 0
BBX 8 11 0 0
BITMAP
0820
1D34
0000
03C0
07D0
0AA0
0D74
2C38
3FFC
755D
B00E
ENDCHAR
STARTCHAR Aring.c2sc
ENCODING -1
SWIDTH 577 0
DWIDTH 8 0
BBX 8 12 0 0
BITMAP
03D0
0660
03D0
0000
03C0
07D0
0AA0
0D74
2C38
3FFC
755D
B00E
ENDCHAR
STARTCHAR Aringacute.c2sc
ENCODING -1
SWIDTH 577 0
DWIDTH 8 0
BBX 8 13 0 0
BITMAP
00B0
0090
02C0
0290
02C0
03C0
07D0
0AA0
0D74
2C38
3FFC
755D
B00E
ENDCHAR
STARTCHAR Ccedilla.c2sc
ENCODING -1
SWIDTH 562 0
DWIDTH 8 0
BBX 8 11 0 -3
BITMAP
0BE4
2D7C
7419
7400
7400
7419
2D6C
0BE4
02C0
00E0
0290
ENDCHAR
STARTCHAR Egrave.c2sc
ENCODING -1
SWIDTH 484 0
DWIDTH 7 0
BBX 7 11 0 0
BITMAP
1E00
0740
0000
7FF4
7950
7400
7FF0
7950
7400
7950
7FF4
ENDCHAR
STARTCHAR Eacute.c2sc
ENCODING -1
SWIDTH 484 0
DWIDTH 7 0
BBX 7 11 0 0
BITMAP
01E0
0280
0000
7FF4
7950
7400
7FF0
7950
7400
7950
7FF4
ENDCHAR
STARTCHAR Ecircumflex.c2sc
ENCODING -1
SWIDTH 484 0
DWIDTH 7 0
BBX 7 11 0 0
BITMAP
0780
1DA0
0000
7FF4
7950
7400
7FF0
7950
7400
7950
7FF4
ENDCHAR
STARTCHAR Edieresis.c2sc
ENCODING -1
SWIDTH 484 0
DWIDTH 7 0
BBX 7 11 0 0
BITMAP
1450
2870
0000
7FF4
7950
7400
7FF0
7950
7400
7950
7FF4
ENDCHAR
STARTCHAR Igrave.c2sc
ENCODING -1
SWIDTH 248 0
DWIDTH 3 0
BBX 4 11 -1 0
BITMAP
78
1D
00
0E
0E
0E
0E
0E
0E
0E
0E
ENDCHAR
STARTCHAR Iacute.c2sc
ENCODING -1
SWIDTH 248 0
DWIDTH 3 0
BBX 3 11 1 0
BITMAP
78
A0
00
E0
E0
E0
E0
E0
E0
E0
E0
ENDCHAR
STARTCHAR Icircumflex.c2sc
ENCODING -1
SWIDTH 248 0
DWIDTH 3 0
BBX 5 11 -1 0
BITMAP
1E00
7680
0000
0E00
0E00
0E00
0E00
0E00
0E00
0E00
0E00
ENDCHAR
STARTCHAR Idieresis.c2sc
ENCODING -1
SWIDTH 248 0
DWIDTH 3 0
BBX 5 11 -1 0
BITMAP
5140
71C0
0000
0E00
0E00
0E00
0E00
0E00
0E00
0E00
0E00
ENDCHAR
STARTCHAR Ntilde.c2sc
ENCODING -1
SWIDTH 607 0
DWIDTH 9 0
BBX 8 11 0 0
BITMAP
0B68
0CB4
0000
780E
7D0E
7F0E
7B8E
75DE
74BE
743E
741E
ENDCHAR
STARTCHAR Ograve.c2sc
ENCODING -1
SWIDTH 593 0
DWIDTH 8 0
BBX 8 11 0 0
BITMAP
0B40
0280
0000
0BE4
2E7C
740E
740E
740E
740E
2D7C
0BE4
ENDCHAR
STARTCHAR Oacute.c2sc
ENCODING -1
SWIDTH 593 0
DWIDTH 8 0
BBX 8 11 0 0
BITMAP
00B0
01D0
0000
0BE4
2E7C
740E
740E
740E
740E
2D7C
0BE4
ENDCHAR
STARTCHAR Ocircumflex.c2sc
ENCODING -1
SWIDTH 593 0
DWIDTH 8 0
BBX 8 11 0 0
BITMAP
03D0
0A74
0000
0BE4
2E7C
740E
740E
740E
740E
2D7C
0BE4
ENDCHAR
STARTCHAR Otilde.c2sc
ENCODING -1
SWIDTH 593 0
DWIDTH 8 0
BBX 8 11 0 0
BITMAP
0F68
18B0
0000
0BE4
2E7C
740E
740E
740E
740E
2D7C
0BE4
ENDCHAR
STARTCHAR Odieresis.c2sc
ENCODING -1
SWIDTH 593 0
DWIDTH 8 0
BBX 8 11 0 0
BITMAP
0814
0D34
0000
0BE4
2E7C
740E
740E
740E
740E
2D7C
0BE4
ENDCHAR
STARTCHAR Ugrave.c2sc
ENCODING -1
SWIDTH 564 0
DWIDTH 8 0
BBX 8 11 0 0
BITMAP
0F00
0340
0000
741D
741D
741D
741D
741D
742C
3D7C
1BE0
ENDCHAR
STARTCHAR Uacute.c2sc
ENCODING -1
SWIDTH 564 0
DWIDTH 8 0
BBX 8 11 0 0
BITMAP
00E0
0180
0000
741D
741D
741D
741D
741D
742C
3D7C
1BE0
ENDCHAR
STARTCHAR Ucircumflex.c2sc
ENCODING -1
SWIDTH 564 0
DWIDTH 8 0
BBX 8 11 0 0
BITMAP
07D0
09A0
0000
741D
741D
741D
741D
741D
742C
3D7C
1BE0
ENDCHAR
STARTCHAR Udieresis.c2sc
ENCODING -1
SWIDTH 564 0
DWIDTH 8 0
BBX 8 11 0 0
BITMAP
0820
1C74
0000
741D
741D
741D
741D
741D
742C
3D7C
1BE0
ENDCHAR
STARTCHAR Yacute.c2sc
ENCODING -1
SWIDTH 529 0
DWIDTH 7 0
BBX 7 11 0 0
BITMAP
01E0
0280
0000
B02C
3878
2CB0
0ED0
0BC0
0380
0380
0380
ENDCHAR
STARTCHAR Amacron.c2sc
ENCODING -1
SWIDTH 577 0
DWIDTH 8 0
BBX 8 10 0 0
BITMAP
1FF4
0000
03C0
07D0
0AA0
0D74
2C38
3FFC
755D
B00E
ENDCHAR
STARTCHAR Abreve.c2sc
ENCODING -1
SWIDTH 577 0
DWIDTH 8 0
BBX 8 11 0 0
BITMAP
0D70
07D0
0000
03C0
07D0
0AA0
0D74
2C38
3FFC
755D
B00E
ENDCHAR
STARTCHAR Aogonek.c2sc
ENCODING -1
SWIDTH 577 0
DWIDTH 8 0
BBX 8 11 0 -3
BITMAP
03C0
07D0
0AA0
0D74
2C38
3FFC
755D
B00E
001C
0028
001E
ENDCHAR
STARTCHAR Cacute.c2sc
ENCODING -1
SWIDTH 562 0
DWIDTH 8 0
BBX 8 11 0 0
BITMAP
00F0
0180
0000
0BE4
2D7C
7419
7400
7400
7419
2D6C
0BE4
ENDCHAR
STARTCHAR Ccircumflex.c2sc
ENCODING -1
SWIDTH 562 0
DWIDTH 8 0
BBX 8 11 0 0
BITMAP
07D0
0960
0000
0BE4
2D7C
7419
7400
7400
7419
2D6C
0BE4
ENDCHAR
STARTCHAR Cdotaccent.c2sc
ENCODING -1
SWIDTH 562 0
DWIDTH 8 0
BBX 8 11 0 0
BITMAP
0140
0280
0000
0BE4
2D7C
7419
7400
7400
7419
2D6C
0BE4
ENDCHAR
STARTCHAR Ccaron.c2sc
ENCODING -1
SWIDTH 562 0
DWIDTH 8 0
BBX 8 11 0 0
BITMAP
0D70
03C0
0000
0BE4
2D7C
7419
7400
7400
7419
2D6C
0BE4
ENDCHAR
STARTCHAR Dcaron.c2sc
ENCODING -1
SWIDTH 559 0
DWIDTH 8 0
BBX 8 11 0 0
BITMAP
29D0
0B40
0000
7FD0
79B8
742C
741D
741D
742C
79B8
7FD0
ENDCHAR
STARTCHAR Emacron.c2sc
ENCODING -1
SWIDTH 484 0
DWIDTH 7 0
BBX 7 10 0 0
BITMAP
2FF0
0000
7FF4
7950
7400
7FF0
7950
7400
7950
7FF4
ENDCHAR
STARTCHAR Ebreve.c2sc
ENCODING -1
SWIDTH 484 0
DWIDTH 7 0
BBX 7 11 0 0
BITMAP
1CB0
0BD0
0000
7FF4
7950
7400
7FF0
7950
7400
7950
7FF4
ENDCHAR
STARTCHAR Edotaccent.c2sc
ENCODING -1
SWIDTH 484 0
DWIDTH 7 0
BBX 7 11 0 0
BITMAP
0240
0340
0000
7FF4
7950
7400
7FF0
7950
7400
7950
7FF4
ENDCHAR
STARTCHAR Eogonek.c2sc
ENCODING -1
SWIDTH 484 0
DWIDTH 7 0
BBX 7 11 0 -3
BITMAP
7FF4
7950
7400
7FF0
7950
7400
7950
7FF4
01D0
02C0
01E0
ENDCHAR
STARTCHAR Ecaron.c2sc
ENCODING -1
SWIDTH 484 0
DWIDTH 7 0
BBX 7 11 0 0
BITMAP
1DA0
0780
0000
7FF4
7950
7400
7FF0
7950
7400
7950
7FF4
ENDCHAR
STARTCHAR Gcircumflex.c2sc
ENCODING -1
SWIDTH 581 0
DWIDTH 8 0
BBX 8 11 0 0
BITMAP
07D0
0A70
0000
0BE4
2D6C
7409
7400
74FE
785E
2E6D
0BF8
ENDCHAR
STARTCHAR Gbreve.c2sc
ENCODING -1
SWIDTH 581 0
DWIDTH 8 0
BBX 8 11 0 0
BITMAP
0D74
07E0
0000
0BE4
2D6C
7409
7400
74FE
785E
2E6D
0BF8
ENDCHAR
STARTCHAR Gdotaccent.c2sc
ENCODING -1
SWIDTH 581 0
DWIDTH 8 0
BBX 8 11 0 0
BITMAP
0140
0280
0000
0BE4
2D6C
7409
7400
74FE
785E
2E6D
0BF8
ENDCHAR
STARTCHAR uni0122.c2sc
ENCODING -1
SWIDTH 581 0
DWIDTH 8 0
BBX 8 11 0 -3
BITMAP
0BE4
2D6C
7409
7400
74FE
785E
2E6D
0BF8
0280
0280
0240
ENDCHAR
STARTCHAR Hcircumflex.c2sc
ENCODING -1
SWIDTH 608 0
DWIDTH 9 0
BBX 8 11 0 0
BITMAP
02D0
0A74
0000
740E
740E
740E
7FFE
795E
740E
740E
740E
ENDCHAR
STARTCHAR Itilde.c2sc
ENCODING -1
SWIDTH 248 0
DWIDTH 3 0
BBX 5 11 -1 0
BITMAP
79C0
9780
0000
0E00
0E00
0E00
0E00
0E00
0E00
0E00
0E00
ENDCHAR
STARTCHAR Imacron.c2sc
ENCODING -1
SWIDTH 248 0
DWIDTH 3 0
BBX 5 10 -1 0
BITMAP
BFC0
0000
0E00
0E00
0E00
0E00
0E00
0E00
0E00
0E00
ENDCHAR
STARTCHAR Ibreve.c2sc
ENCODING -1
SWIDTH 248 0
DWIDTH 3 0
BBX 5 11 -1 0
BITMAP
71C0
2F40
0000
0E00
0E00
0E00
0E00
0E00
0E00
0E00
0E00
ENDCHAR
STARTCHAR Iogonek.c2sc
ENCODING -1
SWIDTH 248 0
DWIDTH 3 0
BBX 3 11 0 -3
BITMAP
38
38
38
38
38
38
38
38
70
A0
78
ENDCHAR
STARTCHAR Idotaccent.c2sc
ENCODING -1
SWIDTH 248 0
DWIDTH 3 0
BBX 2 11 1 0
BITMAP
90
D0
00
E0
E0
E0
E0
E0
E0
E0
E0
ENDCHAR
STARTCHAR Jcircumflex.c2sc
ENCODING -1
SWIDTH 479 0
DWIDTH 7 0
BBX 7 9 0 0
BITMAP
01F4
02F8
00B0
00B0
00B0
00B0
50B0
B5E0
2F80
ENDCHAR
STARTCHAR uni0136.c2sc
ENCODING -1
SWIDTH 544 0
DWIDTH 8 0
BBX 8 11 0 -3
BITMAP
743D
74B4
76D0
7F80
7FD0
78F0
7478
742D
0340
0700
0600
ENDCHAR
STARTCHAR Lacute.c2sc
ENCODING -1
SWIDTH 465 0
DWIDTH 7 0
BBX 7 11 0 0
BITMAP
1E00
2800
0000
7400
7400
7400
7400
7400
7400
7950
7FF4
ENDCHAR
STARTCHAR uni013B.c2sc
ENCODING -1
SWIDTH 465 0
DWIDTH 7 0
BBX 7 11 0 -3
BITMAP
7400
7400
7400
7400
7400
7400
7950
7FF4
0340
0700
0600
ENDCHAR
STARTCHAR Lcaron.c2sc
ENCODING -1
SWIDTH 465 0
DWIDTH 7 0
BBX 7 8 0 0
BITMAP
75C0
75C0
7540
7400
7400
7400
7950
7FF4
ENDCHAR
STARTCHAR Ldot.c2sc
ENCODING -1
SWIDTH 465 0
DWIDTH 7 0
BBX 7 8 0 0
BITMAP
7400
7400
7580
75C0
7400
7400
7950
7FF4
ENDCHAR
STARTCHAR Nacute.c2sc
ENCODING -1
SWIDTH 607 0
DWIDTH 9 0
BBX 8 11 0 0
BITMAP
00B4
01D0
0000
780E
7D0E
7F0E
7B8E
75DE
74BE
743E
741E
ENDCHAR
STARTCHAR uni0145.c2sc
ENCODING -1
SWIDTH 607 0
DWIDTH 9 0
BBX 8 11 0 -3
BITMAP
780E
7D0E
7F0E
7B8E
75DE
74BE
743E
741E
01C0
0280
0240
ENDCHAR
STARTCHAR Ncaron.c2sc
ENCODING -1
SWIDTH 607 0
DWIDTH 9 0
BBX 8 11 0 0
BITMAP
0A74
02D0
0000
780E
7D0E
7F0E
7B8E
75DE
74BE
743E
741E
ENDCHAR
STARTCHAR Omacron.c2sc
ENCODING -1
SWIDTH 593 0
DWIDTH 8 0
BBX 8 10 0 0
BITMAP
1FF8
0000
0BE4
2E7C
740E
740E
740E
740E
2D7C
0BE4
ENDCHAR
STARTCHAR Obreve.c2sc
ENCODING -1
SWIDTH 593 0
DWIDTH 8 0
BBX 8 11 0 0
BITMAP
0D34
07E0
0000
0BE4
2E7C
740E
740E
740E
740E
2D7C
0BE4
ENDCHAR
STARTCHAR Ohungarumlaut.c2sc
ENCODING -1
SWIDTH 593 0
DWIDTH 8 0
BBX 8 11 0 0
BITMAP
03AD
0674
0000
0BE4
2E7C
740E
740E
740E
740E
2D7C
0BE4
ENDCHAR
STARTCHAR Racute.c2sc
ENCODING -1
SWIDTH 544 0
DWIDTH 8 0
BBX 7 11 0 0
BITMAP
01D0
0240
0000
7FE0
7978
742C
743C
7FF4
79F0
7478
742C
ENDCHAR
STARTCHAR uni0156.c2sc
ENCODING -1
SWIDTH 544 0
DWIDTH 8 0
BBX 7 11 0 -3
BITMAP
7FE0
7978
742C
743C
7FF4
79F0
7478
742C
0340
0700
0600
ENDCHAR
STARTCHAR Rcaron.c2sc
ENCODING -1
SWIDTH 544 0
DWIDTH 8 0
BBX 7 11 0 0
BITMAP
1DE0
0780
0000
7FE0
7978
742C
743C
7FF4
79F0
7478
742C
ENDCHAR
STARTCHAR Sacute.c2sc
ENCODING -1
SWIDTH 525 0
DWIDTH 7 0
BBX 7 11 0 0
BITMAP
01E0
0280
0000
1BE0
3978
7814
2F90
06F4
6038
7978
1BE0
ENDCHAR
STARTCHAR Scircumflex.c2sc
ENCODING -1
SWIDTH 525 0
DWIDTH 7 0
BBX 7 11 0 0
BITMAP
0780
1DA0
0000
1BE0
3978
7814
2F90
06F4
6038
7978
1BE0
ENDCHAR
STARTCHAR Scedilla.c2sc
ENCODING -1
SWIDTH 525 0
DWIDTH 7 0
BBX 7 11 0 -3
BITMAP
1BE0
3978
7814
2F90
06F4
6038
7978
1BE0
0280
00D0
0280
ENDCHAR
STARTCHAR Scaron.c2sc
ENCODING -1
SWIDTH 525 0
DWIDTH 7 0
BBX 7 11 0 0
BITMAP
1DA0
0780
0000
1BE0
3978
7814
2F90
06F4
6038
7978
1BE0
ENDCHAR
STARTCHAR uni021A.c2sc
ENCODING -1
SWIDTH 528 0
DWIDTH 7 0
BBX 7 11 0 -3
BITMAP
BFFC
5794
0380
0380
0380
0380
0380
0380
0340
0340
0600
ENDCHAR
STARTCHAR Tcaron.c2sc
ENCODING -1
SWIDTH 528 0
DWIDTH 7 0
BBX 7 11 0 0
BITMAP
1DA0
0780
0000
BFFC
5794
0380
0380
0380
0380
0380
0380
ENDCHAR
STARTCHAR uni0162.c2sc
ENCODING -1
SWIDTH 528 0
DWIDTH 7 0
BBX 7 11 0 -3
BITMAP
BFFC
5794
0380
0380
0380
0380
0380
0380
0380
01D0
0380
ENDCHAR
STARTCHAR Utilde.c2sc
ENCODING -1
SWIDTH 564 0
DWIDTH 8 0
BBX 8 11 0 0
BITMAP
0F64
19E0
0000
741D
741D
741D
741D
741D
742C
3D7C
1BE0
ENDCHAR
STARTCHAR Umacron.c2sc
ENCODING -1
SWIDTH 564 0
DWIDTH 8 0
BBX 8 10 0 0
BITMAP
1FF4
0000
741D
741D
741D
741D
741D
742C
3D7C
1BE0
ENDCHAR
STARTCHAR Ubreve.c2sc
ENCODING -1
SWIDTH 564 0
DWIDTH 8 0
BBX 8 11 0 0
BITMAP
0D70
0BD0
0000
741D
741D
741D
741D
741D
742C
3D7C
1BE0
ENDCHAR
STARTCHAR Uring.c2sc
ENCODING -1
SWIDTH 564 0
DWIDTH 8 0
BBX 8 12 0 0
BITMAP
0780
0990
07C0
0000
741D
741D
741D
741D
741D
742C
3D7C
1BE0
ENDCHAR
STARTCHAR Uhungarumlaut.c2sc
ENCODING -1
SWIDTH 564 0
DWIDTH 8 0
BBX 8 11 0 0
BITMAP
076C
0A60
0000
741D
741D
741D
741D
741D
742C
3D7C
1BE0
ENDCHAR
STARTCHAR Uogonek.c2sc
ENCODING -1
SWIDTH 564 0
DWIDTH 8 0
BBX 8 10 0 -2
BITMAP
741D
741D
741D
741D
741D
742C
3D7C
1BE0
0280
01E0
ENDCHAR
STARTCHAR Wcircumflex.c2sc
ENCODING -1
SWIDTH 753 0
DWIDTH 11 0
BBX 11 11 0 0
BITMAP
00B400
029D00
000000
B0B074
74B4B0
34F8A0
39DCD0
2A8DD0
1E4EC0
0F4B80
0F0780
ENDCHAR
STARTCHAR Ycircumflex.c2sc
ENCODING -1
SWIDTH 529 0
DWIDTH 7 0
BBX 7 11 0 0
BITMAP
0780
1DA0
0000
B02C
3878
2CB0
0ED0
0BC0
0380
0380
0380
ENDCHAR
STARTCHAR Ydieresis.c2sc
ENCODING -1
SWIDTH 529 0
DWIDTH 7 0
BBX 7 11 0 0
BITMAP
1450
2870
0000
B02C
3878
2CB0
0ED0
0BC0
0380
0380
0380
ENDCHAR
STARTCHAR Zacute.c2sc
ENCODING -1
SWIDTH 520 0
DWIDTH 7 0
BBX 7 11 0 0
BITMAP
01E0
0280
0000
BFF8
55B4
01E0
03C0
0B40
1D00
7D54
BFFC
ENDCHAR
STARTCHAR Zdotaccent.c2sc
ENCODING -1
SWIDTH 520 0
DWIDTH 7 0
BBX 7 11 0 0
BITMAP
0240
0340
0000
BFF8
55B4
01E0
03C0
0B40
1D00
7D54
BFFC
ENDCHAR
STARTCHAR Zcaron.c2sc
ENCODING -1
SWIDTH 520 0
DWIDTH 7 0
BBX 7 11 0 0
BITMAP
1DA0
0780
0000
BFF8
55B4
01E0
03C0
0B40
1D00
7D54
BFFC
ENDCHAR
STARTCHAR two.pnum
ENCODING -1
SWIDTH 568 0
DWIDTH 8 0
BBX 8 10 0 0
BITMAP
1BE0
3D78
742C
002C
0074
01E0
0380
0F00
3D54
7FFD
ENDCHAR
STARTCHAR three.pnum
ENCODING -1
SWIDTH 568 0
DWIDTH 8 0
BBX 7 10 0 0
BITMAP
1BE0
3D78
642C
0078
07F0
0178
002C
642C
3D78
1BE0
ENDCHAR
STARTCHAR four.pnum
ENCODING -1
SWIDTH 568 0
DWIDTH 8 0
BBX 8 10 0 0
BITMAP
00B4
01F4
03B4
0A74
1D74
3474
BFFE
55B9
0074
0074
ENDCHAR
STARTCHAR five.pnum
ENCODING -1
SWIDTH 568 0
DWIDTH 8 0
BBX 7 10 1 0
BITMAP
7FF0
7550
B000
BF80
B5F0
0074
0074
E074
B5E0
2F80
ENDCHAR
STARTCHAR six.pnum
ENCODING -1
SWIDTH 578 0
DWIDTH 8 0
BBX 7 10 1 0
BITMAP
06C0
2E40
7400
BB90
F9F0
E074
E034
F074
79F0
1F80
ENDCHAR
STARTCHAR eight.pnum
ENCODING -1
SWIDTH 587 0
DWIDTH 8 0
BBX 7 10 1 0
BITMAP
2F80
B5F0
E0B0
B4B0
3FD0
B5E0
E074
E074
B5F0
2F90
ENDCHAR
STARTCHAR nine.pnum
ENCODING -1
SWIDTH 578 0
DWIDTH 8 0
BBX 7 10 0 0
BITMAP
0BE0
3DB4
742C
742C
387C
1FFC
012C
0078
06F0
0F80
ENDCHAR
STARTCHAR zero.pnum
ENCODING -1
SWIDTH 587 0
DWIDTH 8 0
BBX 7 10 1 0
BITMAP
2F80
B9E0
E074
E074
E074
E074
E074
E074
B9E0
2F80
ENDCHAR
STARTCHAR G_acutecomb.ccmp
ENCODING -1
SWIDTH 680 0
DWIDTH 10 0
BBX 9 13 0 0
BITMAP
007800
00A000
000000
06F800
1E6F00
3C0740
780100
740000
743F80
381780
3C0380
1F5B80
06F900
ENDCHAR
STARTCHAR g_acutecomb.ccmp
ENCODING -1
SWIDTH 566 0
DWIDTH 8 0
BBX 7 14 0 -3
BITMAP
01E0
0280
0000
0BAC
2DBC
742C
742C
742C
742C
2DBC
0BAC
002C
29B8
1BE0
ENDCHAR
STARTCHAR N_gravecomb.ccmp
ENCODING -1
SWIDTH 709 0
DWIDTH 10 0
BBX 8 13 1 0
BITMAP
0F00
0340
0000
F00B
F80B
FD0B
EF0B
E78B
E2DB
E0EB
E07F
E02F
E00F
ENDCHAR
STARTCHAR n_gravecomb.ccmp
ENCODING -1
SWIDTH 556 0
DWIDTH 8 0
BBX 7 11 0 0
BITMAP
0E00
0340
0000
7AE0
7E78
782C
742C
742C
742C
742C
742C
ENDCHAR
STARTCHAR A_uni030F.ccmp
ENCODING -1
SWIDTH 665 0
DWIDTH 9 0
BBX 9 13 0 0
BITMAP
2DE000
0A7000
000000
01E000
02F000
03B400
073800
0A1C00
1D0E00
2FFF00
395B40
740380
B002C0
ENDCHAR
STARTCHAR a_uni030F.ccmp
ENCODING -1
SWIDTH 541 0
DWIDTH 8 0
BBX 7 11 0 0
BITMAP
7B80
1DD0
0000
1BE0
39B4
1038
1BF8
3838
7438
79B8
1FBC
ENDCHAR
STARTCHAR E_uni030F.ccmp
ENCODING -1
SWIDTH 565 0
DWIDTH 8 0
BBX 7 13 1 0
BITMAP
EB40
2A80
0000
FFF4
F554
E000
E000
FFE0
F550
E000
E000
F554
FFF8
ENDCHAR
STARTCHAR e_uni030F.ccmp
ENCODING -1
SWIDTH 536 0
DWIDTH 8 0
BBX 7 11 0 0
BITMAP
7B80
1DD0
0000
0BE0
2D78
742C
7FFC
7554
7800
2E68
0BE0
ENDCHAR
STARTCHAR I_uni030F.ccmp
ENCODING -1
SWIDTH 282 0
DWIDTH 4 0
BBX 6 13 -2 0
BITMAP
7B80
1DD0
0000
03C0
03C0
03C0
03C0
03C0
03C0
03C0
03C0
03C0
03C0
ENDCHAR
STARTCHAR dotlessi_uni030F.ccmp
ENCODING -1
SWIDTH 262 0
DWIDTH 4 0
BBX 6 11 -2 0
BITMAP
7B80
1DD0
0000
0380
0380
0380
0380
0380
0380
0380
0380
ENDCHAR
STARTCHAR O_uni030F.ccmp
ENCODING -1
SWIDTH 690 0
DWIDTH 10 0
BBX 9 13 0 0
BITMAP
1EE000
077400
000000
06F800
1FAF00
3C0780
380380
7402C0
7402C0
380380
3C0780
1F6F00
06F800
ENDCHAR
STARTCHAR o_uni030F.ccmp
ENCODING -1
SWIDTH 569 0
DWIDTH 8 0
BBX 8 11 0 0
BITMAP
7B80
1DD0
0000
0BE0
2D78
742D
741D
741D
742D
2D78
0BE0
ENDCHAR
STARTCHAR R_uni030F.ccmp
ENCODING -1
SWIDTH 624 0
DWIDTH 9 0
BBX 9 13 0 0
BITMAP
7AC000
1D9000
000000
3FF800
3D6E00
380B00
380B00
381E00
3FFC00
3D7800
382C00
381E00
380B40
ENDCHAR
STARTCHAR r_uni030F.ccmp
ENCODING -1
SWIDTH 351 0
DWIDTH 5 0
BBX 6 11 -1 0
BITMAP
7B80
1DD0
0000
0EE0
0F90
0E00
0E00
0E00
0E00
0E00
0E00
ENDCHAR
STARTCHAR U_uni030F.ccmp
ENCODING -1
SWIDTH 651 0
DWIDTH 9 0
BBX 8 13 1 0
BITMAP
BB40
2980
0000
E01D
E01D
E01D
E01D
E01D
E01D
E01D
E02D
B9B8
1FE0
ENDCHAR
STARTCHAR u_uni030F.ccmp
ENCODING -1
SWIDTH 555 0
DWIDTH 8 0
BBX 7 11 0 0
BITMAP
7B80
1DD0
0000
742C
742C
742C
742C
742C
382C
3DBC
1FAC
ENDCHAR
STARTCHAR Upsilon1_acutecomb.ccmp
ENCODING -1
SWIDTH 608 0
DWIDTH 9 0
BBX 11 11 -2 0
BITMAP
D00000
878078
02D0E4
00E1D0
00B380
003B40
002F00
001E00
001D00
001D00
001D00
ENDCHAR
STARTCHAR B_dotbelowcomb.ccmp
ENCODING -1
SWIDTH 630 0
DWIDTH 9 0
BBX 7 13 1 -3
BITMAP
FFE0
F5B8
E038
E078
FFE0
E578
E02C
E02C
F5B8
FFE0
0000
0B00
0600
ENDCHAR
STARTCHAR b_dotbelowcomb.ccmp
ENCODING -1
SWIDTH 562 0
DWIDTH 8 0
BBX 7 14 1 -3
BITMAP
E000
E000
E000
EB80
F9E0
E0B0
E074
E074
E0B0
F5E0
EB80
0000
0700
0600
ENDCHAR
STARTCHAR D_dotbelowcomb.ccmp
ENCODING -1
SWIDTH 653 0
DWIDTH 9 0
BBX 8 13 1 -3
BITMAP
FF90
F5F4
E03C
E01D
E01D
E01D
E01D
E03C
F5F4
FF90
0000
0A00
0900
ENDCHAR
STARTCHAR d_dotbelowcomb.ccmp
ENCODING -1
SWIDTH 564 0
DWIDTH 8 0
BBX 7 14 0 -3
BITMAP
002C
002C
002C
1BAC
3DBC
742C
742C
742C
742C
3DBC
1BAC
0000
0280
0180
ENDCHAR
STARTCHAR D_uniF6C3.ccmp
ENCODING -1
SWIDTH 653 0
DWIDTH 9 0
BBX 8 13 1 -3
BITMAP
FF90
F5F4
E03C
E01D
E01D
E01D
E01D
E03C
F5F4
FF90
0A00
0D00
0800
ENDCHAR
STARTCHAR d_uniF6C3.ccmp
ENCODING -1
SWIDTH 564 0
DWIDTH 8 0
BBX 7 15 0 -4
BITMAP
002C
002C
002C
1BAC
3DBC
742C
742C
742C
742C
3DBC
1BAC
0000
0280
0280
0240
ENDCHAR
STARTCHAR H_dotbelowcomb.ccmp
ENCODING -1
SWIDTH 710 0
DWIDTH 10 0
BBX 8 13 1 -3
BITMAP
E00B
E00B
E00B
E00B
FFFF
F55F
E00B
E00B
E00B
E00B
0000
0280
0240
ENDCHAR
STARTCHAR h_dotbelowcomb.ccmp
ENCODING -1
SWIDTH 555 0
DWIDTH 8 0
BBX 7 14 0 -3
BITMAP
7400
7400
7400
7AE0
7D78
782C
742C
742C
742C
742C
742C
0000
0280
0140
ENDCHAR
STARTCHAR K_acutecomb.ccmp
ENCODING -1
SWIDTH 630 0
DWIDTH 9 0
BBX 8 13 1 0
BITMAP
02C0
0700
0000
E02D
E0B4
E1E0
E780
FF40
FF80
F6D0
E0F4
E078
E01E
ENDCHAR
STARTCHAR k_acutecomb.ccmp
ENCODING -1
SWIDTH 521 0
DWIDTH 7 0
BBX 6 12 1 0
BITMAP
02C0
E700
E000
E000
E1E0
E780
EF00
FE00
FF00
E780
E2D0
E0F0
ENDCHAR
STARTCHAR K_dotbelowcomb.ccmp
ENCODING -1
SWIDTH 630 0
DWIDTH 9 0
BBX 8 12 1 -2
BITMAP
E02D
E0B4
E1E0
E780
FF40
FF80
F6D0
E0F4
E078
E01E
0740
0200
ENDCHAR
STARTCHAR k_dotbelowcomb.ccmp
ENCODING -1
SWIDTH 521 0
DWIDTH 7 0
BBX 6 14 1 -3
BITMAP
E000
E000
E000
E1E0
E780
EF00
FE00
FF00
E780
E2D0
E0F0
0000
0D00
0900
ENDCHAR
STARTCHAR L_dotbelowcomb.ccmp
ENCODING -1
SWIDTH 541 0
DWIDTH 8 0
BBX 7 13 1 -3
BITMAP
E000
E000
E000
E000
E000
E000
E000
E000
F550
FFF4
0000
0B00
0600
ENDCHAR
STARTCHAR l_dotbelowcomb.ccmp
ENCODING -1
SWIDTH 255 0
DWIDTH 4 0
BBX 2 14 1 -3
BITMAP
E0
E0
E0
E0
E0
E0
E0
E0
E0
E0
E0
00
D0
90
ENDCHAR
STARTCHAR M_dotbelowcomb.ccmp
ENCODING -1
SWIDTH 875 0
DWIDTH 12 0
BBX 11 13 1 -3
BITMAP
F401F4
F802F4
FD03F4
EE07B4
EB0A74
E74D74
E39C74
E1F8B4
E0F4B4
E0B0B4
000000
00A000
006000
ENDCHAR
STARTCHAR m_dotbelowcomb.ccmp
ENCODING -1
SWIDTH 870 0
DWIDTH 12 0
BBX 11 11 1 -3
BITMAP
EB9BD0
F6F9F0
E0B074
E0B074
E0B074
E0B074
E0B074
E0B074
000000
00A000
006000
ENDCHAR
STARTCHAR N_dotbelowcomb.ccmp
ENCODING -1
SWIDTH 709 0
DWIDTH 10 0
BBX 8 13 1 -3
BITMAP
F00B
F80B
FD0B
EF0B
E78B
E2DB
E0EB
E07F
E02F
E00F
0000
0280
0240
ENDCHAR
STARTCHAR n_dotbelowcomb.ccmp
ENCODING -1
SWIDTH 556 0
DWIDTH 8 0
BBX 7 11 0 -3
BITMAP
7AE0
7E78
782C
742C
742C
742C
742C
742C
0000
0380
0240
ENDCHAR
STARTCHAR O_tildecomb_acutecomb.ccmp
ENCODING -1
SWIDTH 690 0
DWIDTH 10 0
BBX 9 16 0 0
BITMAP
003000
00A000
000000
029800
027400
000000
06F800
1FAF00
3C0780
380380
7402C0
7402C0
380380
3C0780
1F6F00
06F800
ENDCHAR
STARTCHAR P_acutecomb.ccmp
ENCODING -1
SWIDTH 639 0
DWIDTH 9 0
BBX 8 13 1 0
BITMAP
02C0
0740
0000
FFE0
F5BC
E01D
E01D
E02D
FFF4
F540
E000
E000
E000
ENDCHAR
STARTCHAR p_acutecomb.ccmp
ENCODING -1
SWIDTH 562 0
DWIDTH 8 0
BBX 7 14 1 -3
BITMAP
02D0
0340
0000
EB80
F6E0
E0B0
E074
E074
E0B0
F5E0
EB80
E000
E000
E000
ENDCHAR
STARTCHAR R_dotbelowcomb.ccmp
ENCODING -1
SWIDTH 624 0
DWIDTH 9 0
BBX 8 13 1 -3
BITMAP
FFE0
F5B8
E02C
E02C
E078
FFF0
F5E0
E0B0
E078
E02D
0000
0B00
0600
ENDCHAR
STARTCHAR r_dotbelowcomb.ccmp
ENCODING -1
SWIDTH 351 0
DWIDTH 5 0
BBX 4 11 1 -3
BITMAP
EE
F9
E0
E0
E0
E0
E0
E0
00
D0
90
ENDCHAR
STARTCHAR S_dotbelowcomb.ccmp
ENCODING -1
SWIDTH 603 0
DWIDTH 8 0
BBX 8 13 0 -3
BITMAP
0BF4
2E6D
380F
3D00
1F90
01BD
001E
740F
3E6E
0BF8
0000
01C0
0180
ENDCHAR
STARTCHAR s_dotbelowcomb.ccmp
ENCODING -1
SWIDTH 516 0
DWIDTH 7 0
BBX 7 11 0 -3
BITMAP
1BD0
39B4
7414
2E40
06F4
6038
79B4
1BD0
0000
0340
0240
ENDCHAR
STARTCHAR T_dotbelowcomb.ccmp
ENCODING -1
SWIDTH 606 0
DWIDTH 9 0
BBX 9 13 0 -3
BITMAP
BFFF40
56D500
02C000
02C000
02C000
02C000
02C000
02C000
02C000
02C000
000000
02C000
018000
ENDCHAR
STARTCHAR t_dotbelowcomb.ccmp
ENCODING -1
SWIDTH 332 0
DWIDTH 5 0
BBX 5 13 0 -3
BITMAP
2C00
2C00
FF40
6D00
2C00
2C00
2C00
2C00
2D00
1F40
0000
0A00
0500
ENDCHAR
STARTCHAR U_tildecomb_acutecomb.ccmp
ENCODING -1
SWIDTH 651 0
DWIDTH 9 0
BBX 8 16 1 0
BITMAP
0180
0240
0000
0D50
15C0
0000
E01D
E01D
E01D
E01D
E01D
E01D
E01D
E02D
B9B8
1FE0
ENDCHAR
STARTCHAR V_tildecomb.ccmp
ENCODING -1
SWIDTH 646 0
DWIDTH 9 0
BBX 9 14 0 0
BITMAP
000400
079C00
0D7400
000000
B40380
740740
380B00
2C0E00
1D1D00
0E2C00
0B7800
07B400
03F000
01E000
ENDCHAR
STARTCHAR v_tildecomb.ccmp
ENCODING -1
SWIDTH 494 0
DWIDTH 7 0
BBX 7 12 0 0
BITMAP
0010
2E70
35D0
0000
B038
7474
38B0
2CE0
1DD0
0FC0
0B80
0740
ENDCHAR
STARTCHAR V_dotbelowcomb.ccmp
ENCODING -1
SWIDTH 646 0
DWIDTH 9 0
BBX 9 13 0 -3
BITMAP
B40380
740740
380B00
2C0E00
1D1D00
0E2C00
0B7800
07B400
03F000
01E000
000000
01D000
008000
ENDCHAR
STARTCHAR v_dotbelowcomb.ccmp
ENCODING -1
SWIDTH 494 0
DWIDTH 7 0
BBX 7 11 0 -3
BITMAP
B038
7474
38B0
2CE0
1DD0
0FC0
0B80
0740
0000
0740
0200
ENDCHAR
STARTCHAR W_dotbelowcomb.ccmp
ENCODING -1
SWIDTH 879 0
DWIDTH 12 0
BBX 12 13 0 -3
BITMAP
B02C0B
743D0E
383E1D
387A1D
2CA72C
1DD368
1ED2B8
0FC2F4
0B81F0
0740F0
000000
002C00
001800
ENDCHAR
STARTCHAR w_dotbelowcomb.ccmp
ENCODING -1
SWIDTH 743 0
DWIDTH 10 0
BBX 10 11 0 -3
BITMAP
B0B0B0
74F4A0
34F8E0
39E9D0
2E9EC0
1F4F80
0F0B80
0E0740
000000
00B000
006000
ENDCHAR
STARTCHAR Z_dotbelowcomb.ccmp
ENCODING -1
SWIDTH 602 0
DWIDTH 8 0
BBX 8 13 0 -3
BITMAP
7FFE
156E
0038
00B4
01D0
0380
0B00
2D00
7D55
7FFF
0000
02C0
0180
ENDCHAR
STARTCHAR z_dotbelowcomb.ccmp
ENCODING -1
SWIDTH 502 0
DWIDTH 7 0
BBX 7 11 0 -3
BITMAP
7FF4
15F0
01D0
0780
0B00
1D00
7D54
7FF8
0000
0740
0200
ENDCHAR
STARTCHAR Alphatonos.c2sc
ENCODING -1
SWIDTH 577 0
DWIDTH 8 0
BBX 8 9 0 0
BITMAP
7000
63C0
07D0
0AA0
0D74
2C38
3FFC
755D
B00E
ENDCHAR
STARTCHAR Epsilontonos.c2sc
ENCODING -1
SWIDTH 513 0
DWIDTH 7 0
BBX 9 9 -2 0
BITMAP
740000
62FFC0
02D540
02C000
02FF40
02D500
02C000
02D540
02FFC0
ENDCHAR
STARTCHAR Etatonos.c2sc
ENCODING -1
SWIDTH 637 0
DWIDTH 9 0
BBX 10 9 -2 0
BITMAP
340000
62C0B0
02C0B0
02C0B0
02FFF0
02D5B0
02C0B0
02C0B0
02C0B0
ENDCHAR
STARTCHAR Iotatonos.c2sc
ENCODING -1
SWIDTH 277 0
DWIDTH 4 0
BBX 5 9 -2 0
BITMAP
3400
62C0
02C0
02C0
02C0
02C0
02C0
02C0
02C0
ENDCHAR
STARTCHAR Omicrontonos.c2sc
ENCODING -1
SWIDTH 598 0
DWIDTH 8 0
BBX 9 9 -1 0
BITMAP
700000
52F900
0B9B00
1E0380
1D0380
1D0380
0E0380
0B9B00
02F900
ENDCHAR
STARTCHAR Upsilontonos.c2sc
ENCODING -1
SWIDTH 558 0
DWIDTH 8 0
BBX 10 9 -2 0
BITMAP
A00000
9781E0
02C2C0
01E740
00BF00
003D00
002C00
002C00
002C00
ENDCHAR
STARTCHAR Omegatonos.c2sc
ENCODING -1
SWIDTH 616 0
DWIDTH 9 0
BBX 9 9 -1 0
BITMAP
700000
62F900
0B9B40
0E0380
1D02C0
1D02C0
0E0380
0B8B40
1FDFC0
ENDCHAR
STARTCHAR Alpha.c2sc
ENCODING -1
SWIDTH 577 0
DWIDTH 8 0
BBX 8 8 0 0
BITMAP
03C0
07D0
0AA0
0D74
2C38
3FFC
755D
B00E
ENDCHAR
STARTCHAR Beta.c2sc
ENCODING -1
SWIDTH 546 0
DWIDTH 8 0
BBX 7 8 0 0
BITMAP
7FE0
7978
7438
7FF4
7878
742C
797C
7FE4
ENDCHAR
STARTCHAR Epsilon.c2sc
ENCODING -1
SWIDTH 484 0
DWIDTH 7 0
BBX 7 8 0 0
BITMAP
7FF4
7950
7400
7FF0
7950
7400
7950
7FF4
ENDCHAR
STARTCHAR Zeta.c2sc
ENCODING -1
SWIDTH 520 0
DWIDTH 7 0
BBX 7 8 0 0
BITMAP
BFF8
55B4
01E0
03C0
0B40
1D00
7D54
BFFC
ENDCHAR
STARTCHAR Eta.c2sc
ENCODING -1
SWIDTH 608 0
DWIDTH 9 0
BBX 8 8 0 0
BITMAP
740E
740E
740E
7FFE
795E
740E
740E
740E
ENDCHAR
STARTCHAR Iota.c2sc
ENCODING -1
SWIDTH 248 0
DWIDTH 3 0
BBX 2 8 1 0
BITMAP
E0
E0
E0
E0
E0
E0
E0
E0
ENDCHAR
STARTCHAR Kappa.c2sc
ENCODING -1
SWIDTH 544 0
DWIDTH 8 0
BBX 8 8 0 0
BITMAP
743D
74B4
76D0
7F80
7FD0
78F0
7478
742D
ENDCHAR
STARTCHAR Mu.c2sc
ENCODING -1
SWIDTH 752 0
DWIDTH 11 0
BBX 10 8 0 0
BITMAP
7C02E0
7E03E0
7B07E0
774EA0
769DE0
75E8E0
74F4E0
74B0E0
ENDCHAR
STARTCHAR Nu.c2sc
ENCODING -1
SWIDTH 607 0
DWIDTH 9 0
BBX 8 8 0 0
BITMAP
780E
7D0E
7F0E
7B8E
75DE
74BE
743E
741E
ENDCHAR
STARTCHAR Omicron.c2sc
ENCODING -1
SWIDTH 593 0
DWIDTH 8 0
BBX 8 8 0 0
BITMAP
0BE4
2E7C
740E
740E
740E
740E
2D7C
0BE4
ENDCHAR
STARTCHAR Rho.c2sc
ENCODING -1
SWIDTH 553 0
DWIDTH 8 0
BBX 8 8 0 0
BITMAP
7FE4
797C
741D
742C
7FF4
7940
7400
7400
ENDCHAR
STARTCHAR Tau.c2sc
ENCODING -1
SWIDTH 528 0
DWIDTH 7 0
BBX 7 8 0 0
BITMAP
BFFC
5794
0380
0380
0380
0380
0380
0380
ENDCHAR
STARTCHAR Upsilon.c2sc
ENCODING -1
SWIDTH 529 0
DWIDTH 7 0
BBX 7 8 0 0
BITMAP
B02C
3878
2CB0
0ED0
0BC0
0380
0380
0380
ENDCHAR
STARTCHAR Chi.c2sc
ENCODING -1
SWIDTH 545 0
DWIDTH 8 0
BBX 8 8 0 0
BITMAP
743C
2C74
1EE0
0BC0
0BD0
1EE0
3C74
B42D
ENDCHAR
STARTCHAR Iotadieresis.c2sc
ENCODING -1
SWIDTH 248 0
DWIDTH 3 0
BBX 5 11 -1 0
BITMAP
5140
71C0
0000
0E00
0E00
0E00
0E00
0E00
0E00
0E00
0E00
ENDCHAR
STARTCHAR Upsilondieresis.c2sc
ENCODING -1
SWIDTH 529 0
DWIDTH 7 0
BBX 7 11 0 0
BITMAP
1450
2870
0000
B02C
3878
2CB0
0ED0
0BC0
0380
0380
0380
ENDCHAR
STARTCHAR uni0401.c2sc
ENCODING -1
SWIDTH 484 0
DWIDTH 7 0
BBX 7 11 0 0
BITMAP
1450
2870
0000
7FF4
7950
7400
7FF0
7950
7400
7950
7FF4
ENDCHAR
STARTCHAR uni0403.c2sc
ENCODING -1
SWIDTH 465 0
DWIDTH 7 0
BBX 7 11 0 0
BITMAP
01E0
0280
0000
7FF4
7950
7400
7400
7400
7400
7400
7400
ENDCHAR
STARTCHAR uni0405.c2sc
ENCODING -1
SWIDTH 525 0
DWIDTH 7 0
BBX 7 8 0 0
BITMAP
1BE0
3978
7814
2F90
06F4
6038
7978
1BE0
ENDCHAR
STARTCHAR uni0406.c2sc
ENCODING -1
SWIDTH 248 0
DWIDTH 3 0
BBX 2 8 1 0
BITMAP
E0
E0
E0
E0
E0
E0
E0
E0
ENDCHAR
STARTCHAR uni0407.c2sc
ENCODING -1
SWIDTH 248 0
DWIDTH 3 0
BBX 5 11 -1 0
BITMAP
5140
71C0
0000
0E00
0E00
0E00
0E00
0E00
0E00
0E00
0E00
ENDCHAR
STARTCHAR uni0408.c2sc
ENCODING -1
SWIDTH 479 0
DWIDTH 7 0
BBX 6 8 0 0
BITMAP
00B0
00B0
00B0
00B0
00B0
50B0
B9E0
2F80
ENDCHAR
STARTCHAR uni040C.c2sc
ENCODING -1
SWIDTH 544 0
DWIDTH 8 0
BBX 8 11 0 0
BITMAP
01D0
0240
0000
743D
74B4
76D0
7F80
7FD0
78F0
7478
742D
ENDCHAR
STARTCHAR uni040E.c2sc
ENCODING -1
SWIDTH 534 0
DWIDTH 7 0
BBX 8 11 0 0
BITMAP
1C70
0BD0
0000
B42D
3838
2D74
0EA0
0BD0
03C0
0740
2E00
ENDCHAR
STARTCHAR uni0410.c2sc
ENCODING -1
SWIDTH 577 0
DWIDTH 8 0
BBX 8 8 0 0
BITMAP
03C0
07D0
0AA0
0D74
2C38
3FFC
755D
B00E
ENDCHAR
STARTCHAR uni0412.c2sc
ENCODING -1
SWIDTH 546 0
DWIDTH 8 0
BBX 7 8 0 0
BITMAP
7FE0
7978
7438
7FF4
7878
742C
797C
7FE4
ENDCHAR
STARTCHAR uni0413.c2sc
ENCODING -1
SWIDTH 465 0
DWIDTH 7 0
BBX 7 8 0 0
BITMAP
7FF4
7950
7400
7400
7400
7400
7400
7400
ENDCHAR
STARTCHAR uni0415.c2sc
ENCODING -1
SWIDTH 484 0
DWIDTH 7 0
BBX 7 8 0 0
BITMAP
7FF4
7950
7400
7FF0
7950
7400
7950
7FF4
ENDCHAR
STARTCHAR uni0419.c2sc
ENCODING -1
SWIDTH 611 0
DWIDTH 9 0
BBX 8 11 0 0
BITMAP
0E34
07E0
0000
741E
743E
74BE
75DE
778E
7F0E
7D0E
780E
ENDCHAR
STARTCHAR uni041C.c2sc
ENCODING -1
SWIDTH 752 0
DWIDTH 11 0
BBX 10 8 0 0
BITMAP
7C02E0
7E03E0
7B07E0
774EA0
769DE0
75E8E0
74F4E0
74B0E0
ENDCHAR
STARTCHAR uni041D.c2sc
ENCODING -1
SWIDTH 608 0
DWIDTH 9 0
BBX 8 8 0 0
BITMAP
740E
740E
740E
7FFE
795E
740E
740E
740E
ENDCHAR
STARTCHAR uni041E.c2sc
ENCODING -1
SWIDTH 593 0
DWIDTH 8 0
BBX 8 8 0 0
BITMAP
0BE4
2E7C
740E
740E
740E
740E
2D7C
0BE4
ENDCHAR
STARTCHAR uni041F.c2sc
ENCODING -1
SWIDTH 605 0
DWIDTH 8 0
BBX 8 8 0 0
BITMAP
7FFE
795E
740E
740E
740E
740E
740E
740E
ENDCHAR
STARTCHAR uni0420.c2sc
ENCODING -1
SWIDTH 553 0
DWIDTH 8 0
BBX 8 8 0 0
BITMAP
7FE4
797C
741D
742C
7FF4
7940
7400
7400
ENDCHAR
STARTCHAR uni0421.c2sc
ENCODING -1
SWIDTH 562 0
DWIDTH 8 0
BBX 8 8 0 0
BITMAP
0BE4
2D7C
7419
7400
7400
7419
2D6C
0BE4
ENDCHAR
STARTCHAR uni0422.c2sc
ENCODING -1
SWIDTH 528 0
DWIDTH 7 0
BBX 7 8 0 0
BITMAP
BFFC
5794
0380
0380
0380
0380
0380
0380
ENDCHAR
STARTCHAR uni0425.c2sc
ENCODING -1
SWIDTH 545 0
DWIDTH 8 0
BBX 8 8 0 0
BITMAP
743C
2C74
1EE0
0BC0
0BD0
1EE0
3C74
B42D
ENDCHAR
STARTCHAR uni0498.c2sc
ENCODING -1
SWIDTH 534 0
DWIDTH 7 0
BBX 7 11 0 -3
BITMAP
1FE0
79B8
1078
07E0
0174
1038
7978
2FE0
0740
0740
0740
ENDCHAR
STARTCHAR uni04A2.c2sc
ENCODING -1
SWIDTH 608 0
DWIDTH 9 0
BBX 9 10 0 -2
BITMAP
740E00
740E00
740E00
7FFE00
795E00
740E00
740E40
740FC0
0002C0
0002C0
ENDCHAR
STARTCHAR uni04AA.c2sc
ENCODING -1
SWIDTH 562 0
DWIDTH 8 0
BBX 8 11 0 -3
BITMAP
0BE4
2D7C
7419
7400
7400
7419
3D6C
0BE4
02C0
02C0
02C0
ENDCHAR
STARTCHAR uni04AE.c2sc
ENCODING -1
SWIDTH 529 0
DWIDTH 7 0
BBX 7 8 0 0
BITMAP
B02C
3878
2CB0
0ED0
0BC0
0380
0380
0380
ENDCHAR
STARTCHAR uni04BE.c2sc
ENCODING -1
SWIDTH 749 0
DWIDTH 10 0
BBX 10 12 0 -4
BITMAP
00BE40
53D6D0
A740E0
7FFFF0
0B9550
078000
02E580
006F80
001D00
001D00
001D00
001D00
ENDCHAR
STARTCHAR uni04E2.c2sc
ENCODING -1
SWIDTH 611 0
DWIDTH 9 0
BBX 8 10 0 0
BITMAP
0FF8
0000
741E
743E
74BE
75DE
778E
7F0E
7D0E
780E
ENDCHAR
STARTCHAR uni04EE.c2sc
ENCODING -1
SWIDTH 534 0
DWIDTH 7 0
BBX 8 10 0 0
BITMAP
1FF4
0000
B42D
3838
2D74
0EA0
0BD0
03C0
0740
2E00
ENDCHAR
STARTCHAR uni0424.c2sc
ENCODING -1
SWIDTH 701 0
DWIDTH 10 0
BBX 10 8 0 0
BITMAP
00E000
0BFE00
3DF780
74E1D0
74E1D0
3DF780
0BFE00
00E000
ENDCHAR
STARTCHAR IJ.c2sc
ENCODING -1
SWIDTH 727 0
DWIDTH 10 0
BBX 9 8 1 0
BITMAP
E00740
E00740
E00740
E00740
E00740
E24740
E39B00
E1BD00
ENDCHAR
STARTCHAR AEacute.c2sc
ENCODING -1
SWIDTH 784 0
DWIDTH 11 0
BBX 11 10 0 0
BITMAP
000F00
001800
00FFF4
02F950
077800
0B3FE0
1D3D50
2FF800
797D50
B02FF8
ENDCHAR
STARTCHAR Oslashacute.c2sc
ENCODING -1
SWIDTH 593 0
DWIDTH 8 0
BBX 8 11 0 -1
BITMAP
00B0
01D0
0BED
2E7C
747E
74CE
764E
7A0E
2E7C
2BE4
1000
ENDCHAR
STARTCHAR uni0218.c2sc
ENCODING -1
SWIDTH 525 0
DWIDTH 7 0
BBX 7 11 0 -3
BITMAP
1BE0
3978
7814
2F90
06F4
6038
7978
1BE0
0380
0340
0200
ENDCHAR
STARTCHAR Wgrave.c2sc
ENCODING -1
SWIDTH 753 0
DWIDTH 11 0
BBX 11 10 0 0
BITMAP
02D000
00A000
B0B074
74B4B0
34F8A0
39DCD0
2A8DD0
1E4EC0
0F4B80
0F0780
ENDCHAR
STARTCHAR Wacute.c2sc
ENCODING -1
SWIDTH 753 0
DWIDTH 11 0
BBX 11 10 0 0
BITMAP
002D00
007400
B0B074
74B4B0
34F8A0
39DCD0
2A8DD0
1E4EC0
0F4B80
0F0780
ENDCHAR
STARTCHAR Wdieresis.c2sc
ENCODING -1
SWIDTH 753 0
DWIDTH 11 0
BBX 11 11 0 0
BITMAP
014500
034A00
000000
B0B074
74B4B0
34F8A0
39DCD0
2A8DD0
1E4EC0
0F4B80
0F0780
ENDCHAR
STARTCHAR Ygrave.c2sc
ENCODING -1
SWIDTH 529 0
DWIDTH 7 0
BBX 7 10 0 0
BITMAP
1E00
0740
B02C
3878
2CB0
0ED0
0BC0
0380
0380
0380
ENDCHAR
STARTCHAR Aogonek.locl
ENCODING -1
SWIDTH 665 0
DWIDTH 9 0
BBX 9 13 0 -3
BITMAP
01E000
02F000
03B400
073800
0A1C00
1D0E00
2FFF00
395B40
740380
B042C0
028000
034000
02D000
ENDCHAR
STARTCHAR aogonek.locl
ENCODING -1
SWIDTH 541 0
DWIDTH 8 0
BBX 7 11 0 -3
BITMAP
1BE0
39B4
1038
1BF8
3838
7438
79B8
1FBC
0D00
1D00
1F00
ENDCHAR
STARTCHAR Eogonek.locl
ENCODING -1
SWIDTH 565 0
DWIDTH 8 0
BBX 7 13 1 -3
BITMAP
FFF4
F554
E000
E000
FFE0
F550
E000
E000
F554
FFF8
0D00
1C00
1F00
ENDCHAR
STARTCHAR eogonek.locl
ENCODING -1
SWIDTH 536 0
DWIDTH 8 0
BBX 7 11 0 -3
BITMAP
0BE0
2D78
742C
7FFC
7554
7800
2E68
0BE0
0700
0E00
0B40
ENDCHAR
STARTCHAR Aogonek.c2sc.locl
ENCODING -1
SWIDTH 577 0
DWIDTH 8 0
BBX 8 11 0 -3
BITMAP
03C0
07D0
0AA0
0D74
2C38
3FFC
755D
B00E
0740
0A00
0780
ENDCHAR
STARTCHAR Eogonek.c2sc.locl
ENCODING -1
SWIDTH 484 0
DWIDTH 7 0
BBX 7 11 0 -3
BITMAP
7FF4
7950
7400
7FF0
7950
7400
7950
7FF4
0A00
0D00
0B40
ENDCHAR
STARTCHAR glyph1293
ENCODING -1
SWIDTH 262 0
DWIDTH 4 0
BBX 2 11 1 -3
BITMAP
E0
E0
E0
E0
E0
E0
E0
E0
00
D0
90
ENDCHAR
ENDFONT
